<svg xmlns="http://www.w3.org/2000/svg" width="342" height="551" fill="none" viewBox="0 0 342 551">
  <path fill="#B6D7FF" d="M325.886 26H35.041c-8.862 0-16.113 7.238-16.113 16.084v200.722l.268 70.769v11.052c0 8.847 7.251 16.084 16.114 16.084h71.972v180.946h-7.251c-7.52 0-13.696 6.166-13.696 13.671 0 7.506 6.177 13.672 13.696 13.672h147.437c4.028 0 7.52-3.217 7.52-7.506V340.443h70.898c8.863 0 16.113-7.238 16.113-16.084V41.816c0-8.846-7.25-15.816-16.113-15.816Z"/>
  <path fill="#1B1B1B" d="M68.5 101c-3.64 0-6.5 2.94-6.5 6.681v17.638c0 3.741 2.86 6.681 6.5 6.681s6.5-2.94 6.5-6.681v-17.638c0-3.741-2.86-6.681-6.5-6.681Zm33.992 0c-3.635 0-6.492 2.94-6.492 6.681v17.638c0 3.741 2.857 6.681 6.492 6.681 3.636 0 6.493-2.94 6.493-6.681v-17.638c.26-3.741-2.857-6.681-6.493-6.681ZM57.03 65.675C33.625 55.178 13.72 38.49 0 16.957L26.363 0c10.49 16.419 25.555 29.338 43.579 37.144 19.368 8.613 40.619 10.767 61.333 6.19L138 74.02c-27.708 5.921-55.684 2.96-80.97-8.344ZM170.691 523.42H180V340h-3.989v179.404h-5.32c-8.776 0-15.691 6.961-15.691 15.798 0 8.836 6.915 15.798 15.691 15.798h.532v-4.017h-.532c-6.383 0-11.702-5.355-11.702-11.781 0-6.427 5.319-11.782 11.702-11.782Z"/>
</svg>
