<svg xmlns="http://www.w3.org/2000/svg" width="298" height="108" fill="none" viewBox="0 0 298 108">
  <g clip-path="url(#a)">
    <path fill="#B6D7FF" d="M227.928 35.117H112.853V13.67c0-7.505-6.177-13.67-13.697-13.67S85.46 6.165 85.46 13.671v21.446H74.45C54.844 35.117 39 50.933 39 70.502c0 19.569 15.845 35.385 35.45 35.385h153.746l-.268-70.77Z"/>
    <path fill="#B6D7FF" d="M144 47.696v3.23c0 7-5.652 12.386-12.381 12.386H12.381C5.383 63.312 0 57.657 0 50.925v-3.23c0-7 5.652-12.386 12.381-12.386H131.62c6.729 0 12.381 5.654 12.381 12.386H144Z"/>
    <path fill="#1B1B1B" d="M228 35.312h-4v72h4v-72ZM80.08 31.31H79v4.017h.81c12.146 0 22.942 7.497 27.261 18.744 2.699 7.23 2.429 14.996-.81 21.959-3.239 6.962-8.907 12.317-16.195 15.263l-.54.269 1.35 3.748.54-.268c8.367-3.214 14.845-9.373 18.624-17.138 3.508-8.034 4.048-16.87.809-25.172C106.261 39.88 93.846 31.31 80.08 31.31Z"/>
    <path fill="#B6D7FF" d="M228 35h70v72h-70V35Z"/>
    <path fill="#B6D7FF" d="M232 35h-11v72h11z"/>
  </g>
  <defs>
    <clipPath id="a">
      <path fill="#fff" d="M0 0h298v108H0z"/>
    </clipPath>
  </defs>
</svg>
