<svg xmlns="http://www.w3.org/2000/svg" width="142" height="345" fill="none" viewBox="0 0 142 345">
  <path fill="#D7E13E" d="M20.781 75.781C23.671 75 26.875 73.203 30 70c-3.203-3.203-6.328-5-9.219-5.781C20 61.329 18.203 58.125 15 55c-3.203 3.203-5 6.328-5.781 9.219C6.329 65 3.125 66.797 0 70c3.203 3.203 6.328 5 9.219 5.781C10 78.671 11.797 81.875 15 85c3.203-3.125 5-6.328 5.781-9.219Z"/>
  <path fill="#fff" d="M137.334 340.334c0 5.905-5.905 5.905-5.905 0-5.905 0-5.905-5.905 0-5.905 0-5.905 5.905-5.905 5.905 0 5.905.131 5.905 5.905 0 5.905ZM32.615 10.77c0 5.905-5.905 5.905-5.905 0-5.905 0-5.905-5.906 0-5.906 0-5.905 5.905-5.905 5.905 0 5.905.132 5.905 5.906 0 5.906Z"/>
  <path fill="#1C7EF1" d="M71.691 266.704c10.105 10.105 4.987 15.223-5.118 4.987-10.104 10.105-15.222 4.987-4.986-5.118-10.105-10.104-4.987-15.222 5.117-4.986 10.105-9.974 15.092-4.987 4.987 5.117Z"/>
</svg>
