<svg xmlns="http://www.w3.org/2000/svg" width="237" height="312" fill="none" viewBox="0 0 237 312">
  <path fill="#D7E13E" d="M57.95 307.434c1.18-.263 2.361-1.05 3.674-2.362-1.313-1.313-2.494-1.969-3.675-2.363-.262-1.181-1.05-2.362-2.362-3.674-1.312 1.312-1.968 2.493-2.362 3.674-1.18.263-2.362 1.05-3.674 2.363 1.312 1.312 2.493 1.968 3.674 2.362.263 1.181 1.05 2.362 2.362 3.674 1.313-1.312 2.1-2.625 2.362-3.674Z"/>
  <path fill="#1C7EF1" d="M58.398 199.398c1.181-.262 2.363-1.049 3.675-2.362-1.312-1.312-2.493-1.968-3.675-2.362-.262-1.181-1.05-2.362-2.362-3.674-1.312 1.312-1.968 2.493-2.362 3.674-1.18.263-2.362 1.05-3.674 2.362 1.312 1.313 2.493 1.969 3.674 2.362.263 1.182 1.05 2.363 2.362 3.675 1.313-1.312 1.969-2.493 2.362-3.675Zm-12-190.304c1.181-.284 2.363-1.137 3.675-2.558-1.312-1.42-2.493-2.131-3.675-2.557-.262-1.28-1.05-2.558-2.362-3.979-1.312 1.421-1.968 2.7-2.362 3.979-1.18.284-2.362 1.136-3.674 2.557 1.312 1.421 2.493 2.132 3.674 2.558.263 1.279 1.05 2.558 2.362 3.979 1.313-1.421 1.969-2.7 2.362-3.979Z"/>
  <path fill="#D7E13E" d="M231.469 68.469C233.203 68 235.125 66.922 237 65c-1.922-1.922-3.797-3-5.531-3.469C231 59.797 229.922 57.875 228 56c-1.922 1.922-3 3.797-3.469 5.531C222.797 62 220.875 63.078 219 65c1.922 1.922 3.797 3 5.531 3.469C225 70.203 226.078 72.125 228 74c1.922-1.875 3-3.797 3.469-5.531Z"/>
  <path fill="#fff" d="M10.334 90.334c0 5.905-5.905 5.905-5.905 0-5.905 0-5.905-5.905 0-5.905 0-5.905 5.905-5.905 5.905 0 5.905.131 5.905 5.905 0 5.905Z"/>
</svg>
