<svg xmlns="http://www.w3.org/2000/svg" width="318" height="426" fill="none" viewBox="0 0 318 426">
  <path fill="#D7E13E" d="M18.372 259.559c2.493-.656 5.38-2.362 8.136-5.118-2.756-2.755-5.643-4.461-8.136-5.117-.656-2.494-2.362-5.381-5.118-8.136-2.756 2.755-4.462 5.642-5.118 8.136-2.493.656-5.38 2.362-8.136 5.117 2.756 2.756 5.643 4.462 8.136 5.118.656 2.494 2.362 5.381 5.118 8.136 2.756-2.755 4.33-5.642 5.118-8.136Z"/>
  <path fill="#fff" d="M158.096 420.879c0 5.905-5.905 5.905-5.905 0-5.906 0-5.906-5.905 0-5.905 0-5.905 5.905-5.905 5.905 0 5.905.131 5.905 5.905 0 5.905Z"/>
  <path fill="#1C7EF1" d="M312.263 308.32c10.105 10.104 4.987 15.222-5.117 4.986-10.105 10.105-15.223 4.987-4.987-5.117-10.105-10.105-4.987-15.223 5.118-4.987 10.104-9.973 15.091-4.987 4.986 5.118ZM243.691 10.704c10.105 10.105 4.987 15.223-5.118 4.987-10.104 10.104-15.222 4.987-4.986-5.118C223.482.47 228.6-4.649 238.704 5.587c10.105-9.974 15.092-4.987 4.987 5.117Z"/>
</svg>
