<svg width="88" height="88" viewBox="0 0 88 88" fill="none" xmlns="http://www.w3.org/2000/svg">
<path d="M88 44C88 19.7 68.3 0 44 0C19.7 0 0 19.7 0 44C0 68.3 19.7 88 44 88C68.3 88 88 68.3 88 44Z" fill="#25D366"/>
<path d="M86.6813 44.0003C86.6813 20.4293 67.5733 1.32031 44.0013 1.32031C20.4293 1.32031 1.32031 20.4303 1.32031 44.0003C1.32031 67.5733 20.4283 86.6813 44.0003 86.6813C67.5723 86.6813 86.6803 67.5733 86.6803 44.0013L86.6813 44.0003Z" stroke="url(#paint0_linear_2007_1914)" stroke-width="2.639"/>
<path d="M60.3713 27.5923C56.0283 23.2803 50.2533 20.9043 44.0993 20.9023C31.4193 20.9023 21.1003 31.1353 21.0953 43.7133C21.0909 47.7198 22.1504 51.6555 24.1653 55.1183L20.9033 66.9403L33.0983 63.7673C36.4757 65.5903 40.2534 66.5446 44.0913 66.5443H44.1013C56.7783 66.5443 67.0983 56.3103 67.1033 43.7313C67.1063 37.6353 64.7153 31.9043 60.3733 27.5913L60.3713 27.5933V27.5923ZM44.1013 62.6923H44.0923C40.6714 62.6931 37.3124 61.7804 34.3623 60.0483L33.6633 59.6383L26.4263 61.5203L28.3583 54.5233L27.9033 53.8053C25.9901 50.7881 24.9762 47.2881 24.9803 43.7153C24.9843 33.2603 33.5613 24.7553 44.1073 24.7553C49.2143 24.7563 54.0153 26.7313 57.6253 30.3153C61.2353 33.8993 63.2213 38.6633 63.2193 43.7303C63.2153 54.1853 54.6393 62.6923 44.1003 62.6923H44.1013ZM54.5863 48.4903C54.0113 48.2053 51.1863 46.8263 50.6583 46.6363C50.1313 46.4463 49.7483 46.3503 49.3653 46.9213C48.9823 47.4913 47.8803 48.7763 47.5453 49.1563C47.2093 49.5363 46.8753 49.5843 46.2993 49.2993C45.7253 49.0133 43.8733 48.4113 41.6773 46.4693C39.9693 44.9593 38.8153 43.0913 38.4803 42.5213C38.1443 41.9513 38.4443 41.6413 38.7323 41.3573C38.9903 41.1023 39.3073 40.6913 39.5943 40.3593C39.8813 40.0263 39.9773 39.7893 40.1693 39.4073C40.3603 39.0273 40.2653 38.6943 40.1213 38.4093C39.9773 38.1243 38.8283 35.3193 38.3493 34.1773C37.8823 33.0653 37.4093 33.2153 37.0553 33.1983C36.6889 33.183 36.3221 33.1763 35.9553 33.1783C35.5713 33.1783 34.9483 33.3213 34.4213 33.8913C33.8943 34.4613 32.4093 35.8413 32.4093 38.6473C32.4093 41.4523 34.4693 44.1633 34.7563 44.5433C35.0443 44.9233 38.8093 50.6813 44.5763 53.1503C45.6463 53.6083 46.7403 54.0103 47.8523 54.3513C49.2293 54.7853 50.4823 54.7243 51.4723 54.5773C52.5773 54.4133 54.8723 53.1983 55.3523 51.8673C55.8323 50.5353 55.8323 49.3943 55.6873 49.1573C55.5433 48.9183 55.1613 48.7773 54.5863 48.4903Z" fill="white"/>
<defs>
<linearGradient id="paint0_linear_2007_1914" x1="44.0003" y1="0.000312515" x2="44.0003" y2="88.0003" gradientUnits="userSpaceOnUse">
<stop stop-color="#86FFB3" stop-opacity="0.44"/>
<stop offset="1" stop-color="#26D367" stop-opacity="0"/>
</linearGradient>
</defs>
</svg>
