<svg xmlns="http://www.w3.org/2000/svg" width="117" height="88" fill="none" viewBox="0 0 117 88">
  <path fill="#D7E13E" d="M75.87 27.87c.684-.153 1.37-.61 2.13-1.37-.76-.76-1.446-1.141-2.13-1.37-.153-.684-.61-1.37-1.37-2.13-.76.76-1.141 1.446-1.37 2.13-.684.153-1.37.61-2.13 1.37.76.76 1.446 1.141 2.13 1.37.153.684.61 1.37 1.37 2.13.76-.76 1.217-1.522 1.37-2.13Zm35.31 27.953c.447-.1.893-.397 1.389-.893-.496-.496-.942-.744-1.389-.893-.099-.446-.397-.893-.893-1.389-.496.496-.744.943-.892 1.39-.447.098-.893.396-1.389.892.496.496.942.744 1.389.893.099.446.396.893.892 1.389.496-.496.794-.992.893-1.39Z"/>
  <path fill="#1C7EF1" d="M9.174 67.823c.447-.1.893-.397 1.39-.893-.497-.496-.943-.744-1.39-.893-.099-.446-.396-.893-.892-1.389-.496.496-.744.943-.893 1.39-.447.098-.893.396-1.389.892.496.496.942.744 1.389.893.099.446.397.893.893 1.389.496-.496.744-.943.892-1.39Z"/>
  <path fill="#D7E13E" d="M39.215 73.215c1.004-.271 2.116-.895 3.2-2.007-1.111-1.112-2.196-1.736-3.2-2.007-.271-1.004-.895-2.116-2.007-3.201-1.112 1.112-1.736 2.197-2.007 3.2-1.004.272-2.116.896-3.201 2.008 1.112 1.112 2.197 1.736 3.2 2.007.272 1.004.896 2.116 2.008 3.2 1.112-1.084 1.736-2.196 2.007-3.2Zm-32-29c1.004-.271 2.116-.895 3.2-2.007-1.111-1.112-2.196-1.736-3.2-2.007-.271-1.004-.895-2.116-2.007-3.201-1.112 1.112-1.736 2.197-2.007 3.2-1.004.272-2.116.896-3.201 2.008 1.112 1.112 2.197 1.736 3.2 2.007.272 1.004.896 2.116 2.008 3.2 1.112-1.084 1.736-2.196 2.007-3.2ZM109.659 6.66c.926-.251 1.953-.827 2.954-1.853-1.026-1.027-2.028-1.603-2.954-1.853-.25-.926-.826-1.953-1.852-2.954-1.027 1.026-1.603 2.028-1.853 2.954-.926.25-1.953.826-2.954 1.853 1.026 1.026 2.028 1.602 2.954 1.852.25.926.826 1.953 1.853 2.954 1.026-1.001 1.602-2.028 1.852-2.954Z"/>
  <path fill="#B6D7FF" d="M89.12 83.837c0 4.395-4.394 4.395-4.394 0-4.395 0-4.395-4.395 0-4.395 0-4.394 4.394-4.394 4.394 0 4.395.098 4.395 4.395 0 4.395ZM65.7 39.7c0 4.4-4.4 4.4-4.4 0-4.4 0-4.4-4.4 0-4.4 0-4.4 4.4-4.4 4.4 0 4.4.098 4.4 4.4 0 4.4Zm43.206-19.794c0 2.232-2.232 2.232-2.232 0-2.232 0-2.232-2.232 0-2.232 0-2.232 2.232-2.232 2.232 0 2.232.05 2.232 2.232 0 2.232Z"/>
  <path fill="#1C7EF1" d="M90.394 53.03c4.762 4.75 2.35 7.155-2.411 2.344-4.762 4.75-7.174 2.344-2.35-2.405-4.762-4.749-2.35-7.154 2.411-2.343 4.762-4.688 7.112-2.282 2.35 2.405Zm23.652-21.396c3.819 3.819 1.885 5.753-1.934 1.885-3.82 3.819-5.754 1.884-1.885-1.935-3.819-3.819-1.885-5.753 1.934-1.885 3.819-3.77 5.704-1.884 1.885 1.935ZM49.158 47.95c2.615 2.608 1.29 3.93-1.325 1.286-2.616 2.61-3.94 1.288-1.291-1.32-2.616-2.61-1.291-3.93 1.325-1.288 2.616-2.575 3.906-1.288 1.29 1.321Zm35.018-37.428c3.333 3.324 1.645 5.007-1.688 1.64-3.333 3.324-5.022 1.64-1.645-1.684-3.333-3.324-1.645-5.007 1.688-1.64 3.333-3.281 4.978-1.64 1.645 1.684Z"/>
</svg>
