<svg xmlns="http://www.w3.org/2000/svg" width="145" height="145" fill="none" viewBox="0 0 145 145">
  <path fill="#B6D7FF" d="M47.875 140.875c0 4.5-4.5 4.5-4.5 0-4.5 0-4.5-4.5 0-4.5 0-4.5 4.5-4.5 4.5 0 4.5.1 4.5 4.5 0 4.5Z"/>
  <path fill="#1C7EF1" d="M11.957 23.157c7.7 7.7 3.8 11.6-3.9 3.8-7.7 7.7-11.6 3.8-3.8-3.9-7.7-7.7-3.8-11.6 3.9-3.8 7.7-7.6 11.5-3.7 3.8 3.9Z"/>
  <path fill="#B6D7FF" d="M58.875 7.875c0 4.5-4.5 4.5-4.5 0-4.5 0-4.5-4.5 0-4.5 0-4.5 4.5-4.5 4.5 0 4.5.1 4.5 4.5 0 4.5Z"/>
  <path fill="#D7E13E" d="M138 30c1.9-.5 4.1-1.8 6.2-3.9-2.1-2.1-4.3-3.4-6.2-3.9-.5-1.9-1.8-4.1-3.9-6.2-2.1 2.1-3.4 4.3-3.9 6.2-1.9.5-4.1 1.8-6.2 3.9 2.1 2.1 4.3 3.4 6.2 3.9.5 1.9 1.8 4.1 3.9 6.2 2.1-2.1 3.3-4.3 3.9-6.2Z"/>
</svg>
