<svg xmlns="http://www.w3.org/2000/svg" width="124" height="169" fill="none" viewBox="0 0 124 169">
  <path fill="#D7E13E" d="M14 42c1.9-.5 4.1-1.8 6.2-3.9-2.1-2.1-4.3-3.4-6.2-3.9-.5-1.9-1.8-4.1-3.9-6.2-2.1 2.1-3.4 4.3-3.9 6.2-1.9.5-4.1 1.8-6.2 3.9 2.1 2.1 4.3 3.4 6.2 3.9.5 1.9 1.8 4.1 3.9 6.2 2.1-2.1 3.3-4.3 3.9-6.2Zm45.4 101.257c.9-.2 1.8-.8 2.8-1.8-1-1-1.9-1.5-2.8-1.8-.2-.9-.8-1.8-1.8-2.8-1 1-1.5 1.9-1.8 2.8-.9.2-1.8.8-2.8 1.8 1 1 1.9 1.5 2.8 1.8.2.9.8 1.8 1.8 2.8 1-1 1.6-2 1.8-2.8Z"/>
  <path fill="#1C7EF1" d="M46.4 6.658c.9-.2 1.8-.8 2.8-1.8-1-1-1.9-1.5-2.8-1.8-.2-.9-.8-1.8-1.8-2.8-1 1-1.5 1.9-1.8 2.8-.9.2-1.8.8-2.8 1.8 1 1 1.9 1.5 2.8 1.8.2.9.8 1.8 1.8 2.8 1-1 1.5-1.9 1.8-2.8Z"/>
  <path fill="#B6D7FF" d="M120.475 164.932c0 4.5-4.5 4.5-4.5 0-4.5 0-4.5-4.5 0-4.5 0-4.5 4.5-4.5 4.5 0 4.5.1 4.5 4.5 0 4.5Z"/>
</svg>
