<svg xmlns="http://www.w3.org/2000/svg" width="114" height="61" fill="none" viewBox="0 0 114 61">
  <path fill="#D7E13E" d="M73.6 27.157c3.7-1 7.8-3.3 11.8-7.4-4.1-4.1-8.1-6.4-11.8-7.4-1-3.7-3.3-7.8-7.4-11.8-4.1 4.1-6.4 8.1-7.4 11.8-3.7 1-7.8 3.3-11.8 7.4 4.1 4.1 8.1 6.4 11.8 7.4 1 3.7 3.3 7.8 7.4 11.8 4.1-4 6.4-8.1 7.4-11.8Z"/>
  <path fill="#B6D7FF" d="M7.875 12.875c0 4.5-4.5 4.5-4.5 0-4.5 0-4.5-4.5 0-4.5 0-4.5 4.5-4.5 4.5 0 4.5.1 4.5 4.5 0 4.5Z"/>
  <path fill="#1C7EF1" d="M108.957 52.157c7.7 7.7 3.8 11.6-3.9 3.8-7.7 7.7-11.6 3.8-3.8-3.9-7.7-7.7-3.8-11.6 3.9-3.8 7.7-7.6 11.5-3.8 3.8 3.9Z"/>
</svg>
