<svg xmlns="http://www.w3.org/2000/svg" width="344" height="249" fill="none" viewBox="0 0 344 249">
  <path fill="#D7E13E" d="M59 13c2.25.5 4.5 2 7 4.5-2.5 2.5-4.75 3.75-7 4.5-.5 2.25-2 4.5-4.5 7-2.5-2.5-3.75-4.75-4.5-7-2.25-.5-4.5-2-7-4.5 2.5-2.5 4.75-3.75 7-4.5.5-2.25 2-4.5 4.5-7 2.5 2.5 4 5 4.5 7Z"/>
  <path fill="#fff" d="M276.692 5.04c0-5.973-5.974-5.973-5.974 0-5.973 0-5.973 5.974 0 5.974 0 5.974 5.974 5.974 5.974 0 5.973-.133 5.973-5.973 0-5.973ZM11.305 238.427c0-5.973-5.973-5.973-5.973 0-5.974 0-5.974 5.974 0 5.974 0 5.973 5.973 5.973 5.973 0 5.974-.133 5.974-5.974 0-5.974Z"/>
  <path fill="#D7E13E" d="M340.352 52.454c6.666-7.123 3.29-10.731-3.376-3.516-6.667-7.123-10.043-3.515-3.29 3.608-6.667 7.123-3.29 10.731 3.376 3.516 6.667 7.03 9.956 3.515 3.29-3.608Z"/>
</svg>
