<svg xmlns="http://www.w3.org/2000/svg" width="133" height="91" fill="none" viewBox="0 0 133 91">
  <path fill="#FFB8A8" d="M4.156 82.844C4.734 83 5.375 83.359 6 84c-.64.64-1.266 1-1.844 1.156C4 85.734 3.641 86.375 3 87c-.64-.64-1-1.266-1.156-1.844C1.266 85 .625 84.641 0 84c.64-.64 1.266-1 1.844-1.156C2 82.266 2.359 81.625 3 81c.64.625 1 1.266 1.156 1.844Z"/>
  <path fill="#fff" d="M124.75 18.243c0-1.593-1.594-1.593-1.594 0-1.593 0-1.593 1.594 0 1.594 0 1.594 1.594 1.594 1.594 0 1.594-.035 1.594-1.594 0-1.594ZM35.789 87.262c0-1.594-1.594-1.594-1.594 0-1.593 0-1.593 1.594 0 1.594 0 1.593 1.594 1.593 1.594 0 1.594-.036 1.594-1.594 0-1.594Z"/>
  <path fill="#FFB8A8" d="M131.207 2.106c0-1.594-1.594-1.594-1.594 0-1.593 0-1.593 1.593 0 1.593 0 1.594 1.594 1.594 1.594 0 1.594-.035 1.594-1.593 0-1.593Z"/>
  <path fill="#D7E13E" d="M115.2 8.8c0-2.4-2.4-2.4-2.4 0-2.4 0-2.4 2.4 0 2.4 0 2.4 2.4 2.4 2.4 0 2.4-.053 2.4-2.4 0-2.4ZM46.875 61.316c1.652-1.647.815-2.482-.836-.813-1.652-1.647-2.488-.813-.815.834-1.652 1.647-.815 2.481.836.813 1.652 1.626 2.467.791.815-.834ZM130.238 37.4c1.424-1.424.703-2.145-.722-.702-1.425-1.425-2.146-.703-.703.721-1.425 1.425-.703 2.147.722.704 1.424 1.406 2.127.703.703-.722Z"/>
  <path fill="#FFB8A8" d="M110.235 31.854c2.727-2.727 1.346-4.108-1.381-1.346-2.727-2.727-4.109-1.345-1.346 1.382-2.727 2.727-1.346 4.108 1.381 1.345 2.727 2.692 4.073 1.346 1.346-1.38Z"/>
</svg>
