<svg xmlns="http://www.w3.org/2000/svg" width="419" height="254" fill="none" viewBox="0 0 419 254">
  <path fill="#FFB8A8" d="M8.8 245.112c1.195.265 2.39 1.062 3.717 2.389-1.327 1.328-2.522 1.991-3.717 2.39-.265 1.194-1.062 2.389-2.39 3.716-1.327-1.327-1.99-2.522-2.389-3.716-1.194-.266-2.389-1.062-3.716-2.39 1.327-1.327 2.522-1.991 3.716-2.389.266-1.195 1.062-2.39 2.39-3.717 1.327 1.327 1.991 2.522 2.39 3.717ZM328.922 5.035c0-5.974-5.973-5.974-5.973 0-5.974 0-5.974 5.973 0 5.973 0 5.974 5.973 5.974 5.973 0 5.974-.133 5.974-5.973 0-5.973Z"/>
  <path fill="#fff" d="M413.56 88.881c0-5.973-5.973-5.973-5.973 0-5.974 0-5.974 5.974 0 5.974 0 5.973 5.973 5.973 5.973 0 5.973-.133 5.973-5.974 0-5.974Z"/>
  <path fill="#FFB8A8" d="M180.872 111.695c10.222-10.221 5.045-15.398-5.177-5.044-10.221-10.221-15.398-5.044-5.044 5.177-10.221 10.221-5.044 15.398 5.177 5.044 10.221 10.089 15.266 5.044 5.044-5.177Z"/>
</svg>
