<svg xmlns="http://www.w3.org/2000/svg" width="689" height="413" fill="none" viewBox="0 0 689 413">
  <path fill="#fff" d="M454.615 179.334c0 5.905-5.905 5.905-5.905 0-5.905 0-5.905-5.905 0-5.905 0-5.905 5.905-5.905 5.905 0 5.906.131 5.906 5.905 0 5.905Zm188.719-135c0 5.905-5.905 5.905-5.905 0-5.905 0-5.905-5.905 0-5.905 0-5.905 5.905-5.905 5.905 0 5.905.131 5.905 5.905 0 5.905Z"/>
  <path fill="#D7E13E" d="M270.334 10.334c0 5.905-5.905 5.905-5.905 0-5.905 0-5.905-5.905 0-5.905 0-5.905 5.905-5.905 5.905 0 5.905.131 5.905 5.905 0 5.905Z"/>
  <path fill="#fff" d="M10.334 408.334c0 5.905-5.905 5.905-5.905 0-5.905 0-5.905-5.905 0-5.905 0-5.905 5.905-5.905 5.905 0 5.905.131 5.905 5.905 0 5.905Z"/>
  <path fill="#D7E13E" d="M684.334 227.334c0 5.905-5.905 5.905-5.905 0-5.905 0-5.905-5.905 0-5.905 0-5.905 5.905-5.905 5.905 0 5.905.131 5.905 5.905 0 5.905Z"/>
</svg>
