<svg xmlns="http://www.w3.org/2000/svg" width="558" height="133" fill="none" viewBox="0 0 558 133">
  <path fill="#1C7EF1" d="M290.889 19.744c1.181-.263 2.362-1.05 3.674-2.362-1.312-1.313-2.493-1.969-3.674-2.363-.263-1.18-1.05-2.361-2.362-3.674-1.313 1.313-1.969 2.493-2.362 3.675-1.181.262-2.363 1.05-3.675 2.362 1.312 1.312 2.494 1.968 3.675 2.362.262 1.18 1.049 2.362 2.362 3.674 1.312-1.312 1.968-2.493 2.362-3.674Zm260.802-9.04c10.105 10.105 4.987 15.223-5.118 4.987-10.104 10.104-15.222 4.987-4.986-5.118C531.482.47 536.6-4.649 546.704 5.587c10.105-9.974 15.092-4.856 4.987 5.117Z"/>
  <path fill="#D7E13E" d="M15.691 121.704c10.104 10.105 4.987 15.223-5.118 4.987-10.104 10.105-15.222 4.987-4.986-5.118-10.105-10.104-4.987-15.222 5.117-4.986 10.105-9.974 15.091-4.987 4.987 5.117Z"/>
  <path fill="#1C7EF1" d="M354.263 87.883c10.105 10.105 4.987 15.222-5.117 4.987-10.105 10.104-15.223 4.986-4.987-5.118-10.105-10.105-4.987-15.222 5.118-4.987 10.104-9.973 15.091-4.986 4.986 5.118Z"/>
</svg>
