<svg xmlns="http://www.w3.org/2000/svg" width="351" height="389" fill="none" viewBox="0 0 351 389">
  <path fill="#B6D7FF" d="M30.455 28.731h158.997c6.832 0 12.422 5.59 12.422 12.422v120.076h99.062c20.496 0 37.162 16.665 37.162 37.161v173.682h4.14a7.863 7.863 0 0 1 7.867 7.867 7.864 7.864 0 0 1-7.867 7.867h-82.604a5.787 5.787 0 0 1-5.796-5.797v-96.357c0-.31 0-.517.103-.828v-65.628c0-6.21-5.072-11.283-11.283-11.283h-116.66l-46.788-.103H30.352c-6.832 0-12.422-5.59-12.422-12.422V41.256c0-6.935 5.59-12.525 12.525-12.525Z"/>
  <path fill="#1B1B1B" d="M153.739 73.552c14.078-3.83 26.603-11.697 36.23-22.67l-13.354-11.696a55.816 55.816 0 0 1-27.534 17.183c-11.594 3.209-23.705 2.588-34.988-1.656l-6.314 16.665c14.802 5.59 30.743 6.418 45.96 2.174Zm107.551 82.604c14.802 0 26.085 4.037 33.642 12.111 10.558 11.283 9.834 25.879 9.73 26.396v174.614h2.485c5.279 0 9.626 4.347 9.626 9.626 0 5.28-4.347 9.627-9.626 9.627h-.621v-3.416h.621c3.416 0 6.107-2.795 6.107-6.107 0-3.313-2.795-6.107-6.107-6.107h-5.901V194.767c0-.104.725-13.871-8.798-24.015-6.936-7.35-17.391-10.973-31.158-10.973h-.621v-3.416h.621v-.207ZM61.51 80.178h115.211c4.14.207 7.453 3.52 7.453 7.763 0 4.244-3.52 7.764-7.764 7.764h-20.185c-4.244 0-7.763-3.52-7.763-7.764 0-1.553.414-3.002 1.242-4.244h-8.902c.828 1.242 1.242 2.691 1.242 4.244 0 4.244-3.52 7.764-7.764 7.764h-20.185c-4.244 0-7.763-3.52-7.763-7.764 0-1.553.414-3.002 1.242-4.244H61.51c-8.488 0-15.423 6.936-15.423 15.424v.414h-3.52v-.414c-.103-10.352 8.385-18.943 18.943-18.943Z"/>
  <path fill="#B6D7FF" d="M.605 9.69v236.014c0 11.742 9.472 21.214 21.215 21.214 11.742 0 21.214-9.472 21.214-21.214v-8.454h1.488a8.252 8.252 0 0 0 8.298-8.298 8.252 8.252 0 0 0-8.298-8.297h-1.488v-31.704h165.571c5.62 0 10.176-4.556 10.176-10.176v-77.653h-.156V9.691a9.622 9.622 0 0 0-9.629-9.628H10.233A9.622 9.622 0 0 0 .605 9.69Z"/>
  <path fill="#1B1B1B" d="M101.156 49.094c2.27 0 4.071 1.8 4.071 4.07v10.647c0 2.27-1.801 4.07-4.071 4.07-2.27 0-4.07-1.8-4.07-4.07V53.165c0-2.27 1.878-4.07 4.07-4.07Zm20.402 0c2.27 0 4.071 1.8 4.071 4.07v10.647c0 2.27-1.801 4.07-4.071 4.07-2.27 0-4.071-1.8-4.071-4.07V53.165c0-2.27 1.801-4.07 4.071-4.07Zm-2.387-11.948c-15.166 2.617-30.655.812-44.693-5.345l7.472-17.114c10.682 4.684 22.452 6.075 34.032 4.039 12.518-2.224 23.789-8.13 32.606-17.246l13.474 12.98c-11.575 12.003-26.401 19.817-42.891 22.686Zm-76.43 110.065h2.427v60.615h-2.427v-60.615Zm176.682-12.143h-2.427L216.998 74h2.426l-.001 61.068Z"/>
</svg>
