<svg xmlns="http://www.w3.org/2000/svg" width="383" height="429" fill="none" viewBox="0 0 383 429">
  <path fill="#B6D7FF" d="M193.372 214.123c2.493-.656 5.38-2.362 8.136-5.118-2.756-2.756-5.643-4.462-8.136-5.118-.656-2.493-2.362-5.38-5.118-8.136-2.756 2.756-4.462 5.643-5.118 8.136-2.493.656-5.38 2.362-8.136 5.118 2.756 2.756 5.643 4.462 8.136 5.118.656 2.493 2.362 5.38 5.118 8.136 2.756-2.756 4.33-5.643 5.118-8.136Zm59.577 92.876c1.181-.263 2.362-1.05 3.675-2.362-1.313-1.313-2.494-1.969-3.675-2.363-.262-1.181-1.05-2.362-2.362-3.674-1.312 1.312-1.968 2.493-2.362 3.674-1.181.263-2.362 1.05-3.674 2.363 1.312 1.312 2.493 1.968 3.674 2.362.263 1.181 1.05 2.362 2.362 3.674 1.312-1.312 2.1-2.625 2.362-3.674ZM373.781 20.781C376.672 20 379.875 18.203 383 15c-3.203-3.203-6.328-5-9.219-5.781C373 6.329 371.203 3.125 368 0c-3.203 3.203-5 6.328-5.781 9.219C359.328 10 356.125 11.797 353 15c3.203 3.203 6.328 5 9.219 5.781.781 2.89 2.578 6.094 5.781 9.219 3.203-3.125 5-6.328 5.781-9.219Z"/>
  <path fill="#1C7EF1" d="M20.781 419.781C23.671 419 26.875 417.203 30 414c-3.203-3.203-6.328-5-9.219-5.781C20 405.328 18.203 402.125 15 399c-3.203 3.203-5 6.328-5.781 9.219C6.329 409 3.125 410.797 0 414c3.203 3.203 6.328 5 9.219 5.781C10 422.672 11.797 425.875 15 429c3.203-3.125 5-6.328 5.781-9.219Z"/>
</svg>
