<svg xmlns="http://www.w3.org/2000/svg" width="711" height="611" fill="none" viewBox="0 0 711 611">
  <g clip-path="url(#a)">
    <mask id="b" width="711" height="717" x="0" y="0" maskUnits="userSpaceOnUse" style="mask-type:luminance">
      <path fill="#fff" d="M0 0h711v717H0V0Z"/>
    </mask>
    <g mask="url(#b)">
      <path fill="#1C7EF1" d="M858 288c0 236.93-192.07 429-429 429S0 524.93 0 288C67.5 193.5 257.07-60.5 494-60.5S858 51.07 858 288Z" opacity=".05"/>
      <path fill="#B6D7FF" d="M752 288c0 178.388-42 301.5-323 323-178.388 0-306.5-16.112-306.5-194.5S250.612-35 429-35s323 144.612 323 323Z" opacity=".05"/>
      <path fill="#1C7EF1" d="M683 264c0 123.159-99.84 223-223 223-123.159 0-223-99.841-223-223 0-123.16 99.841-147 223-147 123.16 0 223 23.84 223 147Z" opacity=".1"/>
      <path fill="#B6D7FF" d="M547.539 116.732H243.312c-5.521 0-10 4.478-10 10v320.582c0 5.523 4.479 10 10 10h304.227c5.522 0 10-4.477 10-10V126.732c0-5.522-4.478-10-10-10Z"/>
      <path fill="#1B1B1B" d="M334.242 178.134c-19.622-1-38.345-7.653-54.103-19.242l14.144-19.291c11.965 8.818 26.224 13.886 41.177 14.649 16.171.824 31.921-3.393 45.466-12.268l13.091 20.001c-17.824 11.642-38.461 17.238-59.775 16.151Zm-11.339 37.385c-3.184 0-5.827 2.575-5.827 5.827v15.108c0 3.184 2.575 5.827 5.827 5.827 3.184 0 5.826-2.575 5.826-5.827v-15.108c0-3.184-2.574-5.827-5.826-5.827Zm25.203 0c-3.184 0-5.826 2.575-5.826 5.827v15.108c0 3.184 2.574 5.827 5.826 5.827 3.184 0 5.827-2.575 5.827-5.827v-15.108c0-3.184-2.643-5.827-5.827-5.827Z"/>
      <path stroke="#B6D7FF" stroke-width="60" d="M170.277 153.292c-2.868 16.254-12.704 97.6-18.176 155.739a.981.981 0 0 0 .995 1.082h167.75"/>
      <path fill="#B6D7FF" d="M104.745 160.177a35.356 35.356 0 0 1 11.119-38.161 35.354 35.354 0 0 1 12.322-6.597l41.278-12.572c19.014-5.792 39.347 4.858 45.415 23.785a35.358 35.358 0 0 1-2.315 27.305 35.362 35.362 0 0 1-21.126 17.454l-41.278 12.572c-19.014 5.791-39.347-4.858-45.415-23.786Z"/>
      <path stroke="#1B1B1B" stroke-width="5" d="M115.051 155.246c3.586 8.979 13.771 13.351 22.75 9.766 8.979-3.586 13.351-13.771 9.766-22.75 3.586 8.979 13.771 13.351 22.75 9.765 8.979-3.585 13.351-13.771 9.766-22.75"/>
      <path fill="#1B1B1B" fill-rule="evenodd" d="M227.998 316v-37h5v37h-5Z" clip-rule="evenodd"/>
      <path fill="#B6D7FF" fill-rule="evenodd" d="m169.32 490.787 118.121-94.496 36.061 45.076-56.011 44.809h173.635v49.548l-253.174 8.177c-28.193 0-40.646-35.502-18.632-53.114Z" clip-rule="evenodd"/>
      <path fill="#B6D7FF" fill-rule="evenodd" d="m633.078 490.787-118.121-94.496-42.564 48.035 62.514 41.85-180.623-17.538c-9.403-.913-17.546 6.478-17.546 15.925v40.097l277.708 19.241c28.193 0 40.646-35.502 18.632-53.114Z" clip-rule="evenodd"/>
      <path fill="#B6D7FF" d="M411.727 502.827a21.222 21.222 0 0 1 15.399-5.731 21.2 21.2 0 0 1 14.869 6.99l31.26 34.474c8.006 8.829 7.434 22.579-1.277 30.713a21.194 21.194 0 0 1-15.398 5.731 21.2 21.2 0 0 1-14.87-6.99l-31.26-34.474c-8.006-8.829-7.434-22.579 1.277-30.713Z"/>
      <path stroke="#1B1B1B" stroke-width="5" d="M441.126 571.803s21.166 11.545 33.192-1.443c9.414-10.168 5.773-26.939 5.773-26.939l-48.592-54.719a15.984 15.984 0 0 0-12.041-5.376l-91.378.445"/>
      <path fill="#B6D7FF" d="m562.322 455.255 4.241-1.792s38.721-49.873 23.292-93.586c-13.695-38.799-70.32-36.295-70.32-36.295l36.984-47.142s58.418 17.125 78.949 58.206c25.985 51.994-15.396 120.609-15.396 120.609 5.492 12.796 3.368 30.904-9.428 36.396-12.796 5.493-27.725-.365-33.217-13.161l-1.947-4.503-4.241 1.793c-5.666 2.491-12.23-.139-14.721-5.804-2.491-5.666.139-12.23 5.804-14.721Z"/>
      <path stroke="#1B1B1B" stroke-width="5" d="M623.444 480.404c-10.918 28.438-71.119 20.96-68.393-10.583"/>
      <path fill="#1B1B1B" d="M562.352 277.005h-4.811l-.002 38.402 4.811.001.002-38.403Z"/>
    </g>
  </g>
  <defs>
    <clipPath id="a">
      <path fill="#fff" d="M0 0h711v611H0z"/>
    </clipPath>
  </defs>
</svg>
