<svg xmlns="http://www.w3.org/2000/svg" width="150" height="167" fill="none" viewBox="0 0 150 167">
  <path fill="#B6D7FF" d="M13.555 12.485h67.869c2.916 0 5.302 2.386 5.302 5.302v51.256h42.286c8.749 0 15.862 7.113 15.862 15.862v74.138h1.768a3.356 3.356 0 0 1 3.358 3.358 3.357 3.357 0 0 1-3.358 3.358h-35.26a2.471 2.471 0 0 1-2.475-2.475v-41.13c0-.133 0-.221.045-.354V93.787a4.828 4.828 0 0 0-4.817-4.817H54.338l-19.972-.044H13.511c-2.917 0-5.303-2.386-5.303-5.302V17.83a5.337 5.337 0 0 1 5.347-5.346Z"/>
  <path fill="#1B1B1B" d="M66.18 31.617a31.554 31.554 0 0 0 15.464-9.677l-5.7-4.993a23.826 23.826 0 0 1-11.753 7.335c-4.949 1.37-10.118 1.105-14.935-.707l-2.695 7.114c6.319 2.386 13.123 2.74 19.619.928Zm45.908 35.26c6.318 0 11.135 1.723 14.36 5.17 4.507 4.816 4.198 11.046 4.154 11.267v74.535h1.06c2.254 0 4.109 1.856 4.109 4.11 0 2.253-1.855 4.109-4.109 4.109h-.265v-1.458h.265a2.612 2.612 0 0 0 2.607-2.607c0-1.414-1.193-2.607-2.607-2.607h-2.518V83.358c0-.044.309-5.92-3.756-10.25-2.961-3.138-7.423-4.684-13.3-4.684h-.265v-1.458h.265v-.089ZM26.812 34.445H75.99c1.768.089 3.182 1.502 3.182 3.314s-1.502 3.314-3.314 3.314h-8.616c-1.812 0-3.314-1.502-3.314-3.314 0-.663.177-1.281.53-1.812h-3.8c.354.53.53 1.15.53 1.812 0 1.812-1.502 3.314-3.314 3.314h-8.616c-1.811 0-3.314-1.502-3.314-3.314 0-.663.177-1.281.53-1.812H26.813c-3.623 0-6.584 2.96-6.584 6.584v.177h-1.502v-.177c-.044-4.418 3.579-8.086 8.086-8.086Z"/>
  <path fill="#B6D7FF" d="M.813 4.357v100.745a9.041 9.041 0 0 0 9.056 9.055 9.041 9.041 0 0 0 9.055-9.055v-3.609h.635a3.523 3.523 0 0 0 3.542-3.542 3.523 3.523 0 0 0-3.542-3.542h-.635V80.876H89.6c2.4 0 4.344-1.945 4.344-4.344V43.385h-.067V4.357a4.107 4.107 0 0 0-4.11-4.11H4.923a4.107 4.107 0 0 0-4.11 4.11Z"/>
  <path fill="#1B1B1B" d="M43.735 21.177c.97 0 1.738.768 1.738 1.738v4.544c0 .969-.769 1.737-1.738 1.737a1.726 1.726 0 0 1-1.738-1.737v-4.544c0-.97.802-1.738 1.738-1.738Zm8.709 0c.97 0 1.738.768 1.738 1.738v4.544c0 .969-.769 1.737-1.738 1.737-.97 0-1.738-.768-1.738-1.737v-4.544c0-.97.769-1.738 1.738-1.738Zm-1.019-5.1c-6.474 1.117-13.085.346-19.077-2.282l3.189-7.305c4.56 2 9.584 2.593 14.527 1.724 5.343-.95 10.155-3.47 13.918-7.361l5.752 5.54c-4.941 5.124-11.27 8.46-18.309 9.684ZM18.798 63.632h1.036v25.874h-1.036V63.632Z"/>
</svg>
