<svg xmlns="http://www.w3.org/2000/svg" width="168" height="178" fill="none" viewBox="0 0 168 178">
  <path fill="#1C7EF1" d="M211 71.986c0 58.266-47.234 105.5-105.5 105.5S0 130.252 0 71.986c16.6-23.24 63.219-85.703 121.485-85.703S211 13.72 211 71.986Z" opacity=".05"/>
  <path fill="#B6D7FF" d="M184.932 71.986c0 43.869-10.329 74.145-79.432 79.432-43.87 0-75.375-3.962-75.375-47.832C30.125 59.717 61.63-7.447 105.5-7.447c43.869 0 79.432 35.563 79.432 79.433Z" opacity=".05"/>
  <path fill="#1C7EF1" d="M167.964 66.084c0 30.287-24.553 54.84-54.84 54.84-30.288 0-54.84-24.553-54.84-54.84 0-30.288 24.552-36.15 54.84-36.15 30.287 0 54.84 5.863 54.84 36.15Z" opacity=".1"/>
  <path fill="#B6D7FF" d="M73.127 59.967c.614-.162 1.324-.581 2.001-1.259-.677-.678-1.388-1.097-2-1.258-.162-.614-.582-1.324-1.26-2.001-.677.677-1.096 1.387-1.258 2-.613.162-1.323.581-2 1.26.677.677 1.387 1.096 2 1.258.162.613.581 1.323 1.259 2 .677-.677 1.065-1.387 1.258-2Zm14.653 22.84c.29-.065.581-.259.904-.581-.323-.323-.613-.484-.904-.581-.064-.29-.258-.581-.58-.904-.323.323-.485.613-.582.904-.29.064-.58.258-.903.58.323.323.613.485.903.582.065.29.259.58.581.903.323-.322.517-.645.581-.903Z"/>
  <path fill="#1C7EF1" d="M88.01 49.053c.291-.065.582-.258.904-.581-.322-.323-.613-.484-.903-.581-.065-.29-.258-.581-.581-.904-.323.323-.484.613-.581.904-.29.064-.581.258-.904.58.323.324.614.485.904.582.064.29.258.58.58.903.323-.323.485-.613.582-.903Z"/>
  <path fill="#B6D7FF" d="M117.495 12.42c.711-.193 1.499-.634 2.267-1.422-.787-.788-1.556-1.23-2.267-1.422-.192-.71-.634-1.498-1.421-2.267-.788.788-1.23 1.556-1.422 2.267-.711.192-1.499.634-2.267 1.422.787.788 1.556 1.23 2.267 1.422.192.71.634 1.498 1.422 2.267.787-.769 1.229-1.556 1.421-2.267Z"/>
  <path fill="#1C7EF1" d="M30.685 110.542c.71-.192 1.498-.634 2.267-1.422-.788-.788-1.556-1.23-2.267-1.422-.192-.711-.634-1.498-1.422-2.267-.788.788-1.23 1.556-1.422 2.267-.71.192-1.498.634-2.267 1.422.788.788 1.556 1.23 2.267 1.422.192.711.634 1.498 1.422 2.267.788-.769 1.23-1.556 1.422-2.267Z"/>
  <path fill="#fff" d="M112.782 59.28c0 1.453-1.453 1.453-1.453 0-1.452 0-1.452-1.452 0-1.452 0-1.452 1.453-1.452 1.453 0 1.452.033 1.452 1.453 0 1.453Zm46.41-33.2c0 1.453-1.452 1.453-1.452 0-1.453 0-1.453-1.451 0-1.451 0-1.453 1.452-1.453 1.452 0 1.452.032 1.452 1.452 0 1.452Z"/>
  <path fill="#D7E13E" d="M67.463 17.72c0 1.452-1.452 1.452-1.452 0-1.452 0-1.452-1.453 0-1.453 0-1.452 1.452-1.452 1.452 0 1.453.033 1.453 1.453 0 1.453Z"/>
  <path fill="#fff" d="M3.524 115.596c0 1.452-1.452 1.452-1.452 0-1.453 0-1.453-1.452 0-1.452 0-1.452 1.452-1.452 1.452 0 1.452.032 1.452 1.452 0 1.452Z"/>
  <path fill="#D7E13E" d="M169.274 71.085c0 1.452-1.452 1.452-1.452 0-1.453 0-1.453-1.452 0-1.452 0-1.453 1.452-1.453 1.452 0 1.452.032 1.452 1.452 0 1.452Z"/>
  <path fill="#1C7EF1" d="M152.148 46.83c2.485 2.485 1.226 3.743-1.259 1.226-2.485 2.485-3.743 1.226-1.226-1.259-2.485-2.484-1.226-3.743 1.259-1.226 2.484-2.453 3.711-1.194 1.226 1.259Z"/>
  <path fill="#D7E13E" d="M20.333 74.127c2.485 2.485 1.227 3.744-1.258 1.226-2.485 2.485-3.744 1.227-1.226-1.258-2.485-2.485-1.227-3.744 1.258-1.227 2.485-2.452 3.711-1.226 1.226 1.26Z"/>
  <path fill="#1C7EF1" d="M103.597 65.81c2.485 2.485 1.226 3.743-1.259 1.226-2.484 2.485-3.743 1.226-1.226-1.259-2.485-2.485-1.226-3.743 1.259-1.226 2.485-2.453 3.711-1.226 1.226 1.259Z"/>
  <rect width="79.734" height="83.756" x="57.375" y="29.868" fill="#B6D7FF" rx="2.459"/>
  <path fill="#1B1B1B" d="M82.252 45.193a22.542 22.542 0 0 1-12.242-4.354l3.2-4.365a17.133 17.133 0 0 0 9.317 3.315 17.072 17.072 0 0 0 10.287-2.776l2.962 4.525a22.47 22.47 0 0 1-13.524 3.655Zm-2.027 8.459a1.32 1.32 0 0 0-1.323 1.318v3.419c0 .72.585 1.318 1.323 1.318a1.32 1.32 0 0 0 1.323-1.318V54.97a1.32 1.32 0 0 0-1.323-1.318Zm5.723 0a1.32 1.32 0 0 0-1.323 1.318v3.419c0 .72.585 1.318 1.323 1.318a1.32 1.32 0 0 0 1.323-1.318V54.97c0-.72-.6-1.318-1.323-1.318Z"/>
  <path stroke="#B6D7FF" stroke-width="14.755" d="M41.873 38.859c-.705 3.997-3.124 24.002-4.47 38.3-.014.144.1.265.245.265H78.9"/>
  <path fill="#B6D7FF" d="M25.757 40.552a8.696 8.696 0 0 1 5.764-11.007l10.151-3.092c4.676-1.424 9.677 1.195 11.169 5.85a8.696 8.696 0 0 1-5.765 11.007l-10.15 3.09c-4.677 1.425-9.677-1.194-11.17-5.849Z"/>
  <path stroke="#1B1B1B" stroke-width="1.23" d="M37.485 36.146a4.305 4.305 0 0 1-7.997 3.193"/>
  <path stroke="#1B1B1B" stroke-width="1.23" d="M45.48 32.953a4.305 4.305 0 0 1-7.996 3.193"/>
  <path fill="#1B1B1B" fill-rule="evenodd" d="M56.068 78.873v-9.1h1.23v9.1h-1.23Z" clip-rule="evenodd"/>
  <path fill="#B6D7FF" fill-rule="evenodd" d="m41.638 121.856 29.048-23.239 8.869 11.085-13.775 11.02h42.701v12.185l-62.26 2.011c-6.934 0-9.996-8.731-4.583-13.062Z" clip-rule="evenodd"/>
  <path fill="#B6D7FF" fill-rule="evenodd" d="m155.686 121.856-29.048-23.239-10.468 11.813 15.374 10.292-44.42-4.313a3.934 3.934 0 0 0-4.314 3.916v9.861l68.294 4.732c6.933 0 9.996-8.731 4.582-13.062Z" clip-rule="evenodd"/>
  <path fill="#B6D7FF" d="M101.252 124.817a5.214 5.214 0 0 1 7.444.31l7.687 8.477c1.969 2.172 1.828 5.553-.314 7.553a5.214 5.214 0 0 1-7.443-.309l-7.688-8.478c-1.969-2.171-1.828-5.553.314-7.553Z"/>
  <path stroke="#1B1B1B" stroke-width="1.23" d="M108.48 141.779s5.205 2.84 8.163-.355c2.315-2.5 1.419-6.624 1.419-6.624l-11.949-13.457a3.933 3.933 0 0 0-2.962-1.322l-22.471.11"/>
  <path fill="#B6D7FF" d="m139.326 113.118 1.047-.441s9.555-12.264 5.748-23.014c-3.38-9.542-17.353-8.926-17.353-8.926l9.126-11.593s14.416 4.211 19.483 14.314c6.412 12.786-3.8 29.66-3.8 29.66 1.356 3.147.831 7.6-2.326 8.951-3.158 1.35-6.842-.09-8.197-3.237l-.481-1.107-1.046.441a2.763 2.763 0 0 1-3.633-1.428c-.615-1.393.034-3.007 1.432-3.62Z"/>
  <path stroke="#1B1B1B" stroke-width="1.23" d="M154.514 119.302c-2.684 6.994-17.489 5.155-16.819-2.602"/>
  <path fill="#1B1B1B" d="M139.334 69.282h-1.188v9.444h1.187l.001-9.444Z"/>
</svg>
