<svg xmlns="http://www.w3.org/2000/svg" width="95" height="119" fill="none" viewBox="0 0 95 119">
  <path fill="#B6D7FF" d="M52.192 64.714 41.023 38.67a2.982 2.982 0 0 1 1.567-3.919L99.2 10.474a2.982 2.982 0 0 1 3.919 1.566l11.169 26.043.044-.02 17.662 41.183a6.565 6.565 0 0 1-3.452 8.634 6.564 6.564 0 0 1-8.633-3.451l-1.033-2.408-.557.239a2.557 2.557 0 0 1-3.377-1.35 2.557 2.557 0 0 1 1.349-3.377l.558-.24-3.873-9.03-6.533 2.802 12.67 29.544 1.249-.536a2.557 2.557 0 0 1 3.377 1.35 2.558 2.558 0 0 1-1.35 3.377l-1.583.679-7.247 3.108-4.838 2.075-1.316.564-10.234 4.389a1.382 1.382 0 0 1-1.816-.726l-14.152-33L64.7 88.97a1.936 1.936 0 0 1-2.543-1.022l-9.964-23.233Z"/>
  <path stroke="#1B1B1B" stroke-dasharray=".97 .97" stroke-width=".97" d="M76.505 26.672c5.846 10.061 9.766 18.28 15.118 15.984 5.812-2.493-4.564-24.527-2.715-27.873"/>
  <path fill="#1B1B1B" d="M63.178 30.991a1.253 1.253 0 0 1 1.657.663l1.3 3.032a1.253 1.253 0 0 1-.662 1.657 1.253 1.253 0 0 1-1.657-.663l-1.3-3.032a1.268 1.268 0 0 1 .662-1.657Zm5.819-2.496a1.253 1.253 0 0 1 1.657.663l1.3 3.032a1.253 1.253 0 0 1-.662 1.657 1.253 1.253 0 0 1-1.657-.663l-1.3-3.032a1.253 1.253 0 0 1 .662-1.657Zm-6.827-4.04c-4.64-1.098-8.837-3.496-12.09-6.958l4.21-3.97a18.293 18.293 0 0 0 9.211 5.289c3.839.888 7.77.575 11.391-.952l2.263 5.338c-4.758 2.015-9.935 2.44-14.984 1.253ZM75.476 52.59a1.65 1.65 0 1 1-1.3-3.033 1.65 1.65 0 0 1 1.3 3.033Zm31.767 52.714.914-.392a2.971 2.971 0 0 1 3.887 1.553 2.973 2.973 0 0 1-1.554 3.887l-.111.048-.297-.691.112-.048a2.19 2.19 0 0 0 1.146-2.867 2.191 2.191 0 0 0-2.868-1.147l-1.605.689-13.483-31.439.692-.296 13.167 30.703Z"/>
  <circle cx="5.701" cy="5.701" r="5.337" stroke="#1B1B1B" stroke-width=".728" transform="scale(-1 1) rotate(23.213 -94.294 -171.575)"/>
  <path fill="#B6D7FF" fill-rule="evenodd" d="m50.82 56.162-2.09 13.405c-.263 1.724-1.222 3.244-2.63 4.27a6.71 6.71 0 0 1-1.19.669 6.33 6.33 0 0 1-3.677.415L5.687 68.546a3.584 3.584 0 0 1-1.152-6.871l8.785-3.768.112-.048a6.538 6.538 0 0 1 3.609-.386l2.71.474.198-1.325a2.563 2.563 0 0 1 2.93-2.154 2.563 2.563 0 0 1 2.154 2.93l-.216 1.465 12.185 2.192 3.595-22.95c.16-1.014.616-2.021 1.246-2.873l8.977 20.93Z" clip-rule="evenodd"/>
</svg>
