<svg xmlns="http://www.w3.org/2000/svg" width="391" height="216" fill="none" viewBox="0 0 391 216">
  <g clip-path="url(#a)">
    <path fill="#B6D7FF" d="m158.732 163.632-13.908-91.616a9.734 9.734 0 0 1 1.787-7.253 9.753 9.753 0 0 1 6.396-3.86L352.163 30.67a9.75 9.75 0 0 1 11.112 8.183l13.909 91.616.157-.024 21.994 144.876c1.786 11.766-6.264 22.698-18.03 24.484-11.766 1.787-22.697-6.264-24.484-18.029l-1.286-8.472-1.961.298a8.372 8.372 0 0 1-6.261-1.527 8.372 8.372 0 0 1-3.315-5.525 8.348 8.348 0 0 1 1.527-6.26 8.362 8.362 0 0 1 5.525-3.317l1.961-.298-4.823-31.767-22.983 3.489 15.779 103.931 4.392-.667a8.364 8.364 0 0 1 9.577 7.052 8.366 8.366 0 0 1-7.052 9.577l-5.569.845-25.493 3.871-17.021 2.584-4.628.702-36.003 5.466a4.513 4.513 0 0 1-3.361-.829 4.514 4.514 0 0 1-1.789-2.963l-17.624-116.089-58.065 8.815c-3.465.526-6.681-1.86-7.207-5.326l-12.409-81.734Z"/>
    <path stroke="#1B1B1B" stroke-dasharray="3.17 3.17" stroke-width="3.173" d="M266.994 63.248c10.219 36.657 15.861 65.893 34.686 63.035 20.448-3.105 5.749-81.384 14.355-90.45"/>
    <path fill="#1B1B1B" d="M221.261 65.95a4.097 4.097 0 0 1 4.698 3.46l1.619 10.666a4.106 4.106 0 0 1-.065 1.612 4.11 4.11 0 0 1-1.876 2.546 4.095 4.095 0 0 1-1.519.54 4.095 4.095 0 0 1-4.157-1.94 4.104 4.104 0 0 1-.541-1.52l-1.619-10.667c-.345-2.275 1.263-4.365 3.46-4.698Zm20.473-3.11a4.095 4.095 0 0 1 4.698 3.46l1.619 10.668a4.106 4.106 0 0 1-.747 3.073 4.095 4.095 0 0 1-2.712 1.625 4.095 4.095 0 0 1-4.698-3.46l-1.62-10.667a4.088 4.088 0 0 1 .748-3.072 4.095 4.095 0 0 1 2.712-1.627Zm-18.281-18.408c-13.787-7.296-25.093-18.339-32.539-31.974l16.594-9.1c5.667 10.375 14.246 18.782 24.797 24.322 11.418 5.97 24.117 8.216 36.836 6.365l2.768 18.76c-16.72 2.457-33.452-.46-48.456-8.373Zm18.953 99.998a5.395 5.395 0 1 1-1.621-10.668 5.395 5.395 0 0 1 1.621 10.668Zm97.244 37.959 2.432-.369 6.573 43.298-2.432.369-6.573-43.298Z"/>
    <path stroke="#1B1B1B" stroke-width="2.38" d="M252.817 89.962c-9.53 1.447-18.429-5.106-19.876-14.636-1.447-9.53 5.106-18.43 14.637-19.876 9.53-1.447 18.429 5.106 19.876 14.636 1.446 9.53-5.107 18.43-14.637 19.876Z"/>
    <path fill="#B6D7FF" fill-rule="evenodd" d="m161.43 135.43-17.651 40.715c-2.254 5.237-6.539 9.258-11.839 11.346-1.443.54-2.909.924-4.321 1.138-4.079.619-8.258.05-11.976-1.713L8.391 137.477c-3.973-1.323-7.156-4.852-7.835-9.323a11.718 11.718 0 0 1 9.846-13.371l30.905-4.692.392-.06c3.856-.505 7.944-.002 11.74 1.749l8.19 3.732 1.716-4.032c1.836-4.291 6.756-6.242 11.047-4.406 4.29 1.836 6.242 6.756 4.406 11.047l-1.891 4.46 36.761 16.969 30.268-69.675c1.344-3.08 3.617-5.893 6.316-8.072l11.178 73.627Z" clip-rule="evenodd"/>
  </g>
  <defs>
    <clipPath id="a">
      <path fill="#fff" d="M0 0h391v216H0z"/>
    </clipPath>
  </defs>
</svg>
