<svg xmlns="http://www.w3.org/2000/svg" width="1440" height="140" fill="none" viewBox="0 0 1440 140">
  <g clip-path="url(#a)">
    <path fill="#D7E13E" d="M.5-38h1439v178H.5z"/>
    <path fill="#2B3238" d="m1176.19-31.69 56.29 32.5-111.358 192.88-56.292-32.5zm151.65 0 56.29 32.5-111.358 192.88-56.292-32.5zm151.66 0 56.29 32.5-111.358 192.88-56.292-32.5zM4.859-34.976l56.292 32.5-111.359 192.879-56.291-32.5zm151.65 0 56.292 32.5-111.359 192.879-56.291-32.5zm151.65 0 56.292 32.5-111.359 192.879-56.291-32.5z"/>
  </g>
  <defs>
    <clipPath id="a">
      <path fill="#fff" d="M.5 0h1439v140H.5z"/>
    </clipPath>
  </defs>
</svg>
