<svg xmlns="http://www.w3.org/2000/svg" width="288" height="198" fill="none" viewBox="0 0 288 198">
  <g clip-path="url(#a)">
    <mask id="b" width="304" height="352" x="0" y="-76" maskUnits="userSpaceOnUse" style="mask-type:luminance">
      <path fill="#fff" d="M0-76h304v352H0V-76Z"/>
    </mask>
    <g mask="url(#b)">
      <path fill="#2B3238" fill-rule="evenodd" d="M8 82.5a8.001 8.001 0 0 0-8 8V190a8 8 0 0 0 8 8h272a8 8 0 0 0 8-8V20a8 8 0 0 0-8-8H121a8 8 0 0 0-8 8v54.5a8.001 8.001 0 0 1-8 8H8Z" clip-rule="evenodd"/>
      <path fill="#1C7EF1" d="M90.484 145.693c1.055-1.039 2-2.745 2.57-4.971-2.19-.698-4.136-.803-5.578-.46-1.06-1.141-2.763-2.2-4.953-2.899-.57 2.227-.576 4.232-.172 5.737-1.056 1.039-2 2.745-2.57 4.971 2.19.698 4.136.803 5.577.46 1.06 1.141 2.764 2.2 4.953 2.898.57-2.226.51-4.195.173-5.736Z"/>
      <path fill="#B6D7FF" d="M153.006 174.681c.519-.459.892-1.181 1.185-2.202-1.021-.293-1.794-.294-2.494-.164-.459-.518-1.181-.892-2.202-1.185-.293 1.021-.294 1.794-.164 2.495-.519.459-.892 1.18-1.185 2.201 1.021.294 1.794.295 2.495.165.459.518 1.18.891 2.201 1.185.293-1.021.324-1.897.164-2.495Z"/>
      <path fill="#1C7EF1" d="M148.03 48.48c.519-.458.892-1.18 1.185-2.2-1.021-.294-1.794-.295-2.495-.165-.458-.518-1.18-.891-2.201-1.185-.293 1.02-.295 1.795-.164 2.495-.519.459-.892 1.18-1.185 2.202 1.021.293 1.794.294 2.495.164.458.518 1.18.892 2.201 1.185.293-1.021.294-1.794.164-2.495ZM52.296 58.55c.512-.47.867-1.223 1.13-2.3-1.05-.346-1.84-.375-2.55-.261-.485-.567-1.233-.99-2.284-1.337-.264 1.075-.238 1.898-.08 2.647-.513.47-.868 1.224-1.131 2.3 1.05.347 1.84.376 2.549.262.486.567 1.235.989 2.286 1.337.263-1.075.237-1.898.08-2.647Z"/>
      <path fill="#fff" d="M177.393 98.59c1.638 2.958-1.319 4.595-2.956 1.638-2.957 1.637-4.595-1.32-1.638-2.957-1.637-2.957 1.32-4.594 2.957-1.637 2.994-1.571 4.594 1.32 1.637 2.957ZM24.234 94.616c1.637 2.957-1.32 4.594-2.957 1.637-2.957 1.637-4.594-1.32-1.637-2.957-1.637-2.957 1.32-4.594 2.957-1.637 2.993-1.571 4.594 1.32 1.637 2.957Zm215.703-48.908c1.638 2.957-1.319 4.594-2.957 1.637-2.956 1.637-4.594-1.32-1.637-2.957-1.637-2.957 1.32-4.594 2.957-1.637 2.994-1.572 4.594 1.32 1.637 2.957Zm36.102 95.196c1.637 2.956-1.32 4.594-2.957 1.637-2.957 1.637-4.594-1.32-1.637-2.957-1.637-2.957 1.32-4.594 2.957-1.637 2.993-1.572 4.594 1.319 1.637 2.957Z"/>
      <path fill="#D7E13E" d="M260.014 109.105c1.638 2.957-1.319 4.594-2.956 1.637-2.957 1.637-4.595-1.32-1.638-2.957-1.637-2.957 1.32-4.594 2.957-1.637 2.994-1.571 4.594 1.32 1.637 2.957Zm8.455-82.796c1.637 2.957-1.32 4.594-2.957 1.637-2.957 1.637-4.594-1.32-1.637-2.957-1.637-2.957 1.32-4.594 2.957-1.637 2.993-1.571 4.594 1.32 1.637 2.957Z"/>
      <path fill="#B6D7FF" d="M203.261 6.5c5.841 1.678 4.991 4.637-.877 2.91-1.678 5.84-4.636 4.99-2.909-.877-5.841-1.678-4.992-4.637.877-2.91 1.705-5.792 4.614-4.915 2.909.877Z"/>
      <path fill="#D7E13E" d="M96.35 24.18c5.338 1.534 4.561 4.238-.801 2.66-1.534 5.338-4.238 4.56-2.66-.802-5.337-1.533-4.56-4.237.802-2.66 1.558-5.292 4.192-4.536 2.659.803Z"/>
      <path fill="#1C7EF1" d="M225.825 121.393c7.861 2.258 6.717 6.24-1.18 3.916-2.259 7.861-6.24 6.717-3.916-1.18-7.861-2.259-6.717-6.24 1.18-3.916 2.295-7.795 6.174-6.681 3.916 1.18Z"/>
      <path fill="#B6D7FF" d="M44.298 186.527v-82.083c0-6.143 4.98-11.123 11.123-11.123h79.144c6.143 0 11.123 4.98 11.123 11.123v82.083c0 6.143-4.98 11.123-11.123 11.123H55.421c-6.143 0-11.123-4.98-11.123-11.123Z"/>
      <path fill="#1B1B1B" d="M84.34 116.643h70.053c2.537.076 4.537 2.12 4.537 4.619 0 2.574-2.077 4.619-4.691 4.619h-12.304c-2.614 0-4.69-2.045-4.69-4.619 0-.909.307-1.817.769-2.499h-5.383c.461.757.769 1.59.769 2.499 0 2.574-2.076 4.619-4.691 4.619h-12.303c-2.615 0-4.691-2.045-4.691-4.619 0-.909.308-1.817.769-2.499h-27.99c-5.153 0-9.382 4.165-9.382 9.238v.303h-2.153v-.303c-.154-6.209 5-11.358 11.38-11.358Z"/>
      <path fill="#B6D7FF" d="M218.916 175.399H135.88l-.946 22.134 90.387.309a2.429 2.429 0 0 0 2.241-1.5c.121-.295.184-.61.183-.929v-22.356c0-2.429-1.991-4.424-4.415-4.424-2.423 0-4.414 1.995-4.414 4.424v2.342Z"/>
      <path fill="#1B1B1B" d="M132.371 110.798c8.063-1.892 15.398-5.962 21.069-11.948l-7.316-6.996a31.533 31.533 0 0 1-16.095 9.103 31.634 31.634 0 0 1-19.823-1.802l-4.016 9.317c8.42 3.579 17.471 4.358 26.181 2.326Z"/>
      <path stroke="#B6D7FF" stroke-width="22.245" d="m137.073 176.164 44.429-39.69a1.113 1.113 0 0 1 1.349-.102c.136.089.251.206.336.344l28.445 45.764"/>
      <path fill="#B6D7FF" fill-rule="evenodd" d="m33.207 146.794 35.655-22.176-11.726-18.866-45.752 28.455c-6.441 4.007-7.713 12.856-2.66 18.516l37.952 40.141 18.29-10.495-31.76-35.575Z" clip-rule="evenodd"/>
      <path stroke="#1B1B1B" stroke-width="2.225" d="m190.747 172.519 18.126 26.005c.208.298.549.476.913.476h9.376"/>
      <path fill="#B6D7FF" d="M232.759 188.068h-15.54a4.86 4.86 0 1 0 0 9.718h15.54a4.862 4.862 0 0 0 4.761-4.859 4.862 4.862 0 0 0-4.761-4.859Z"/>
      <path stroke="#1B1B1B" stroke-width="2.225" d="m217.821 169.118 10.604 17.443c.202.332.562.535.95.535h3.989M43.327 107.411v35.469"/>
      <path fill="#F1F5F9" d="M243 25.937h-54a8 8 0 0 0-8 8v36a8.001 8.001 0 0 0 8 8h54a8 8 0 0 0 8-8v-36a8 8 0 0 0-8-8Z"/>
      <path fill="#1B1B1B" d="M198.585 58.937V45.846h4.577c.912 0 1.664.158 2.256.473.593.311 1.034.731 1.323 1.259.29.524.435 1.106.435 1.745 0 .563-.1 1.027-.3 1.394-.182.351-.451.65-.78.869-.32.213-.667.371-1.042.473v.128c.401.026.803.166 1.208.422.405.256.744.622 1.016 1.099.273.478.41 1.061.41 1.752 0 .656-.15 1.246-.448 1.77-.298.524-.769.94-1.413 1.247-.643.307-1.48.46-2.512.46h-4.73Zm1.585-1.406h3.145c1.036 0 1.771-.201 2.206-.601.439-.405.658-.895.658-1.47 0-.443-.113-.853-.339-1.228a2.446 2.446 0 0 0-.965-.907c-.418-.23-.912-.345-1.483-.345h-3.222v4.551Zm0-5.932h2.941a2.91 2.91 0 0 0 1.291-.281c.388-.188.695-.452.92-.793.231-.341.346-.741.346-1.202 0-.575-.201-1.063-.601-1.463-.401-.405-1.036-.608-1.905-.608h-2.992v4.347Zm13.906 7.543c-.92 0-1.713-.218-2.377-.652-.665-.435-1.177-1.034-1.535-1.797-.358-.762-.537-1.634-.537-2.614 0-.997.184-1.877.55-2.64.371-.767.887-1.366 1.547-1.796.665-.435 1.44-.652 2.327-.652.69 0 1.312.128 1.866.384.535.24 1.003.609 1.362 1.073.353.461.573.998.658 1.611h-1.508c-.115-.447-.371-.844-.767-1.189-.392-.349-.921-.524-1.586-.524-.588 0-1.103.154-1.547.46-.438.303-.781.731-1.029 1.285-.243.55-.364 1.195-.364 1.937 0 .758.119 1.419.358 1.981.243.563.584 1 1.023 1.311.443.311.963.466 1.559.466.392 0 .748-.068 1.068-.204.319-.136.59-.332.812-.588.221-.256.379-.563.473-.921h1.508a3.48 3.48 0 0 1-1.956 2.666c-.545.268-1.18.403-1.905.403Zm10.183 0c-.946 0-1.762-.209-2.448-.627a4.215 4.215 0 0 1-1.579-1.764c-.367-.759-.55-1.641-.55-2.646 0-1.006.183-1.892.55-2.659.371-.772.886-1.373 1.547-1.803.665-.435 1.44-.652 2.326-.652.512 0 1.017.085 1.515.256.499.17.953.447 1.362.831.409.379.735.882.978 1.508.243.627.364 1.398.364 2.314v.639h-7.568v-1.304h6.034c0-.554-.111-1.048-.332-1.483a2.527 2.527 0 0 0-.933-1.029c-.401-.251-.874-.377-1.42-.377-.6 0-1.12.149-1.559.448-.43.288-.776.685-1.004 1.15-.234.473-.351.98-.351 1.521v.87c0 .741.128 1.37.383 1.885.26.512.62.902 1.08 1.17.461.264.996.396 1.605.396.396 0 .754-.055 1.074-.166.313-.108.598-.282.837-.511.234-.23.416-.516.543-.857l1.458.409c-.151.49-.416.937-.774 1.304a3.76 3.76 0 0 1-1.342.87c-.533.204-1.131.307-1.796.307Zm-2.071-11.66a1 1 0 0 1-.716-.306 1.013 1.013 0 0 1-.307-.716c0-.294.102-.537.307-.729.209-.196.447-.294.716-.294.294 0 .537.098.729.294a.982.982 0 0 1 .294.729c0 .268-.098.507-.294.716a.962.962 0 0 1-.729.306Zm3.682 0a1 1 0 0 1-.716-.306 1.013 1.013 0 0 1-.307-.716c0-.294.102-.537.307-.729.209-.196.447-.294.716-.294.294 0 .537.098.728.294a.982.982 0 0 1 .294.729c0 .268-.098.507-.294.716a.967.967 0 0 1-.728.306Zm6.743-1.636-.128 9.409h-1.483l-.127-9.409h1.738Zm-.869 13.193c-.315 0-.586-.113-.812-.338a1.106 1.106 0 0 1-.339-.812c0-.316.113-.586.339-.812.226-.226.497-.339.812-.339.315 0 .586.113.812.339.226.226.339.496.339.812 0 .209-.054.4-.16.575a1.196 1.196 0 0 1-.416.422c-.17.102-.362.153-.575.153Z"/>
      <path fill="#F1F5F9" d="M191.557 91.936a.625.625 0 0 0 .494.848.616.616 0 0 0 .366-.064l28.975-14.783h-24.235l-5.6 13.999Z"/>
    </g>
  </g>
  <defs>
    <clipPath id="a">
      <path fill="#fff" d="M0 0h288v198H0z"/>
    </clipPath>
  </defs>
</svg>
