<svg xmlns="http://www.w3.org/2000/svg" width="966" height="428" fill="none" viewBox="0 0 966 428">
  <g clip-path="url(#a)">
    <path fill="#2B3238" fill-rule="evenodd" d="M827 24c0-13.255-10.745-24-24-24H24C10.745 0 0 10.745 0 24v380c0 13.255 10.745 24 24 24h918c13.255 0 24-10.745 24-24V207c0-13.255-10.745-24-24-24h-91c-13.255 0-24-10.745-24-24V24Z" clip-rule="evenodd"/>
    <path fill="#1C7EF1" d="M202.596 326.33c2.069-2.038 3.92-5.381 5.038-9.744-4.291-1.369-8.107-1.575-10.932-.902-2.08-2.237-5.417-4.312-9.708-5.681-1.118 4.364-1.13 8.293-.338 11.243-2.069 2.037-3.921 5.38-5.038 9.744 4.291 1.369 8.107 1.574 10.932.902 2.08 2.236 5.416 4.312 9.708 5.681 1.118-4.364 1.001-8.222.338-11.243Z"/>
    <path fill="#B6D7FF" d="M325.145 383.147c1.016-.9 1.747-2.314 2.322-4.315-2.001-.575-3.516-.577-4.89-.322-.899-1.017-2.313-1.748-4.315-2.323-.574 2.001-.577 3.517-.321 4.89-1.017.899-1.748 2.314-2.323 4.315 2.001.575 3.517.577 4.89.322.899 1.016 2.314 1.748 4.315 2.322.575-2.001.635-3.716.322-4.889Z"/>
    <path fill="#1C7EF1" d="M315.388 120.109c1.017-.899 1.748-2.314 2.323-4.315-2.001-.575-3.517-.577-4.89-.322-.9-1.016-2.314-1.747-4.315-2.322-.575 2.001-.577 3.516-.322 4.89-1.016.899-1.748 2.313-2.322 4.315 2.001.574 3.516.577 4.889.321.9 1.017 2.314 1.748 4.315 2.323.575-2.001.577-3.517.322-4.89Zm-187.644-11.623c1.005-.921 1.701-2.4 2.217-4.507-2.06-.682-3.606-.737-4.996-.514-.953-1.113-2.421-1.94-4.481-2.621-.516 2.107-.465 3.719-.156 5.188-1.005.921-1.701 2.399-2.217 4.507 2.061.682 3.606.737 4.997.514.952 1.112 2.42 1.94 4.48 2.621.516-2.108.465-3.719.156-5.188Z"/>
    <path fill="#B6D7FF" d="M210.689 112.406c2.412-2.338 4.58-5.842 5.906-10.684-4.884-1.403-8.928-1.469-12.189-.665-2.338-2.412-5.842-4.58-10.684-5.906-1.403 4.884-1.469 8.928-.665 12.19-2.412 2.337-4.58 5.841-5.906 10.683 4.884 1.403 8.928 1.469 12.189.665 2.338 2.412 5.842 4.58 10.684 5.906 1.446-4.808 1.469-8.928.665-12.189Zm536.777 95.198c1.448-1.403 2.748-3.505 3.544-6.41-2.931-.842-5.357-.881-7.314-.399-1.402-1.448-3.505-2.748-6.41-3.544-.842 2.931-.881 5.357-.399 7.314-1.447 1.402-2.748 3.505-3.543 6.41 2.93.842 5.356.881 7.313.399 1.403 1.447 3.505 2.748 6.411 3.544.867-2.885.881-5.357.398-7.314Z"/>
    <path fill="#fff" d="M372.943 234.007c3.209 5.796-2.587 9.005-5.796 3.209-5.796 3.209-9.005-2.587-3.209-5.796-3.209-5.795 2.587-9.004 5.796-3.209 5.867-3.08 9.004 2.587 3.209 5.796Zm-268.84 39.248c3.208 5.796-2.587 9.005-5.796 3.209-5.796 3.209-9.005-2.587-3.21-5.796-3.208-5.796 2.588-9.005 5.797-3.209 5.867-3.08 9.004 2.587 3.209 5.796Z"/>
    <path fill="#1C7EF1" d="M760.07 321.994c5.129 9.264-4.135 14.394-9.265 5.129-9.264 5.13-14.393-4.135-5.129-9.264-5.129-9.264 4.135-14.394 9.264-5.129 9.379-4.924 14.394 4.135 5.13 9.264Z"/>
    <path fill="#fff" d="M495.533 130.352c3.209 5.795-2.587 9.004-5.796 3.209-5.795 3.209-9.004-2.587-3.209-5.796-3.208-5.796 2.587-9.005 5.796-3.209 5.867-3.08 9.005 2.587 3.209 5.796Zm150.903 189.081c3.209 5.796-2.587 9.005-5.796 3.209-5.796 3.209-9.005-2.587-3.209-5.796-3.209-5.796 2.587-9.004 5.796-3.209 5.867-3.08 9.005 2.587 3.209 5.796Z"/>
    <path fill="#D7E13E" d="M638.565 222.615c3.209 5.796-2.587 9.005-5.796 3.209-5.796 3.209-9.005-2.587-3.209-5.796-3.209-5.795 2.587-9.004 5.796-3.209 5.867-3.08 9.004 2.587 3.209 5.796ZM614.494 37.131c3.209 5.795-2.587 9.004-5.795 3.208-5.796 3.21-9.005-2.586-3.209-5.795-3.209-5.796 2.586-9.005 5.795-3.209 5.868-3.08 9.005 2.587 3.209 5.796Z"/>
    <path fill="#B6D7FF" d="M423.645 41.744c11.449 3.29 9.783 9.088-1.719 5.703-3.289 11.45-9.088 9.783-5.703-1.719-11.449-3.289-9.783-9.087 1.719-5.703 3.342-11.353 9.045-9.634 5.703 1.72Z"/>
    <path fill="#1C7EF1" d="M668.623 120.153c11.449 3.289 9.783 9.088-1.719 5.703-3.289 11.45-9.088 9.784-5.704-1.718-11.449-3.29-9.783-9.089 1.719-5.704 3.342-11.353 8.993-9.73 5.704 1.719Z"/>
    <path fill="#D7E13E" d="M260.744 53.306c10.463 3.006 8.941 8.305-1.571 5.212-3.005 10.463-8.305 8.94-5.212-1.57-10.462-3.007-8.94-8.306 1.571-5.213 3.054-10.375 8.218-8.892 5.212 1.571Z"/>
    <path fill="#1C7EF1" d="M350.709 280.362c15.408 4.427 13.166 12.231-2.313 7.676-4.426 15.408-12.231 13.166-7.675-2.314-15.408-4.426-13.166-12.23 2.313-7.675 4.498-15.279 12.102-13.095 7.675 2.313Z"/>
    <path fill="#B6D7FF" d="M121.607 400.894v-212.7c0-13.446 10.9-24.347 24.347-24.347h205.417c13.446 0 24.347 10.901 24.347 24.347v212.7c0 13.447-10.901 24.347-24.347 24.347H145.954c-13.447 0-24.347-10.9-24.347-24.347Z"/>
    <path fill="#1B1B1B" d="M221.964 222.28h175.572c6.36.19 11.37 5.312 11.37 11.573 0 6.45-5.203 11.573-11.756 11.573h-30.836c-6.552 0-11.756-5.123-11.756-11.573 0-2.277.771-4.553 1.928-6.261h-13.491c1.156 1.897 1.927 3.984 1.927 6.261 0 6.45-5.204 11.573-11.756 11.573H302.33c-6.553 0-11.756-5.123-11.756-11.573 0-2.277.771-4.553 1.927-6.261h-70.152c-12.912 0-23.512 10.435-23.512 23.146v.759h-5.396v-.759c-.386-15.557 12.527-28.458 28.523-28.458Z"/>
    <path fill="#B6D7FF" d="M559.248 369.491H351.137l-.217 56.23h224.381c3.472 0 6.075-2.825 6.075-6.085v-56.013c0-6.085-4.99-11.084-11.064-11.084s-11.064 4.999-11.064 11.084v5.868Z"/>
    <path fill="#1B1B1B" d="M342.34 207.635c20.209-4.74 38.592-14.936 52.804-29.934l-18.336-17.528c-10.862 11.431-24.818 19.379-40.338 22.808-16.714 3.864-33.93 2.305-49.683-4.517l-10.063 23.345c21.103 8.967 43.786 10.918 65.616 5.826Z"/>
    <path stroke="#B6D7FF" stroke-width="48.695" d="m354.125 371.408 111.664-99.721a2.42 2.42 0 0 1 1.968-.594 2.425 2.425 0 0 1 1.721 1.124l71.513 115.017m-388.34 18.26L52.929 293.83a2.435 2.435 0 0 1 .53-3.689l115.017-71.513"/>
    <path stroke="#1B1B1B" stroke-width="4.869" d="m492.905 362.277 45.534 65.305a2.438 2.438 0 0 0 1.997 1.042h23.685"/>
    <path fill="#B6D7FF" d="M593.946 401.233h-38.955c-6.724 0-12.174 5.45-12.174 12.173 0 6.724 5.45 12.174 12.174 12.174h38.955c6.723 0 12.174-5.45 12.174-12.174 0-6.723-5.451-12.173-12.174-12.173Z"/>
    <path stroke="#1B1B1B" stroke-width="4.869" d="m552.121 353.756 26.68 43.873a2.43 2.43 0 0 0 2.08 1.17h10.196M119.173 199.15v88.868"/>
    <path fill="#F1F5F9" d="M582 77H450c-8.837 0-16 7.163-16 16v76c0 8.837 7.163 16 16 16h132c8.837 0 16-7.163 16-16V93c0-8.837-7.163-16-16-16Z"/>
    <path fill="#1B1B1B" d="M470.227 148v-34.909h12.205c2.432 0 4.437.42 6.017 1.261 1.579.83 2.756 1.949 3.528 3.358.773 1.398 1.159 2.949 1.159 4.654 0 1.5-.267 2.738-.801 3.716-.522.977-1.216 1.75-2.079 2.318a9.486 9.486 0 0 1-2.779 1.261V130c1.068.068 2.142.443 3.222 1.125 1.079.682 1.983 1.659 2.71 2.932.727 1.273 1.091 2.829 1.091 4.67 0 1.75-.398 3.324-1.193 4.722-.796 1.398-2.051 2.506-3.767 3.324-1.716.818-3.949 1.227-6.699 1.227h-12.614Zm4.228-3.75h8.386c2.761 0 4.722-.534 5.881-1.602 1.17-1.08 1.755-2.387 1.755-3.921a6.228 6.228 0 0 0-.903-3.272c-.602-1.012-1.46-1.819-2.574-2.421-1.114-.614-2.432-.92-3.955-.92h-8.59v12.136Zm0-15.818h7.84c1.273 0 2.421-.25 3.444-.75 1.034-.5 1.852-1.205 2.454-2.114.614-.909.921-1.977.921-3.204 0-1.534-.534-2.836-1.603-3.904-1.068-1.079-2.761-1.619-5.079-1.619h-7.977v11.591Zm37.082 20.113c-2.455 0-4.568-.579-6.341-1.738-1.773-1.159-3.136-2.756-4.091-4.79-.954-2.034-1.432-4.358-1.432-6.972 0-2.659.489-5.005 1.466-7.039.989-2.046 2.364-3.642 4.125-4.79 1.773-1.159 3.841-1.739 6.205-1.739 1.841 0 3.5.341 4.977 1.023 1.477.682 2.688 1.636 3.631 2.864.943 1.227 1.528 2.659 1.755 4.295h-4.022c-.307-1.193-.989-2.25-2.046-3.17-1.045-.932-2.454-1.398-4.227-1.398-1.568 0-2.943.409-4.125 1.227-1.171.807-2.085 1.949-2.744 3.426-.648 1.466-.972 3.188-.972 5.165 0 2.023.318 3.784.955 5.284.647 1.5 1.556 2.665 2.727 3.495 1.182.829 2.568 1.244 4.159 1.244 1.045 0 1.994-.182 2.847-.546a5.868 5.868 0 0 0 2.164-1.568c.591-.682 1.012-1.5 1.262-2.454h4.022a9.306 9.306 0 0 1-1.687 4.176c-.886 1.227-2.063 2.204-3.529 2.932-1.454.716-3.147 1.073-5.079 1.073Zm27.153 0c-2.522 0-4.699-.556-6.528-1.67-1.818-1.125-3.222-2.693-4.21-4.705-.978-2.022-1.466-4.375-1.466-7.056 0-2.682.488-5.046 1.466-7.091.988-2.057 2.363-3.659 4.125-4.807 1.772-1.159 3.841-1.739 6.204-1.739 1.364 0 2.71.228 4.04.682 1.33.455 2.54 1.193 3.631 2.216 1.091 1.011 1.96 2.352 2.608 4.023.647 1.67.971 3.727.971 6.17v1.705h-20.182v-3.478h16.091c0-1.477-.295-2.795-.886-3.954a6.678 6.678 0 0 0-2.489-2.744c-1.068-.671-2.329-1.006-3.784-1.006-1.602 0-2.988.398-4.159 1.193a7.86 7.86 0 0 0-2.676 3.068 9.018 9.018 0 0 0-.937 4.057v2.318c0 1.978.34 3.654 1.022 5.029.693 1.363 1.654 2.403 2.881 3.119 1.227.705 2.653 1.057 4.278 1.057 1.057 0 2.012-.148 2.864-.443a6.139 6.139 0 0 0 2.233-1.364c.625-.614 1.108-1.375 1.449-2.284l3.886 1.091a8.622 8.622 0 0 1-2.062 3.477c-.966.989-2.159 1.761-3.58 2.318-1.42.546-3.017.818-4.79.818Zm-5.522-31.09c-.716 0-1.353-.273-1.909-.819-.546-.556-.819-1.193-.819-1.909 0-.784.273-1.432.819-1.943.556-.523 1.193-.784 1.909-.784.784 0 1.431.261 1.943.784.523.511.784 1.159.784 1.943 0 .716-.261 1.353-.784 1.909-.512.546-1.159.819-1.943.819Zm9.818 0c-.716 0-1.352-.273-1.909-.819-.546-.556-.818-1.193-.818-1.909 0-.784.272-1.432.818-1.943.557-.523 1.193-.784 1.909-.784.784 0 1.432.261 1.943.784.523.511.784 1.159.784 1.943 0 .716-.261 1.353-.784 1.909-.511.546-1.159.819-1.943.819Zm17.983-4.364-.341 25.091h-3.955l-.341-25.091h4.637Zm-2.318 35.182a2.948 2.948 0 0 1-2.165-.904c-.602-.602-.904-1.324-.904-2.164 0-.841.302-1.563.904-2.165a2.948 2.948 0 0 1 2.165-.904c.84 0 1.562.301 2.164.904a2.952 2.952 0 0 1 .904 2.165c0 .556-.142 1.068-.426 1.534-.269.462-.65.849-1.108 1.125a2.934 2.934 0 0 1-1.534.409Z"/>
    <path fill="#F1F5F9" d="M450.989 207.528c-.343.857.56 1.682 1.383 1.262L499 185h-39l-9.011 22.528Z"/>
  </g>
  <defs>
    <clipPath id="a">
      <path fill="#fff" d="M0 0h966v428H0z"/>
    </clipPath>
  </defs>
</svg>
