<svg xmlns="http://www.w3.org/2000/svg" width="489" height="307" fill="none" viewBox="0 0 489 307">
  <path fill="#D7E13E" d="M488.405 65.254c0-4.586-3.726-8.312-8.311-8.312H270.291c-4.586 0-8.312 3.726-8.312 8.312v68.357h-20.708a11.376 11.376 0 0 1-11.393-11.393v-5.087c0-15.764-13.041-28.518-28.948-28.088-15.334.43-27.228 13.829-27.228 29.234v3.87a11.377 11.377 0 0 1-11.393 11.393 11.376 11.376 0 0 1-11.393-11.393V44.569h.071c12.325 0 22.285-9.96 22.285-22.285C173.272 9.96 163.312 0 150.987 0h-22.212C116.45.072 106.49 10.031 106.49 22.284V160.84c0 12.253 9.96 22.213 22.285 22.213h133.204v116.264c0 4.586 3.726 8.312 8.312 8.312h209.803c4.585 0 8.311-3.726 8.311-8.312V65.254Z"/>
  <path fill="#1B1B1B" d="M124.75 19.592v-.732h3.212v.732c0 9.612 6.01 18.283 14.817 21.731 5.699 2.194 12.019 1.985 17.614-.522 5.595-2.508 9.843-7.105 12.019-12.956l.207-.522 3.005 1.15-.207.522c-2.487 6.582-7.357 11.806-13.781 14.731-6.424 2.925-13.469 3.134-20.101.627-9.947-3.866-16.785-13.791-16.785-24.761Zm217.109 93.887a3.701 3.701 0 0 0-3.726 3.726v9.745a3.7 3.7 0 0 0 3.726 3.726 3.7 3.7 0 0 0 3.726-3.726v-9.745c0-2.077-1.72-3.726-3.726-3.726Zm18.701 0a3.701 3.701 0 0 0-3.726 3.726v9.745a3.7 3.7 0 0 0 3.726 3.726 3.7 3.7 0 0 0 3.726-3.726v-9.745c0-2.077-1.72-3.726-3.726-3.726Zm-25.222-19.704c-12.898-5.66-23.717-14.975-31.313-26.727l14.403-9.315c5.804 8.957 14.044 16.05 23.861 20.35 10.676 4.73 22.284 5.876 33.605 3.44l3.655 16.767c-14.976 3.224-30.238 1.647-44.211-4.515Z"/>
  <path fill="#D7E13E" d="M343.236 235.52H20.506v-5.159c0-5.374-4.37-9.674-9.672-9.674-5.375 0-9.674 4.371-9.674 9.674v20.155c1.914-3.379 5.547-5.681 9.674-5.681 6.09 0 11.106 4.944 11.106 11.106v3.726h321.296V235.52Z"/>
  <path fill="#D7E13E" d="M343.236 262.533H19.146v-6.592c0-4.586-3.727-8.24-8.313-8.24-4.514 0-8.24 3.654-8.24 8.24v.358H1.16v46.532a3.853 3.853 0 0 0 3.87 3.869h338.206v-44.167Z"/>
  <path fill="#1B1B1B" d="M.088 255.875c0-6.074 4.98-11.055 11.055-11.055 6.074 0 11.055 4.981 11.055 11.055v3.523H263.77v3.037H19.1v-6.56a8.01 8.01 0 0 0-8.018-8.018 8.01 8.01 0 0 0-8.018 8.018H.088Z"/>
</svg>
