<svg xmlns="http://www.w3.org/2000/svg" width="488" height="251" fill="none" viewBox="0 0 488 251">
  <g clip-path="url(#a)">
    <path fill="#D7E13E" d="M487.422 8.295c0-4.577-3.726-8.295-8.313-8.295H269.266c-4.587 0-8.313 3.718-8.313 8.295V241.88s1.382 7.795 5.969 7.795c88.423 0 84.444.5 212.187.5 4.587 0 8.313-3.719 8.313-8.295V8.295Z"/>
    <path fill="#D7E13E" d="M342.576 178.695H19.846v-5.159c0-5.374-4.37-9.674-9.673-9.674-5.374 0-9.673 4.371-9.673 9.674v20.154c1.914-3.378 5.547-5.68 9.673-5.68 6.09 0 11.107 4.944 11.107 11.106v3.726h321.296v-24.147Z"/>
    <path fill="#D7E13E" d="M342.576 205.708H18.486v-6.592c0-4.586-3.727-8.24-8.313-8.24-4.514 0-8.24 3.654-8.24 8.24v.358H.5v46.531c0 2.15 1.72 3.87 3.87 3.87h338.206v-44.167Z"/>
    <path fill="#1B1B1B" d="M341.195 56.654a3.702 3.702 0 0 0-3.726 3.726v9.745a3.71 3.71 0 0 0 1.084 2.643 3.686 3.686 0 0 0 2.642 1.083 3.702 3.702 0 0 0 3.726-3.726V60.38c0-2.078-1.72-3.726-3.726-3.726Zm18.701 0a3.702 3.702 0 0 0-3.726 3.726v9.745a3.71 3.71 0 0 0 1.084 2.643 3.686 3.686 0 0 0 2.642 1.083 3.702 3.702 0 0 0 3.726-3.726V60.38c0-2.078-1.72-3.726-3.726-3.726ZM334.672 36.95c-12.898-5.66-23.717-14.976-31.313-26.727L317.762.908c5.804 8.957 14.044 16.05 23.861 20.35 10.676 4.73 22.284 5.876 33.605 3.44l3.655 16.766c-14.976 3.225-30.238 1.648-44.211-4.514Z"/>
  </g>
  <defs>
    <clipPath id="a">
      <path fill="#fff" d="M.5 0h487v251H.5z"/>
    </clipPath>
  </defs>
</svg>
