<svg xmlns="http://www.w3.org/2000/svg" width="368" height="24" fill="none" viewBox="0 0 368 24">
  <g clip-path="url(#a)">
    <path fill="#fff" d="M359.143 0c-4.835 0-8.761 3.642-8.761 8.126 0 4.483-3.926 8.125-8.761 8.125-4.836 0-8.761-3.642-8.761-8.125 0-4.484-3.91-8.126-8.746-8.126-4.835 0-8.761 3.642-8.761 8.126 0 4.483-3.925 8.125-8.761 8.125-4.835 0-8.761-3.642-8.761-8.125 0-4.484-3.91-8.126-8.745-8.126-4.836 0-8.761 3.642-8.761 8.126 0 4.483-3.926 8.125-8.761 8.125-4.836 0-8.762-3.642-8.762-8.125 0-4.484-3.909-8.126-8.745-8.126-4.835 0-8.761 3.642-8.761 8.126 0 4.483-3.926 8.125-8.761 8.125h-.096c-4.835 0-8.761-3.642-8.761-8.125 0-4.484-3.91-8.126-8.745-8.126-4.836 0-8.761 3.642-8.761 8.126 0 4.483-3.926 8.125-8.761 8.125-4.836 0-8.762-3.642-8.762-8.125 0-4.484-3.909-8.126-8.761-8.126-4.851 0-8.761 3.642-8.761 8.126 0 4.483-3.926 8.125-8.761 8.125-4.835 0-8.761-3.642-8.761-8.125 0-4.484-3.91-8.126-8.745-8.126-4.836 0-8.761 3.642-8.761 8.126 0 4.483-3.926 8.125-8.762 8.125-4.835 0-8.761-3.642-8.761-8.125 0-4.484-3.91-8.126-8.745-8.126-4.835 0-8.761 3.642-8.761 8.126 0 4.483-3.926 8.125-8.761 8.125-4.836 0-8.761-3.642-8.761-8.125 0-4.484-3.91-8.126-8.746-8.126-4.835 0-8.76 3.642-8.76 8.126 0 4.483-3.927 8.125-8.762 8.125-4.835 0-8.761-3.642-8.761-8.125 0-4.484-3.91-8.126-8.745-8.126-4.836 0-8.761 3.642-8.761 8.126 0 4.483-3.926 8.125-8.761 8.125-4.836 0-8.762-3.642-8.762-8.125C17.49 3.642 13.565 0 8.73 0 3.893 0 .127 3.535 0 7.927v555.74c.128 4.392 3.974 7.927 8.73 7.927 4.755 0 8.76-3.642 8.76-8.126 0-4.483 3.926-8.125 8.762-8.125 4.835 0 8.76 3.642 8.76 8.125 0 4.484 3.926 8.126 8.762 8.126 4.835 0 8.76-3.642 8.76-8.126 0-4.483 3.927-8.125 8.762-8.125 4.836 0 8.761 3.642 8.761 8.125 0 4.484 3.926 8.126 8.761 8.126 4.836 0 8.761-3.642 8.761-8.126 0-4.483 3.926-8.125 8.762-8.125 4.835 0 8.761 3.642 8.761 8.125 0 4.484 3.926 8.126 8.761 8.126 4.835 0 8.761-3.642 8.761-8.126 0-4.483 3.926-8.125 8.761-8.125h.096c4.835 0 8.761 3.642 8.761 8.125 0 4.484 3.926 8.126 8.761 8.126 4.836 0 8.761-3.642 8.761-8.126 0-4.483 3.926-8.125 8.762-8.125 4.835 0 8.761 3.642 8.761 8.125 0 4.484 3.925 8.126 8.761 8.126 4.835 0 8.761-3.642 8.761-8.126 0-4.483 3.926-8.125 8.761-8.125 4.836 0 8.761 3.642 8.761 8.125 0 4.484 3.926 8.126 8.761 8.126 4.836 0 8.762-3.642 8.762-8.126 0-4.483 3.925-8.125 8.761-8.125 4.835 0 8.761 3.642 8.761 8.125 0 4.484 3.926 8.126 8.761 8.126 4.835 0 8.761-3.642 8.761-8.126 0-4.483 3.926-8.125 8.761-8.125 4.836 0 8.761 3.642 8.761 8.125 0 4.484 3.926 8.126 8.762 8.126 4.835 0 8.761-3.642 8.761-8.126 0-4.483 3.926-8.125 8.761-8.125 4.835 0 8.761 3.642 8.761 8.125 0 4.484 3.926 8.126 8.761 8.126 4.836 0 8.761-3.642 8.761-8.126 0-4.483 3.926-8.125 8.761-8.125 4.836 0 8.762 3.642 8.762 8.125 0 4.484 3.925 8.126 8.761 8.126 4.835 0 8.617-3.535 8.729-7.927V7.927C367.761 3.535 363.915 0 359.143 0Z"/>
  </g>
  <defs>
    <clipPath id="a">
      <path fill="#fff" d="M0 0h368v24H0z"/>
    </clipPath>
  </defs>
</svg>
