<svg xmlns="http://www.w3.org/2000/svg" width="160" height="173" fill="none" viewBox="0 0 160 173">
  <path fill="#D7E13E" d="M0 67.46h100.871V43.83c0-6.34 4.901-11.392 11.054-11.392 6.153 0 11.054 5.05 11.054 11.392v17.625h8.76C147.382 61.455 160 74.459 160 90.58c0 16.119-12.618 29.123-28.261 29.123H0V67.461Z"/>
  <path fill="#1B1B1B" d="M123.272 58.284h.731v3.212h-.731c-9.612 0-18.284 6.01-21.732 14.817-2.194 5.7-1.985 12.02.523 17.614 2.507 5.595 7.104 9.844 12.955 12.019l.522.208-1.149 3.004-.522-.207c-6.582-2.487-11.806-7.356-14.732-13.78-2.925-6.424-3.134-13.47-.627-20.1 3.866-9.948 13.791-16.787 24.762-16.787Z"/>
</svg>
