<svg xmlns="http://www.w3.org/2000/svg" width="172" height="183" fill="none" viewBox="0 0 172 183">
  <g clip-path="url(#a)">
    <path fill="#D7E13E" d="M171.524 133.338h-36.713c-6.307 0-11.396-5.077-11.396-11.369v-5.077c0-15.732-13.043-28.46-28.954-28.031-15.337.429-27.235 13.801-27.235 29.175v3.861c0 6.293-5.088 11.37-11.395 11.37-6.307 0-11.396-5.077-11.396-11.37v-77.42h.072c12.327 0 22.29-9.939 22.29-22.238C66.796 9.939 56.833 0 44.506 0H22.29C9.962.072 0 10.011 0 22.239V160.51c0 12.228 9.962 22.168 22.29 22.168h149.234v-49.34Z"/>
    <path fill="#1B1B1B" d="M18.662 19.592v-.732h3.212v.732c0 9.612 6.01 18.283 14.817 21.731 5.699 2.194 12.02 1.985 17.614-.522 5.595-2.508 9.844-7.105 12.02-12.956l.207-.522 3.005 1.15-.208.522c-2.486 6.582-7.356 11.806-13.78 14.731-6.424 2.925-13.47 3.134-20.101.627-9.947-3.866-16.786-13.79-16.786-24.76Z"/>
  </g>
  <defs>
    <clipPath id="a">
      <path fill="#fff" d="M0 0h172v183H0z"/>
    </clipPath>
  </defs>
</svg>
