<svg xmlns="http://www.w3.org/2000/svg" width="176" height="203" fill="none" viewBox="0 0 176 203">
  <g clip-path="url(#a)">
    <path fill="#fff" d="M88 205c48.601 0 88-39.399 88-88s-39.399-88-88-88S0 68.399 0 117s39.399 88 88 88Z"/>
    <path fill="#B6D7FF" d="M36 18.198V144.35a5.14 5.14 0 0 0 5.136 5.137h31.217V294.9a2.383 2.383 0 0 0 2.39 2.39h64.781c3.277 0 5.978-2.656 5.978-5.978 0-3.276-2.657-5.977-5.978-5.977h-3.188V149.487h34.449a5.145 5.145 0 0 0 5.137-5.137V18.199a5.141 5.141 0 0 0-5.137-5.138H41.136A5.14 5.14 0 0 0 36 18.2v-.002Z"/>
    <path fill="#1B1B1B" d="M130.18 49.527c-1.627 0-2.905-1.313-2.905-2.985v-7.88c0-1.672 1.278-2.986 2.905-2.986 1.626 0 2.904 1.314 2.904 2.985v7.88c0 1.673-1.278 2.986-2.904 2.986Zm15.188 0c-1.625 0-2.901-1.313-2.901-2.985v-7.88c0-1.672 1.276-2.986 2.901-2.986 1.624 0 2.901 1.314 2.901 2.985v7.88c.116 1.673-1.277 2.986-2.901 2.986Z"/>
    <path fill="#2B3238" d="M135.982 21.785a56.321 56.321 0 0 0 31.128-9.342L159.671 1.15c-7.04 4.65-15.232 7.085-23.689 7.085-9.166 0-17.933-2.834-25.328-8.236l-7.97 10.937c9.742 7.129 21.254 10.849 33.298 10.849Z"/>
  </g>
  <defs>
    <clipPath id="a">
      <path fill="#fff" d="M0 0h176v203H0z"/>
    </clipPath>
  </defs>
</svg>
