<svg xmlns="http://www.w3.org/2000/svg" width="177" height="203" fill="none" viewBox="0 0 177 203">
  <circle cx="88" cy="115" r="88" fill="#fff"/>
  <mask id="a" width="415" height="279" x="-73" y="-75" maskUnits="userSpaceOnUse" style="mask-type:alpha">
    <path fill="#D9D9D9" d="M190.5 105.5c4.475 12.81 4.8 25.501-3.5 39-10.989 17.872-30.989 33.445-50.5 44-16 10.5-32.911 14.501-48.5 14.501-48.602 0-88-39.399-88-88 0-11.27-45.801 18.769-62.5-13-18.72-35.615-8.176-133.118 0-141.5 15.982-16.385 62.802-32 87.5-32 29.81 0 299.582-12.178 315.5 10.5 5.231 7.453-14.905 124.032-30.5 160-14.314 33.011-119.5-2.493-119.5 6.499Z"/>
  </mask>
  <g mask="url(#a)">
    <path fill="#B6D7FF" d="M36.224 18.523v126.152a5.14 5.14 0 0 0 5.137 5.136h31.216v145.413a2.381 2.381 0 0 0 2.392 2.391h64.78c3.277 0 5.978-2.657 5.978-5.978 0-3.276-2.657-5.977-5.978-5.977h-3.188V149.811h34.449a5.14 5.14 0 0 0 5.136-5.136V18.523a5.14 5.14 0 0 0-5.136-5.136H41.36a5.14 5.14 0 0 0-5.136 5.136Z"/>
    <path fill="#1B1B1B" d="M130.404 49.852c-1.626 0-2.904-1.314-2.904-2.986v-7.88c0-1.672 1.278-2.985 2.904-2.985 1.627 0 2.905 1.313 2.905 2.985v7.88c0 1.672-1.278 2.986-2.905 2.986Zm15.188 0c-1.624 0-2.901-1.314-2.901-2.986v-7.88c0-1.672 1.277-2.985 2.901-2.985 1.625 0 2.901 1.313 2.901 2.985v7.88c.116 1.672-1.276 2.986-2.901 2.986ZM109.772 286.5h-4.073V149.589h1.771v135.184h2.302c3.808 0 6.864 3.1 6.864 6.864 0 3.763-3.1 6.863-6.864 6.863h-.221v-1.771h.221a5.094 5.094 0 0 0 5.093-5.092c0-2.834-2.259-5.137-5.093-5.137Z"/>
    <path fill="#2B3238" d="M136.207 22.11a56.32 56.32 0 0 0 31.128-9.343l-7.439-11.292c-7.04 4.65-15.232 7.085-23.689 7.085-9.166 0-17.933-2.834-25.328-8.236l-7.97 10.937c9.741 7.13 21.254 10.849 33.298 10.849Z"/>
  </g>
</svg>
