<svg xmlns="http://www.w3.org/2000/svg" width="454" height="330" fill="none" viewBox="0 0 454 330">
  <rect width="452.733" height="370" x=".633" fill="#fff" rx="18.385"/>
  <rect width="342.422" height="283.482" x="55.789" y="65.607" fill="#F8F9FB" rx="23.215"/>
  <g filter="url(#a)">
    <g clip-path="url(#b)">
      <rect width="147.996" height="46.43" x="71.266" y="84.953" fill="#48C95F" rx="15.477"/>
      <path fill="#fff" d="M108.66 102.333a7.944 7.944 0 0 0-5.63-2.333c-4.404 0-7.972 3.556-7.972 7.944 0 1.389.39 2.778 1.059 3.945L95.002 116l4.237-1.111a8.154 8.154 0 0 0 3.791.944c4.404 0 7.972-3.555 7.972-7.944-.056-2.056-.836-4.056-2.342-5.556Zm-1.783 8.445c-.168.444-.948.889-1.338.944a3.121 3.121 0 0 1-1.227-.055c-.279-.111-.669-.223-1.115-.445-2.007-.833-3.29-2.833-3.4-3-.112-.111-.837-1.055-.837-2.055 0-1 .502-1.445.67-1.667.166-.222.389-.222.557-.222h.39c.111 0 .279-.056.446.333.167.389.557 1.389.613 1.445a.351.351 0 0 1 0 .333c-.056.111-.111.222-.223.333-.111.111-.223.278-.279.334-.111.111-.223.222-.111.388.111.223.502.834 1.115 1.389.78.667 1.394.889 1.617 1 .223.111.334.056.446-.055.111-.111.501-.556.613-.778.111-.222.279-.167.446-.111.167.055 1.171.555 1.338.667.223.111.334.166.39.222.056.166.056.555-.111 1Z"/>
      <rect width="78.351" height="16.444" x="119.631" y="99.946" fill="#fff" opacity=".2" rx="8.222"/>
    </g>
  </g>
  <g filter="url(#c)">
    <g clip-path="url(#d)">
      <rect width="147.996" height="46.43" x="234.738" y="84.953" fill="#27A6E5" rx="15.477"/>
      <path fill="#fff" d="m274.002 100.567-2.689 14.767s-.376 1.024-1.41.533l-6.204-5.182-.029-.015c.838-.82 7.337-7.185 7.621-7.474.439-.446.166-.712-.344-.375l-9.599 6.641-3.704-1.358s-.583-.226-.639-.717c-.057-.491.658-.757.658-.757l15.098-6.452s1.241-.594 1.241.389Z"/>
      <rect width="78.351" height="16.444" x="283.104" y="99.946" fill="#fff" opacity=".2" rx="8.222"/>
    </g>
  </g>
  <path stroke="#E0E0E0" stroke-width=".967" d="M71.266 156.246h100.627"/>
  <path fill="#757575" d="m185.912 159.069 2.828-4.472h1.055v6.132h-1.055v-4.471l-2.828 4.471h-1.043v-6.132h1.043v4.472Zm9.809-4.472v.867h-2.964v-.867h2.964Zm.924 0v6.132h-1.049v-6.132h1.049Zm-4.143 0h1.054l-.159 2.959c-.026.457-.07.861-.13 1.212a4.151 4.151 0 0 1-.238.896 1.89 1.89 0 0 1-.374.612c-.148.155-.325.27-.533.346a2.2 2.2 0 0 1-.72.107h-.329v-.923l.227-.017a.972.972 0 0 0 .414-.114.802.802 0 0 0 .294-.283c.08-.129.144-.293.193-.493.053-.2.093-.438.119-.714.03-.276.053-.597.068-.964l.114-2.624Zm7.11 4.472 2.829-4.472h1.054v6.132h-1.054v-4.471l-2.829 4.471h-1.043v-6.132h1.043v4.472Zm11.19.912c.249 0 .479-.051.691-.153.212-.102.385-.242.521-.419a1.16 1.16 0 0 0 .233-.618h.997a1.87 1.87 0 0 1-.368 1.015 2.545 2.545 0 0 1-2.074 1.037c-.461 0-.864-.081-1.208-.244a2.384 2.384 0 0 1-.85-.669 2.971 2.971 0 0 1-.504-.975 4.095 4.095 0 0 1-.165-1.173v-.238c0-.412.055-.801.165-1.167.113-.371.281-.697.504-.981.227-.283.51-.506.85-.669.344-.162.747-.243 1.208-.243.479 0 .899.098 1.258.294.359.193.64.458.844.794.208.332.321.71.34 1.133h-.997a1.506 1.506 0 0 0-.216-.685 1.34 1.34 0 0 0-.498-.488 1.392 1.392 0 0 0-.731-.187c-.322 0-.592.064-.811.193a1.433 1.433 0 0 0-.516.51 2.418 2.418 0 0 0-.272.708c-.053.257-.079.52-.079.788v.238c0 .269.026.533.079.794.053.26.142.497.267.708.128.212.3.382.515.51.22.125.492.187.817.187Zm9.29-5.384v6.132h-1.054v-6.132h1.054Zm2.058 0v.85h-5.13v-.85h5.13Zm3.268 6.246c-.427 0-.815-.072-1.162-.216a2.63 2.63 0 0 1-.89-.617 2.741 2.741 0 0 1-.567-.941 3.46 3.46 0 0 1-.198-1.19v-.238c0-.499.073-.943.221-1.332.147-.393.347-.726.601-.998.253-.272.54-.478.861-.618.321-.139.654-.209.998-.209.438 0 .816.075 1.133.226.321.151.584.363.788.635.204.268.355.586.453.952.099.363.148.76.148 1.191v.47h-4.58v-.856h3.531v-.079a2.623 2.623 0 0 0-.17-.794 1.417 1.417 0 0 0-.453-.634c-.208-.167-.492-.25-.85-.25a1.426 1.426 0 0 0-1.174.595 2.24 2.24 0 0 0-.334.72 3.66 3.66 0 0 0-.119.981v.238c0 .291.04.565.119.821.083.254.202.477.357.669.159.193.349.344.572.454.227.109.484.164.771.164.371 0 .684-.076.941-.227.257-.151.482-.353.675-.606l.634.504c-.132.201-.3.391-.504.573a2.421 2.421 0 0 1-.754.442c-.295.113-.644.17-1.048.17Zm7.853-6.246v.867h-2.964v-.867h2.964Zm.924 0v6.132h-1.049v-6.132h1.049Zm-4.143 0h1.054l-.159 2.959c-.026.457-.07.861-.13 1.212a4.151 4.151 0 0 1-.238.896 1.89 1.89 0 0 1-.374.612c-.148.155-.325.27-.533.346a2.2 2.2 0 0 1-.72.107h-.329v-.923l.227-.017a.972.972 0 0 0 .414-.114.802.802 0 0 0 .294-.283c.08-.129.144-.293.193-.493.053-.2.093-.438.119-.714.03-.276.053-.597.068-.964l.114-2.624Zm8.522 6.246c-.427 0-.815-.072-1.162-.216a2.63 2.63 0 0 1-.89-.617 2.741 2.741 0 0 1-.567-.941 3.46 3.46 0 0 1-.198-1.19v-.238c0-.499.073-.943.221-1.332.147-.393.347-.726.6-.998a2.59 2.59 0 0 1 .862-.618c.321-.139.654-.209.998-.209.438 0 .816.075 1.133.226.321.151.584.363.788.635.204.268.355.586.453.952.099.363.148.76.148 1.191v.47h-4.58v-.856h3.531v-.079a2.623 2.623 0 0 0-.17-.794 1.424 1.424 0 0 0-.453-.634c-.208-.167-.492-.25-.85-.25a1.426 1.426 0 0 0-1.174.595 2.24 2.24 0 0 0-.334.72 3.66 3.66 0 0 0-.119.981v.238c0 .291.04.565.119.821.083.254.202.477.357.669.159.193.349.344.572.454.227.109.484.164.771.164.37 0 .684-.076.941-.227.257-.151.482-.353.675-.606l.634.504c-.132.201-.3.391-.504.573a2.421 2.421 0 0 1-.754.442c-.295.113-.644.17-1.048.17Zm10.806-3.072v.119c0 .431-.048.827-.142 1.19a2.836 2.836 0 0 1-.425.935 1.958 1.958 0 0 1-.692.618 2.037 2.037 0 0 1-.957.216 2.36 2.36 0 0 1-.788-.12 1.595 1.595 0 0 1-.578-.357 1.779 1.779 0 0 1-.374-.555 2.831 2.831 0 0 1-.187-.737v-2.72c.034-.291.096-.552.187-.782.094-.231.219-.427.374-.59.158-.162.349-.287.572-.374.223-.087.484-.13.782-.13.295 0 .559.053.794.158.238.102.446.25.623.442.182.193.331.426.448.698.121.268.212.57.272.906.06.337.091.698.091 1.083Zm-1.049.119v-.119c0-.265-.019-.516-.057-.754a3.063 3.063 0 0 0-.164-.663 1.89 1.89 0 0 0-.283-.533 1.227 1.227 0 0 0-.425-.351 1.22 1.22 0 0 0-.561-.125 1.62 1.62 0 0 0-.567.085.872.872 0 0 0-.527.516v3.554a.874.874 0 0 0 .198.238c.087.071.204.132.351.181.148.045.333.068.556.068.264 0 .489-.053.674-.159.189-.109.342-.26.459-.453.121-.193.208-.416.261-.669.057-.253.085-.525.085-.816Zm-6.234 0v-.119c0-.385.03-.746.09-1.083.061-.336.151-.638.272-.906.121-.272.27-.505.448-.698a1.882 1.882 0 0 1 1.423-.6c.291 0 .544.043.759.13.219.087.404.212.556.374.151.163.272.359.362.59.091.23.155.491.193.782v2.612a3.105 3.105 0 0 1-.187.777 1.93 1.93 0 0 1-.363.595 1.487 1.487 0 0 1-.561.374 2.081 2.081 0 0 1-.771.131c-.362 0-.682-.072-.957-.216a2.011 2.011 0 0 1-.698-.618 3.008 3.008 0 0 1-.425-.935 4.736 4.736 0 0 1-.141-1.19Zm1.054-.119v.119c0 .291.024.563.073.816.053.253.135.476.244.669.114.193.261.344.442.453.182.106.405.159.669.159.227 0 .414-.028.561-.085a.949.949 0 0 0 .55-.504v-3.452a.846.846 0 0 0-.187-.289.856.856 0 0 0-.346-.227 1.59 1.59 0 0 0-.567-.085 1.15 1.15 0 0 0-.674.193 1.4 1.4 0 0 0-.448.527 2.96 2.96 0 0 0-.244.776 5.603 5.603 0 0 0-.073.93Zm2.018 5.316v-11.063h1.054v11.063h-1.054Zm5.45-5.356v-.13c0-.442.064-.852.192-1.23a2.93 2.93 0 0 1 .556-.992 2.48 2.48 0 0 1 .878-.657c.344-.159.73-.238 1.156-.238.431 0 .819.079 1.162.238.348.155.643.374.885.657.245.28.432.61.561.992.128.378.192.788.192 1.23v.13c0 .442-.064.852-.192 1.23a2.957 2.957 0 0 1-.561.992c-.242.28-.535.499-.879.657-.34.155-.725.233-1.156.233-.431 0-.818-.078-1.162-.233a2.605 2.605 0 0 1-.884-.657 2.999 2.999 0 0 1-.556-.992 3.812 3.812 0 0 1-.192-1.23Zm1.048-.13v.13c0 .306.036.595.108.867.072.269.179.507.323.715.147.207.331.372.55.493a1.6 1.6 0 0 0 .765.175c.287 0 .538-.058.754-.175.219-.121.4-.286.544-.493a2.3 2.3 0 0 0 .323-.715c.075-.272.113-.561.113-.867v-.13c0-.302-.038-.588-.113-.856a2.22 2.22 0 0 0-.329-.72 1.562 1.562 0 0 0-.544-.498 1.526 1.526 0 0 0-.76-.182c-.287 0-.54.061-.759.182-.215.12-.397.287-.544.498a2.275 2.275 0 0 0-.323.72 3.291 3.291 0 0 0-.108.856Zm10.154-.346v.85h-3.241v-.85h3.241Zm-3.02-2.658v6.132h-1.049v-6.132h1.049Zm3.871 0v6.132h-1.055v-6.132h1.055Zm5.45 5.084v-3.157a1.27 1.27 0 0 0-.148-.629.97.97 0 0 0-.43-.42 1.566 1.566 0 0 0-.714-.147c-.265 0-.497.045-.698.136-.196.091-.351.21-.464.357a.782.782 0 0 0-.165.476h-1.048c0-.219.056-.436.17-.651.113-.216.276-.41.487-.584.216-.178.472-.318.771-.42a3.06 3.06 0 0 1 1.009-.158c.446 0 .839.075 1.179.226.344.151.612.38.805.686.196.302.294.682.294 1.139v2.857c0 .204.017.421.051.652.038.23.093.429.165.595v.09h-1.094a1.928 1.928 0 0 1-.125-.481 3.915 3.915 0 0 1-.045-.567Zm.181-2.67.011.737h-1.059c-.299 0-.565.025-.8.074a1.81 1.81 0 0 0-.589.21.987.987 0 0 0-.363.357.948.948 0 0 0-.124.493c0 .193.043.368.13.527a.95.95 0 0 0 .391.38c.178.09.395.136.652.136.321 0 .604-.068.85-.204.246-.136.44-.303.584-.499.147-.197.226-.387.238-.573l.448.505a1.538 1.538 0 0 1-.216.527 2.53 2.53 0 0 1-1.162.992c-.264.113-.563.17-.895.17-.416 0-.781-.081-1.094-.244a1.87 1.87 0 0 1-.726-.652 1.72 1.72 0 0 1-.255-.923c0-.329.065-.618.193-.868.129-.253.314-.463.555-.629.242-.17.533-.298.873-.385.34-.087.72-.131 1.14-.131h1.218Z"/>
  <path stroke="#E0E0E0" stroke-width=".967" d="M282.107 156.246h100.627"/>
  <g clip-path="url(#e)">
    <path fill="#fff" d="M300.515 182.075H153.486v147.029h147.029V182.075Z"/>
    <g clip-path="url(#f)">
      <path fill="#fff" d="M291.348 191.255H162.652v128.696h128.696V191.255Z"/>
      <path fill="#2B3238" d="M207.497 199.056a1.95 1.95 0 1 1 0 3.9 1.95 1.95 0 0 1 0-3.9Z"/>
      <path fill="#2B3238" d="M211.401 199.055a1.95 1.95 0 1 1 0 3.9 1.95 1.95 0 0 1 0-3.9Z"/>
      <path fill="#2B3238" d="M215.3 199.056a1.95 1.95 0 1 1 0 3.898 1.95 1.95 0 0 1 0-3.898Zm7.8 0a1.95 1.95 0 1 1 0 3.9 1.95 1.95 0 0 1 0-3.9Zm11.696-.001a1.95 1.95 0 1 1 0 3.9 1.95 1.95 0 0 1 0-3.9Zm7.802.001a1.95 1.95 0 1 1 0 3.9 1.95 1.95 0 0 1 0-3.9Z"/>
      <path fill="#2B3238" d="M246.497 199.055a1.95 1.95 0 1 1 0 3.9 1.95 1.95 0 0 1 0-3.9Zm-35.096 3.9a1.95 1.95 0 1 1 0 3.9 1.95 1.95 0 0 1 0-3.9Zm11.699.001a1.95 1.95 0 1 1 0 3.9 1.95 1.95 0 0 1 0-3.9Z"/>
      <path fill="#2B3238" d="M226.999 202.956a1.95 1.95 0 1 1 0 3.9 1.95 1.95 0 0 1 0-3.9Z"/>
      <path fill="#2B3238" d="M230.899 202.956a1.95 1.95 0 1 1 0 3.9 1.95 1.95 0 0 1 0-3.9Zm19.5-.001a1.95 1.95 0 1 1 0 3.9 1.95 1.95 0 0 1 0-3.9Zm-27.299 3.899a1.95 1.95 0 1 1-.001 3.901 1.95 1.95 0 0 1 .001-3.901Zm11.696 0a1.95 1.95 0 1 1-.001 3.901 1.95 1.95 0 0 1 .001-3.901Z"/>
      <path fill="#2B3238" d="M238.698 206.855a1.95 1.95 0 1 1 0 3.9 1.95 1.95 0 0 1 0-3.9Zm-31.201 3.9a1.95 1.95 0 1 1 0 3.9 1.95 1.95 0 0 1 0-3.9Z"/>
      <path fill="#2B3238" d="M211.401 210.755a1.95 1.95 0 1 1 0 3.9 1.95 1.95 0 0 1 0-3.9Zm11.699 0a1.95 1.95 0 1 1 0 3.9 1.95 1.95 0 0 1 0-3.9Z"/>
      <path fill="#2B3238" d="M226.999 210.755a1.95 1.95 0 1 1 0 3.9 1.95 1.95 0 0 1 0-3.9Z"/>
      <path fill="#2B3238" d="M230.899 210.755a1.95 1.95 0 1 1 0 3.9 1.95 1.95 0 0 1 0-3.9Zm11.699 0a1.95 1.95 0 1 1 0 3.9 1.95 1.95 0 0 1 0-3.9Z"/>
      <path fill="#2B3238" d="M246.497 210.755a1.95 1.95 0 1 1 0 3.9 1.95 1.95 0 0 1 0-3.9Zm-39 3.9a1.95 1.95 0 1 1 0 3.9 1.95 1.95 0 0 1 0-3.9Z"/>
      <path fill="#2B3238" d="M211.401 214.655a1.95 1.95 0 1 1 0 3.9 1.95 1.95 0 0 1 0-3.9Zm11.699-.001a1.95 1.95 0 1 1 0 3.9 1.95 1.95 0 0 1 0-3.9Z"/>
      <path fill="#2B3238" d="M226.999 214.655a1.95 1.95 0 1 1 0 3.9 1.95 1.95 0 0 1 0-3.9Zm7.797-.001a1.95 1.95 0 1 1 0 3.9 1.95 1.95 0 0 1 0-3.9Zm7.802.001a1.95 1.95 0 1 1 0 3.9 1.95 1.95 0 0 1 0-3.9Zm-39 3.899a1.95 1.95 0 1 1 0 3.9 1.95 1.95 0 0 1 0-3.9Z"/>
      <path fill="#2B3238" d="M207.497 218.554a1.95 1.95 0 1 1 0 3.9 1.95 1.95 0 0 1 0-3.9Zm7.803 0a1.95 1.95 0 1 1 0 3.898 1.95 1.95 0 0 1 0-3.898Z"/>
      <path fill="#2B3238" d="M219.2 218.553a1.95 1.95 0 1 1 0 3.9 1.95 1.95 0 0 1 0-3.9Z"/>
      <path fill="#2B3238" d="M223.1 218.553a1.95 1.95 0 1 1 0 3.9 1.95 1.95 0 0 1 0-3.9Z"/>
      <path fill="#2B3238" d="M226.999 218.553a1.95 1.95 0 1 1 0 3.9 1.95 1.95 0 0 1 0-3.9Zm19.498.001a1.95 1.95 0 1 1 0 3.9 1.95 1.95 0 0 1 0-3.9Z"/>
      <path fill="#2B3238" d="M250.399 218.555a1.95 1.95 0 1 1 0 3.9 1.95 1.95 0 0 1 0-3.9Zm-46.801 3.898a1.95 1.95 0 1 1 0 3.9 1.95 1.95 0 0 1 0-3.9Zm7.803.001a1.95 1.95 0 1 1 0 3.9 1.95 1.95 0 0 1 0-3.9Zm7.799-.001a1.95 1.95 0 1 1 0 3.9 1.95 1.95 0 0 1 0-3.9Zm7.799 0a1.95 1.95 0 1 1 0 3.9 1.95 1.95 0 0 1 0-3.9Zm7.797.001a1.95 1.95 0 1 1 0 3.9 1.95 1.95 0 0 1 0-3.9Zm7.802-.001a1.95 1.95 0 1 1 0 3.9 1.95 1.95 0 0 1 0-3.9Z"/>
      <path fill="#2B3238" d="M250.399 222.454a1.95 1.95 0 1 1 0 3.9 1.95 1.95 0 0 1 0-3.9Zm-38.998 3.9a1.95 1.95 0 1 1 0 3.9 1.95 1.95 0 0 1 0-3.9Zm7.799 0a1.95 1.95 0 1 1-.001 3.901 1.95 1.95 0 0 1 .001-3.901Zm7.799 0a1.95 1.95 0 1 1-.001 3.901 1.95 1.95 0 0 1 .001-3.901Zm11.699 0a1.95 1.95 0 1 1-.001 3.901 1.95 1.95 0 0 1 .001-3.901Z"/>
      <path fill="#2B3238" d="M242.598 226.354a1.95 1.95 0 1 1-.001 3.901 1.95 1.95 0 0 1 .001-3.901Z"/>
      <path fill="#2B3238" d="M246.497 226.354a1.95 1.95 0 1 1 0 3.9 1.95 1.95 0 0 1 0-3.9Z"/>
      <path fill="#2B3238" d="M250.399 226.354a1.95 1.95 0 1 1-.001 3.901 1.95 1.95 0 0 1 .001-3.901Zm-77.998 3.901a1.95 1.95 0 1 1 0 3.9 1.95 1.95 0 0 1 0-3.9Zm11.699 0a1.95 1.95 0 1 1 0 3.9 1.95 1.95 0 0 1 0-3.9Zm7.797-.001a1.95 1.95 0 1 1 0 3.9 1.95 1.95 0 0 1 0-3.9Z"/>
      <path fill="#2B3238" d="M195.798 230.255a1.95 1.95 0 1 1 0 3.9 1.95 1.95 0 0 1 0-3.9Zm7.8-.001a1.95 1.95 0 1 1 0 3.9 1.95 1.95 0 0 1 0-3.9Zm11.702 0a1.95 1.95 0 1 1 0 3.898 1.95 1.95 0 0 1 0-3.898Z"/>
      <path fill="#2B3238" d="M219.2 230.254a1.95 1.95 0 1 1 0 3.9 1.95 1.95 0 0 1 0-3.9Zm11.699 0a1.95 1.95 0 1 1 0 3.9 1.95 1.95 0 0 1 0-3.9Zm19.5.001a1.95 1.95 0 1 1 0 3.9 1.95 1.95 0 0 1 0-3.9Z"/>
      <path fill="#2B3238" d="M254.298 230.254a1.95 1.95 0 1 1 0 3.9 1.95 1.95 0 0 1 0-3.9Zm7.802.001a1.95 1.95 0 1 1 0 3.9 1.95 1.95 0 0 1 0-3.9Zm-89.699 3.898a1.95 1.95 0 1 1 0 3.9 1.95 1.95 0 0 1 0-3.9Z"/>
      <path fill="#2B3238" d="M176.3 234.153a1.95 1.95 0 1 1 0 3.898 1.95 1.95 0 0 1 0-3.898Z"/>
      <path fill="#2B3238" d="M180.2 234.153a1.95 1.95 0 1 1 0 3.9 1.95 1.95 0 0 1 0-3.9Z"/>
      <path fill="#2B3238" d="M184.1 234.153a1.95 1.95 0 1 1 0 3.9 1.95 1.95 0 0 1 0-3.9Z"/>
      <path fill="#2B3238" d="M188.003 234.153a1.95 1.95 0 1 1 0 3.9 1.95 1.95 0 0 1 0-3.9Zm11.697 0a1.95 1.95 0 1 1 0 3.9 1.95 1.95 0 0 1 0-3.9Z"/>
      <path fill="#2B3238" d="M203.598 234.153a1.95 1.95 0 1 1 0 3.9 1.95 1.95 0 0 1 0-3.9Z"/>
      <path fill="#2B3238" d="M207.497 234.153a1.95 1.95 0 1 1 0 3.9 1.95 1.95 0 0 1 0-3.9Z"/>
      <path fill="#2B3238" d="M211.401 234.153a1.95 1.95 0 1 1 0 3.9 1.95 1.95 0 0 1 0-3.9Z"/>
      <path fill="#2B3238" d="M215.3 234.153a1.95 1.95 0 1 1 0 3.898 1.95 1.95 0 0 1 0-3.898Zm11.699 0a1.95 1.95 0 1 1 0 3.9 1.95 1.95 0 0 1 0-3.9Z"/>
      <path fill="#2B3238" d="M230.899 234.153a1.95 1.95 0 1 1 0 3.9 1.95 1.95 0 0 1 0-3.9Zm19.5 0a1.95 1.95 0 1 1 0 3.9 1.95 1.95 0 0 1 0-3.9Zm7.799 0a1.95 1.95 0 1 1 0 3.9 1.95 1.95 0 0 1 0-3.9Zm11.697 0a1.95 1.95 0 1 1 0 3.9 1.95 1.95 0 0 1 0-3.9Zm11.701 0a1.95 1.95 0 1 1 0 3.9 1.95 1.95 0 0 1 0-3.9ZM176.3 238.054a1.95 1.95 0 1 1 0 3.898 1.95 1.95 0 0 1 0-3.898Z"/>
      <path fill="#2B3238" d="M180.2 238.054a1.95 1.95 0 1 1 0 3.9 1.95 1.95 0 0 1 0-3.9Z"/>
      <path fill="#2B3238" d="M184.1 238.054a1.95 1.95 0 1 1 0 3.9 1.95 1.95 0 0 1 0-3.9Zm11.698 0a1.95 1.95 0 1 1 0 3.9 1.95 1.95 0 0 1 0-3.9Zm11.699 0a1.95 1.95 0 1 1 0 3.9 1.95 1.95 0 0 1 0-3.9Zm27.299 0a1.95 1.95 0 1 1 0 3.9 1.95 1.95 0 0 1 0-3.9Z"/>
      <path fill="#2B3238" d="M238.698 238.054a1.95 1.95 0 1 1 0 3.9 1.95 1.95 0 0 1 0-3.9Zm7.799 0a1.95 1.95 0 1 1 0 3.9 1.95 1.95 0 0 1 0-3.9Zm7.801 0a1.95 1.95 0 1 1 0 3.9 1.95 1.95 0 0 1 0-3.9Zm15.597 0a1.95 1.95 0 1 1 0 3.9 1.95 1.95 0 0 1 0-3.9Z"/>
      <path fill="#2B3238" d="M273.798 238.054a1.95 1.95 0 1 1 0 3.9 1.95 1.95 0 0 1 0-3.9Z"/>
      <path fill="#2B3238" d="M277.696 238.054a1.95 1.95 0 1 1 0 3.9 1.95 1.95 0 0 1 0-3.9ZM176.3 241.953a1.95 1.95 0 1 1 0 3.898 1.95 1.95 0 0 1 0-3.898Z"/>
      <path fill="#2B3238" d="M180.2 241.954a1.95 1.95 0 1 1 0 3.9 1.95 1.95 0 0 1 0-3.9Z"/>
      <path fill="#2B3238" d="M184.1 241.953a1.95 1.95 0 1 1 0 3.9 1.95 1.95 0 0 1 0-3.9Z"/>
      <path fill="#2B3238" d="M188.003 241.954a1.95 1.95 0 1 1 0 3.9 1.95 1.95 0 0 1 0-3.9Z"/>
      <path fill="#2B3238" d="M191.897 241.954a1.95 1.95 0 1 1 0 3.9 1.95 1.95 0 0 1 0-3.9Zm11.701 0a1.95 1.95 0 1 1 0 3.9 1.95 1.95 0 0 1 0-3.9Z"/>
      <path fill="#2B3238" d="M207.497 241.953a1.95 1.95 0 1 1 0 3.9 1.95 1.95 0 0 1 0-3.9Zm7.803 0a1.95 1.95 0 1 1 0 3.898 1.95 1.95 0 0 1 0-3.898Z"/>
      <path fill="#2B3238" d="M219.2 241.953a1.95 1.95 0 1 1 0 3.9 1.95 1.95 0 0 1 0-3.9Zm7.799 0a1.95 1.95 0 1 1 0 3.9 1.95 1.95 0 0 1 0-3.9Z"/>
      <path fill="#2B3238" d="M230.899 241.953a1.95 1.95 0 1 1 0 3.9 1.95 1.95 0 0 1 0-3.9Zm35.098.001a1.95 1.95 0 1 1 0 3.9 1.95 1.95 0 0 1 0-3.9Zm7.801-.001a1.95 1.95 0 1 1 0 3.9 1.95 1.95 0 0 1 0-3.9Z"/>
      <path fill="#2B3238" d="M277.696 241.954a1.95 1.95 0 1 1 0 3.9 1.95 1.95 0 0 1 0-3.9Zm-105.295 3.9a1.95 1.95 0 1 1 0 3.9 1.95 1.95 0 0 1 0-3.9Zm15.602 0a1.95 1.95 0 1 1 0 3.9 1.95 1.95 0 0 1 0-3.9Z"/>
      <path fill="#2B3238" d="M191.897 245.854a1.95 1.95 0 1 1 0 3.9 1.95 1.95 0 0 1 0-3.9Z"/>
      <path fill="#2B3238" d="M195.798 245.854a1.95 1.95 0 1 1 0 3.9 1.95 1.95 0 0 1 0-3.9Z"/>
      <path fill="#2B3238" d="M199.7 245.854a1.95 1.95 0 1 1 0 3.9 1.95 1.95 0 0 1 0-3.9Zm7.797 0a1.95 1.95 0 1 1 0 3.9 1.95 1.95 0 0 1 0-3.9Z"/>
      <path fill="#2B3238" d="M211.401 245.854a1.95 1.95 0 1 1 0 3.9 1.95 1.95 0 0 1 0-3.9Zm23.395 0a1.95 1.95 0 1 1 0 3.9 1.95 1.95 0 0 1 0-3.9Z"/>
      <path fill="#2B3238" d="M238.698 245.854a1.95 1.95 0 1 1 0 3.9 1.95 1.95 0 0 1 0-3.9Zm7.799 0a1.95 1.95 0 1 1 0 3.9 1.95 1.95 0 0 1 0-3.9Z"/>
      <path fill="#2B3238" d="M250.399 245.854a1.95 1.95 0 1 1 0 3.9 1.95 1.95 0 0 1 0-3.9Z"/>
      <path fill="#2B3238" d="M254.298 245.854a1.95 1.95 0 1 1 0 3.9 1.95 1.95 0 0 1 0-3.9Z"/>
      <path fill="#2B3238" d="M258.198 245.854a1.95 1.95 0 1 1 0 3.9 1.95 1.95 0 0 1 0-3.9Z"/>
      <path fill="#2B3238" d="M262.1 245.854a1.95 1.95 0 1 1 0 3.9 1.95 1.95 0 0 1 0-3.9Zm7.795 0a1.95 1.95 0 1 1 0 3.9 1.95 1.95 0 0 1 0-3.9Zm7.801 0a1.95 1.95 0 1 1 0 3.9 1.95 1.95 0 0 1 0-3.9Z"/>
      <path fill="#2B3238" d="M281.596 245.854a1.95 1.95 0 1 1 0 3.9 1.95 1.95 0 0 1 0-3.9Zm-109.195 3.899a1.95 1.95 0 1 1 0 3.9 1.95 1.95 0 0 1 0-3.9Zm7.799 0a1.95 1.95 0 1 1 0 3.9 1.95 1.95 0 0 1 0-3.9Z"/>
      <path fill="#2B3238" d="M184.1 249.754a1.95 1.95 0 1 1 0 3.9 1.95 1.95 0 0 1 0-3.9Z"/>
      <path fill="#2B3238" d="M188.003 249.754a1.95 1.95 0 1 1 0 3.9 1.95 1.95 0 0 1 0-3.9Zm11.697-.001a1.95 1.95 0 1 1 0 3.9 1.95 1.95 0 0 1 0-3.9Z"/>
      <path fill="#2B3238" d="M203.598 249.754a1.95 1.95 0 1 1 0 3.9 1.95 1.95 0 0 1 0-3.9Z"/>
      <path fill="#2B3238" d="M207.497 249.754a1.95 1.95 0 1 1 0 3.9 1.95 1.95 0 0 1 0-3.9Zm23.402 0a1.95 1.95 0 1 1 0 3.9 1.95 1.95 0 0 1 0-3.9Zm7.799 0a1.95 1.95 0 1 1 0 3.9 1.95 1.95 0 0 1 0-3.9Zm7.799-.001a1.95 1.95 0 1 1 0 3.9 1.95 1.95 0 0 1 0-3.9Zm-70.197 3.9a1.95 1.95 0 1 1 0 3.898 1.95 1.95 0 0 1 0-3.898Z"/>
      <path fill="#2B3238" d="M180.2 253.653a1.95 1.95 0 1 1 0 3.9 1.95 1.95 0 0 1 0-3.9Zm7.803 0a1.95 1.95 0 1 1 0 3.9 1.95 1.95 0 0 1 0-3.9Zm7.795 0a1.95 1.95 0 1 1 0 3.9 1.95 1.95 0 0 1 0-3.9Z"/>
      <path fill="#2B3238" d="M199.7 253.653a1.95 1.95 0 1 1 0 3.9 1.95 1.95 0 0 1 0-3.9Z"/>
      <path fill="#2B3238" d="M203.598 253.654a1.95 1.95 0 1 1 0 3.9 1.95 1.95 0 0 1 0-3.9Zm7.803-.001a1.95 1.95 0 1 1 0 3.9 1.95 1.95 0 0 1 0-3.9Zm7.799 0a1.95 1.95 0 1 1 0 3.9 1.95 1.95 0 0 1 0-3.9Zm11.699 0a1.95 1.95 0 1 1 0 3.9 1.95 1.95 0 0 1 0-3.9Z"/>
      <path fill="#2B3238" d="M234.796 253.653a1.95 1.95 0 1 1 0 3.9 1.95 1.95 0 0 1 0-3.9Zm7.802.001a1.95 1.95 0 1 1 0 3.9 1.95 1.95 0 0 1 0-3.9Zm7.801-.001a1.95 1.95 0 1 1 0 3.9 1.95 1.95 0 0 1 0-3.9Zm7.799-.001a1.95 1.95 0 1 1 0 3.9 1.95 1.95 0 0 1 0-3.9Z"/>
      <path fill="#2B3238" d="M262.1 253.652a1.95 1.95 0 1 1 0 3.9 1.95 1.95 0 0 1 0-3.9Zm7.795 0a1.95 1.95 0 1 1 0 3.9 1.95 1.95 0 0 1 0-3.9Z"/>
      <path fill="#2B3238" d="M273.798 253.653a1.95 1.95 0 1 1 0 3.9 1.95 1.95 0 0 1 0-3.9Z"/>
      <path fill="#2B3238" d="M277.696 253.652a1.95 1.95 0 1 1 0 3.9 1.95 1.95 0 0 1 0-3.9Z"/>
      <path fill="#2B3238" d="M281.596 253.653a1.95 1.95 0 1 1 0 3.9 1.95 1.95 0 0 1 0-3.9Zm-109.195 3.9a1.95 1.95 0 1 1 0 3.9 1.95 1.95 0 0 1 0-3.9Zm7.799.001a1.95 1.95 0 1 1 0 3.9 1.95 1.95 0 0 1 0-3.9Z"/>
      <path fill="#2B3238" d="M184.1 257.553a1.95 1.95 0 1 1 0 3.9 1.95 1.95 0 0 1 0-3.9Z"/>
      <path fill="#2B3238" d="M188.003 257.554a1.95 1.95 0 1 1 0 3.9 1.95 1.95 0 0 1 0-3.9Z"/>
      <path fill="#2B3238" d="M191.897 257.554a1.95 1.95 0 1 1 0 3.9 1.95 1.95 0 0 1 0-3.9Zm23.403 0a1.95 1.95 0 1 1 0 3.898 1.95 1.95 0 0 1 0-3.898Zm7.8 0a1.95 1.95 0 1 1 0 3.9 1.95 1.95 0 0 1 0-3.9Z"/>
      <path fill="#2B3238" d="M226.999 257.554a1.95 1.95 0 1 1 0 3.9 1.95 1.95 0 0 1 0-3.9Zm7.797 0a1.95 1.95 0 1 1 0 3.9 1.95 1.95 0 0 1 0-3.9Z"/>
      <path fill="#2B3238" d="M238.698 257.554a1.95 1.95 0 1 1 0 3.9 1.95 1.95 0 0 1 0-3.9Z"/>
      <path fill="#2B3238" d="M242.598 257.554a1.95 1.95 0 1 1 0 3.9 1.95 1.95 0 0 1 0-3.9Z"/>
      <path fill="#2B3238" d="M246.497 257.554a1.95 1.95 0 1 1 0 3.9 1.95 1.95 0 0 1 0-3.9Z"/>
      <path fill="#2B3238" d="M250.399 257.553a1.95 1.95 0 1 1 0 3.9 1.95 1.95 0 0 1 0-3.9Z"/>
      <path fill="#2B3238" d="M254.298 257.554a1.95 1.95 0 1 1 0 3.9 1.95 1.95 0 0 1 0-3.9Zm7.802-.001a1.95 1.95 0 1 1 0 3.9 1.95 1.95 0 0 1 0-3.9Z"/>
      <path fill="#2B3238" d="M265.997 257.554a1.95 1.95 0 1 1 0 3.9 1.95 1.95 0 0 1 0-3.9Z"/>
      <path fill="#2B3238" d="M269.895 257.553a1.95 1.95 0 1 1 0 3.9 1.95 1.95 0 0 1 0-3.9Zm7.801 0a1.95 1.95 0 1 1 0 3.9 1.95 1.95 0 0 1 0-3.9ZM176.3 261.454a1.95 1.95 0 1 1 0 3.898 1.95 1.95 0 0 1 0-3.898Zm7.8 0a1.95 1.95 0 1 1 0 3.9 1.95 1.95 0 0 1 0-3.9Zm11.698 0a1.95 1.95 0 1 1 0 3.9 1.95 1.95 0 0 1 0-3.9Zm7.8 0a1.95 1.95 0 1 1 0 3.9 1.95 1.95 0 0 1 0-3.9Z"/>
      <path fill="#2B3238" d="M207.497 261.454a1.95 1.95 0 1 1 0 3.9 1.95 1.95 0 0 1 0-3.9Z"/>
      <path fill="#2B3238" d="M211.401 261.454a1.95 1.95 0 1 1 0 3.9 1.95 1.95 0 0 1 0-3.9Z"/>
      <path fill="#2B3238" d="M215.3 261.454a1.95 1.95 0 1 1 0 3.898 1.95 1.95 0 0 1 0-3.898Zm7.8 0a1.95 1.95 0 1 1 0 3.9 1.95 1.95 0 0 1 0-3.9Z"/>
      <path fill="#2B3238" d="M226.999 261.454a1.95 1.95 0 1 1 0 3.9 1.95 1.95 0 0 1 0-3.9Z"/>
      <path fill="#2B3238" d="M230.899 261.454a1.95 1.95 0 1 1 0 3.9 1.95 1.95 0 0 1 0-3.9Z"/>
      <path fill="#2B3238" d="M234.796 261.454a1.95 1.95 0 1 1 0 3.9 1.95 1.95 0 0 1 0-3.9Z"/>
      <path fill="#2B3238" d="M238.698 261.454a1.95 1.95 0 1 1 0 3.9 1.95 1.95 0 0 1 0-3.9Zm7.799 0a1.95 1.95 0 1 1 0 3.9 1.95 1.95 0 0 1 0-3.9Zm15.603 0a1.95 1.95 0 1 1 0 3.9 1.95 1.95 0 0 1 0-3.9Zm15.596 0a1.95 1.95 0 1 1 0 3.9 1.95 1.95 0 0 1 0-3.9ZM176.3 265.353a1.949 1.949 0 1 1 0 3.898 1.949 1.949 0 0 1 0-3.898Zm7.8 0a1.95 1.95 0 1 1 0 3.9 1.95 1.95 0 0 1 0-3.9Z"/>
      <path fill="#2B3238" d="M188.003 265.354a1.95 1.95 0 1 1 0 3.9 1.95 1.95 0 0 1 0-3.9Z"/>
      <path fill="#2B3238" d="M191.897 265.354a1.95 1.95 0 1 1 0 3.9 1.95 1.95 0 0 1 0-3.9Zm27.303 0a1.95 1.95 0 1 1 0 3.9 1.95 1.95 0 0 1 0-3.9Zm11.699 0a1.95 1.95 0 1 1 0 3.9 1.95 1.95 0 0 1 0-3.9Zm7.799-.001a1.95 1.95 0 1 1 0 3.9 1.95 1.95 0 0 1 0-3.9Zm19.5 0a1.95 1.95 0 1 1 0 3.9 1.95 1.95 0 0 1 0-3.9Z"/>
      <path fill="#2B3238" d="M262.1 265.353a1.95 1.95 0 1 1 0 3.9 1.95 1.95 0 0 1 0-3.9Zm7.795 0a1.95 1.95 0 1 1 0 3.9 1.95 1.95 0 0 1 0-3.9Zm11.701 0a1.95 1.95 0 1 1 0 3.9 1.95 1.95 0 0 1 0-3.9Zm-109.195 3.899a1.95 1.95 0 1 1 0 3.9 1.95 1.95 0 0 1 0-3.9Zm7.799.001a1.95 1.95 0 1 1 0 3.9 1.95 1.95 0 0 1 0-3.9Zm11.697 0a1.95 1.95 0 1 1 0 3.9 1.95 1.95 0 0 1 0-3.9Z"/>
      <path fill="#2B3238" d="M195.798 269.253a1.95 1.95 0 1 1 0 3.9 1.95 1.95 0 0 1 0-3.9Z"/>
      <path fill="#2B3238" d="M199.7 269.253a1.95 1.95 0 1 1 0 3.9 1.95 1.95 0 0 1 0-3.9Z"/>
      <path fill="#2B3238" d="M203.598 269.253a1.95 1.95 0 1 1 0 3.9 1.95 1.95 0 0 1 0-3.9Z"/>
      <path fill="#2B3238" d="M207.497 269.253a1.95 1.95 0 1 1 0 3.9 1.95 1.95 0 0 1 0-3.9Z"/>
      <path fill="#2B3238" d="M211.401 269.253a1.95 1.95 0 1 1 0 3.9 1.95 1.95 0 0 1 0-3.9Zm11.699 0a1.95 1.95 0 1 1 0 3.9 1.95 1.95 0 0 1 0-3.9Zm19.498 0a1.95 1.95 0 1 1 0 3.9 1.95 1.95 0 0 1 0-3.9Zm7.801 0a1.95 1.95 0 1 1 0 3.9 1.95 1.95 0 0 1 0-3.9Zm7.799 0a1.95 1.95 0 1 1 0 3.9 1.95 1.95 0 0 1 0-3.9Z"/>
      <path fill="#2B3238" d="M262.1 269.253a1.95 1.95 0 1 1 0 3.9 1.95 1.95 0 0 1 0-3.9Z"/>
      <path fill="#2B3238" d="M265.997 269.253a1.95 1.95 0 1 1 0 3.9 1.95 1.95 0 0 1 0-3.9Zm11.699-.001a1.95 1.95 0 1 1 0 3.9 1.95 1.95 0 0 1 0-3.9Z"/>
      <path fill="#2B3238" d="M281.596 269.253a1.95 1.95 0 1 1 0 3.9 1.95 1.95 0 0 1 0-3.9Zm-101.396 3.9a1.95 1.95 0 1 1 0 3.9 1.95 1.95 0 0 1 0-3.9Zm7.803 0a1.95 1.95 0 1 1 0 3.9 1.95 1.95 0 0 1 0-3.9Z"/>
      <path fill="#2B3238" d="M191.897 273.153a1.95 1.95 0 1 1 0 3.9 1.95 1.95 0 0 1 0-3.9Zm7.803 0a1.95 1.95 0 1 1 0 3.9 1.95 1.95 0 0 1 0-3.9Zm11.701 0a1.95 1.95 0 1 1 0 3.9 1.95 1.95 0 0 1 0-3.9Z"/>
      <path fill="#2B3238" d="M215.3 273.153a1.95 1.95 0 1 1 0 3.898 1.95 1.95 0 0 1 0-3.898Zm7.8 0a1.95 1.95 0 1 1 0 3.9 1.95 1.95 0 0 1 0-3.9Zm7.799 0a1.95 1.95 0 1 1 0 3.9 1.95 1.95 0 0 1 0-3.9Z"/>
      <path fill="#2B3238" d="M234.796 273.153a1.95 1.95 0 1 1 0 3.9 1.95 1.95 0 0 1 0-3.9Z"/>
      <path fill="#2B3238" d="M238.698 273.153a1.95 1.95 0 1 1 0 3.9 1.95 1.95 0 0 1 0-3.9Z"/>
      <path fill="#2B3238" d="M242.598 273.153a1.95 1.95 0 1 1 0 3.9 1.95 1.95 0 0 1 0-3.9Z"/>
      <path fill="#2B3238" d="M246.497 273.153a1.95 1.95 0 1 1 0 3.9 1.95 1.95 0 0 1 0-3.9Zm7.801 0a1.95 1.95 0 1 1 0 3.9 1.95 1.95 0 0 1 0-3.9Zm7.802 0a1.95 1.95 0 1 1 0 3.9 1.95 1.95 0 0 1 0-3.9Zm15.596 0a1.95 1.95 0 1 1 0 3.9 1.95 1.95 0 0 1 0-3.9Z"/>
      <path fill="#2B3238" d="M281.596 273.153a1.95 1.95 0 1 1 0 3.9 1.95 1.95 0 0 1 0-3.9Zm-109.195 3.9a1.95 1.95 0 1 1 0 3.9 1.95 1.95 0 0 1 0-3.9Zm15.602-.001a1.95 1.95 0 1 1 0 3.9 1.95 1.95 0 0 1 0-3.9Z"/>
      <path fill="#2B3238" d="M191.897 277.052a1.95 1.95 0 1 1 0 3.9 1.95 1.95 0 0 1 0-3.9Z"/>
      <path fill="#2B3238" d="M195.798 277.053a1.95 1.95 0 1 1 0 3.9 1.95 1.95 0 0 1 0-3.9Zm11.699-.001a1.95 1.95 0 1 1 0 3.9 1.95 1.95 0 0 1 0-3.9Zm19.502 0a1.95 1.95 0 1 1 0 3.9 1.95 1.95 0 0 1 0-3.9Zm7.797 0a1.95 1.95 0 1 1 0 3.9 1.95 1.95 0 0 1 0-3.9Zm15.603.001a1.95 1.95 0 1 1 0 3.9 1.95 1.95 0 0 1 0-3.9Z"/>
      <path fill="#2B3238" d="M254.298 277.052a1.95 1.95 0 1 1 0 3.9 1.95 1.95 0 0 1 0-3.9Z"/>
      <path fill="#2B3238" d="M258.198 277.053a1.95 1.95 0 1 1 0 3.9 1.95 1.95 0 0 1 0-3.9Z"/>
      <path fill="#2B3238" d="M262.1 277.053a1.95 1.95 0 1 1 0 3.9 1.95 1.95 0 0 1 0-3.9Z"/>
      <path fill="#2B3238" d="M265.997 277.052a1.95 1.95 0 1 1 0 3.9 1.95 1.95 0 0 1 0-3.9Zm7.801.001a1.95 1.95 0 1 1 0 3.9 1.95 1.95 0 0 1 0-3.9Zm-70.2 3.898a1.95 1.95 0 1 1 0 3.9 1.95 1.95 0 0 1 0-3.9Z"/>
      <path fill="#2B3238" d="M207.497 280.951a1.95 1.95 0 1 1 0 3.9 1.95 1.95 0 0 1 0-3.9Z"/>
      <path fill="#2B3238" d="M211.401 280.951a1.95 1.95 0 1 1 0 3.9 1.95 1.95 0 0 1 0-3.9Zm11.699 0a1.95 1.95 0 1 1 0 3.9 1.95 1.95 0 0 1 0-3.9Zm7.799 0a1.95 1.95 0 1 1 0 3.9 1.95 1.95 0 0 1 0-3.9Z"/>
      <path fill="#2B3238" d="M234.796 280.951a1.95 1.95 0 1 1 0 3.9 1.95 1.95 0 0 1 0-3.9Z"/>
      <path fill="#2B3238" d="M238.698 280.953a1.95 1.95 0 1 1 0 3.9 1.95 1.95 0 0 1 0-3.9Zm11.701 0a1.95 1.95 0 1 1 0 3.9 1.95 1.95 0 0 1 0-3.9Zm15.598-.002a1.95 1.95 0 1 1 0 3.9 1.95 1.95 0 0 1 0-3.9Zm7.801.002a1.95 1.95 0 1 1 0 3.9 1.95 1.95 0 0 1 0-3.9Z"/>
      <path fill="#2B3238" d="M277.696 280.953a1.95 1.95 0 1 1 0 3.9 1.95 1.95 0 0 1 0-3.9Z"/>
      <path fill="#2B3238" d="M281.596 280.953a1.95 1.95 0 1 1 0 3.9 1.95 1.95 0 0 1 0-3.9Zm-74.099 3.901a1.95 1.95 0 1 1 0 3.9 1.95 1.95 0 0 1 0-3.9Zm15.603-.001a1.95 1.95 0 1 1 0 3.9 1.95 1.95 0 0 1 0-3.9Z"/>
      <path fill="#2B3238" d="M226.999 284.854a1.95 1.95 0 1 1 0 3.9 1.95 1.95 0 0 1 0-3.9Z"/>
      <path fill="#2B3238" d="M230.899 284.854a1.95 1.95 0 1 1 0 3.9 1.95 1.95 0 0 1 0-3.9Zm19.5-.001a1.95 1.95 0 1 1 0 3.9 1.95 1.95 0 0 1 0-3.9Zm7.799 0a1.95 1.95 0 1 1 0 3.9 1.95 1.95 0 0 1 0-3.9Zm7.799 0a1.95 1.95 0 1 1 0 3.9 1.95 1.95 0 0 1 0-3.9Zm11.699 0a1.95 1.95 0 1 1 0 3.9 1.95 1.95 0 0 1 0-3.9Zm-74.098 3.899a1.95 1.95 0 1 1 0 3.9 1.95 1.95 0 0 1 0-3.9Z"/>
      <path fill="#2B3238" d="M207.497 288.751a1.95 1.95 0 1 1 0 3.9 1.95 1.95 0 0 1 0-3.9Zm7.803 0a1.95 1.95 0 1 1 0 3.898 1.95 1.95 0 0 1 0-3.898Zm7.8.001a1.95 1.95 0 1 1 0 3.9 1.95 1.95 0 0 1 0-3.9Zm11.696 0a1.95 1.95 0 1 1 0 3.9 1.95 1.95 0 0 1 0-3.9Zm7.802-.001a1.95 1.95 0 1 1 0 3.9 1.95 1.95 0 0 1 0-3.9Zm7.801.002a1.95 1.95 0 1 1 0 3.9 1.95 1.95 0 0 1 0-3.9Zm15.598-.001a1.95 1.95 0 1 1 0 3.9 1.95 1.95 0 0 1 0-3.9Z"/>
      <path fill="#2B3238" d="M269.895 288.753a1.95 1.95 0 1 1 0 3.9 1.95 1.95 0 0 1 0-3.9Z"/>
      <path fill="#2B3238" d="M273.798 288.753a1.95 1.95 0 1 1 0 3.9 1.95 1.95 0 0 1 0-3.9Z"/>
      <path fill="#2B3238" d="M277.696 288.753a1.95 1.95 0 1 1 0 3.9 1.95 1.95 0 0 1 0-3.9Z"/>
      <path fill="#2B3238" d="M281.596 288.753a1.95 1.95 0 1 1 0 3.9 1.95 1.95 0 0 1 0-3.9Zm-74.099 3.898a1.95 1.95 0 1 1 0 3.9 1.95 1.95 0 0 1 0-3.9Z"/>
      <path fill="#2B3238" d="M211.401 292.651a1.95 1.95 0 1 1 0 3.9 1.95 1.95 0 0 1 0-3.9Z"/>
      <path fill="#2B3238" d="M215.3 292.651a1.95 1.95 0 1 1 0 3.898 1.95 1.95 0 0 1 0-3.898Zm11.699-.001a1.95 1.95 0 1 1 0 3.9 1.95 1.95 0 0 1 0-3.9Z"/>
      <path fill="#2B3238" d="M230.899 292.65a1.95 1.95 0 1 1 0 3.9 1.95 1.95 0 0 1 0-3.9Z"/>
      <path fill="#2B3238" d="M234.796 292.65a1.95 1.95 0 1 1 0 3.9 1.95 1.95 0 0 1 0-3.9Z"/>
      <path fill="#2B3238" d="M238.698 292.651a1.95 1.95 0 1 1 0 3.9 1.95 1.95 0 0 1 0-3.9Zm11.701 0a1.95 1.95 0 1 1 0 3.9 1.95 1.95 0 0 1 0-3.9Z"/>
      <path fill="#2B3238" d="M254.298 292.651a1.95 1.95 0 1 1 0 3.9 1.95 1.95 0 0 1 0-3.9Z"/>
      <path fill="#2B3238" d="M258.198 292.651a1.95 1.95 0 1 1 0 3.9 1.95 1.95 0 0 1 0-3.9Z"/>
      <path fill="#2B3238" d="M262.1 292.651a1.95 1.95 0 1 1 0 3.9 1.95 1.95 0 0 1 0-3.9Z"/>
      <path fill="#2B3238" d="M265.997 292.65a1.95 1.95 0 1 1 0 3.9 1.95 1.95 0 0 1 0-3.9Zm11.699.001a1.95 1.95 0 1 1 0 3.9 1.95 1.95 0 0 1 0-3.9Zm-74.098 3.9a1.95 1.95 0 1 1 0 3.9 1.95 1.95 0 0 1 0-3.9Z"/>
      <path fill="#2B3238" d="M207.497 296.552a1.95 1.95 0 1 1 0 3.9 1.95 1.95 0 0 1 0-3.9Zm15.603-.001a1.95 1.95 0 1 1 0 3.9 1.95 1.95 0 0 1 0-3.9Z"/>
      <path fill="#2B3238" d="M226.999 296.552a1.95 1.95 0 1 1 0 3.9 1.95 1.95 0 0 1 0-3.9Z"/>
      <path fill="#2B3238" d="M230.899 296.552a1.95 1.95 0 1 1 0 3.9 1.95 1.95 0 0 1 0-3.9Z"/>
      <path fill="#2B3238" d="M234.796 296.551a1.95 1.95 0 1 1 0 3.9 1.95 1.95 0 0 1 0-3.9Z"/>
      <path fill="#2B3238" d="M238.698 296.552a1.95 1.95 0 1 1 0 3.9 1.95 1.95 0 0 1 0-3.9Z"/>
      <path fill="#2B3238" d="M242.598 296.552a1.95 1.95 0 1 1 0 3.9 1.95 1.95 0 0 1 0-3.9Zm7.801 0a1.95 1.95 0 1 1 0 3.9 1.95 1.95 0 0 1 0-3.9Z"/>
      <path fill="#2B3238" d="M254.298 296.551a1.95 1.95 0 1 1 0 3.9 1.95 1.95 0 0 1 0-3.9Z"/>
      <path fill="#2B3238" d="M258.198 296.552a1.95 1.95 0 1 1 0 3.9 1.95 1.95 0 0 1 0-3.9Z"/>
      <path fill="#2B3238" d="M262.1 296.552a1.95 1.95 0 1 1 0 3.9 1.95 1.95 0 0 1 0-3.9Z"/>
      <path fill="#2B3238" d="M265.997 296.551a1.95 1.95 0 1 1 0 3.9 1.95 1.95 0 0 1 0-3.9Z"/>
      <path fill="#2B3238" d="M269.895 296.552a1.95 1.95 0 1 1 0 3.9 1.95 1.95 0 0 1 0-3.9Z"/>
      <path fill="#2B3238" d="M273.798 296.552a1.95 1.95 0 1 1 0 3.9 1.95 1.95 0 0 1 0-3.9Zm7.798 0a1.95 1.95 0 1 1 0 3.9 1.95 1.95 0 0 1 0-3.9Zm-66.296 3.899a1.95 1.95 0 1 1 0 3.898 1.95 1.95 0 0 1 0-3.898Z"/>
      <path fill="#2B3238" d="M219.2 300.451a1.95 1.95 0 1 1 0 3.9 1.95 1.95 0 0 1 0-3.9Zm23.398 0a1.95 1.95 0 1 1 0 3.9 1.95 1.95 0 0 1 0-3.9Z"/>
      <path fill="#2B3238" d="M246.497 300.451a1.95 1.95 0 1 1 0 3.9 1.95 1.95 0 0 1 0-3.9Z"/>
      <path fill="#2B3238" d="M250.399 300.452a1.95 1.95 0 1 1 0 3.9 1.95 1.95 0 0 1 0-3.9Z"/>
      <path fill="#2B3238" d="M254.298 300.451a1.95 1.95 0 1 1 0 3.9 1.95 1.95 0 0 1 0-3.9Zm11.699 0a1.95 1.95 0 1 1 0 3.9 1.95 1.95 0 0 1 0-3.9Z"/>
      <path fill="#2B3238" d="M269.895 300.452a1.95 1.95 0 1 1 0 3.9 1.95 1.95 0 0 1 0-3.9Z"/>
      <path fill="#2B3238" d="M273.798 300.452a1.95 1.95 0 1 1 0 3.9 1.95 1.95 0 0 1 0-3.9Zm7.798 0a1.95 1.95 0 1 1 0 3.9 1.95 1.95 0 0 1 0-3.9Zm-70.195 3.9a1.95 1.95 0 1 1 0 3.9 1.95 1.95 0 0 1 0-3.9Z"/>
      <path fill="#2B3238" d="M215.3 304.352a1.949 1.949 0 1 1 0 3.898 1.949 1.949 0 0 1 0-3.898Zm7.8 0a1.95 1.95 0 1 1 0 3.9 1.95 1.95 0 0 1 0-3.9Z"/>
      <path fill="#2B3238" d="M226.999 304.352a1.95 1.95 0 1 1 0 3.9 1.95 1.95 0 0 1 0-3.9Zm7.797 0a1.95 1.95 0 1 1 0 3.9 1.95 1.95 0 0 1 0-3.9Z"/>
      <path fill="#2B3238" d="M238.698 304.352a1.95 1.95 0 1 1 0 3.9 1.95 1.95 0 0 1 0-3.9Z"/>
      <path fill="#2B3238" d="M242.598 304.352a1.95 1.95 0 1 1 0 3.9 1.95 1.95 0 0 1 0-3.9Z"/>
      <path fill="#2B3238" d="M246.497 304.352a1.95 1.95 0 1 1 0 3.9 1.95 1.95 0 0 1 0-3.9Z"/>
      <path fill="#2B3238" d="M250.399 304.352a1.95 1.95 0 1 1 0 3.9 1.95 1.95 0 0 1 0-3.9Zm15.598 0a1.95 1.95 0 1 1 0 3.9 1.95 1.95 0 0 1 0-3.9Zm11.699 0a1.95 1.95 0 1 1 0 3.9 1.95 1.95 0 0 1 0-3.9Zm-74.098 3.9a1.95 1.95 0 1 1 0 3.9 1.95 1.95 0 0 1 0-3.9Zm7.803-.001a1.95 1.95 0 1 1 0 3.9 1.95 1.95 0 0 1 0-3.9Zm11.699 0a1.95 1.95 0 1 1 0 3.9 1.95 1.95 0 0 1 0-3.9Z"/>
      <path fill="#2B3238" d="M226.999 308.251a1.95 1.95 0 1 1 0 3.9 1.95 1.95 0 0 1 0-3.9Z"/>
      <path fill="#2B3238" d="M230.899 308.251a1.95 1.95 0 1 1 0 3.9 1.95 1.95 0 0 1 0-3.9Zm7.799.001a1.95 1.95 0 1 1 0 3.9 1.95 1.95 0 0 1 0-3.9Z"/>
      <path fill="#2B3238" d="M242.598 308.252a1.95 1.95 0 1 1 0 3.9 1.95 1.95 0 0 1 0-3.9Z"/>
      <path fill="#2B3238" d="M246.497 308.251a1.95 1.95 0 1 1 0 3.9 1.95 1.95 0 0 1 0-3.9Z"/>
      <path fill="#2B3238" d="M250.399 308.251a1.95 1.95 0 1 1 0 3.9 1.95 1.95 0 0 1 0-3.9Zm11.701.001a1.95 1.95 0 1 1 0 3.9 1.95 1.95 0 0 1 0-3.9Z"/>
      <path fill="#2B3238" d="M265.997 308.252a1.95 1.95 0 1 1 0 3.9 1.95 1.95 0 0 1 0-3.9Zm11.699-.001a1.95 1.95 0 1 1 0 3.9 1.95 1.95 0 0 1 0-3.9Zm-89.268-23.397h-8.659c-4.219 0-7.795 2.789-8.938 6.599a9.056 9.056 0 0 0-.382 2.615v8.864c0 5.083 4.182 9.216 9.32 9.216l4.33.001 4.329-.001c5.138 0 9.32-4.133 9.32-9.216v-8.864c0-5.08-4.182-9.214-9.32-9.214Zm5.225 18.078c0 2.824-2.343 5.122-5.226 5.122h-4.328l-4.329-.001c-2.882 0-5.226-2.297-5.226-5.121v-8.864c0-.882.229-1.713.632-2.438a5.195 5.195 0 0 1 1.596-1.753 5.274 5.274 0 0 1 2.997-.928h8.659c2.882 0 5.225 2.296 5.225 5.119v8.864Z"/>
      <path fill="#fff" d="M188.427 203.152h-8.659a5.274 5.274 0 0 0-2.997.928 5.185 5.185 0 0 0-1.596 1.753 5.002 5.002 0 0 0-.632 2.438v8.864c0 2.824 2.344 5.122 5.226 5.122h4.329l4.328-.001c2.882 0 5.226-2.297 5.226-5.121v-8.864c0-2.823-2.344-5.119-5.225-5.119Z"/>
      <path fill="#2B3238" d="M188.428 199.058h-8.659c-4.219 0-7.795 2.788-8.938 6.598a9.09 9.09 0 0 0-.382 2.615v8.864c0 5.083 4.182 9.217 9.32 9.217h4.33l4.329-.001c5.138 0 9.32-4.133 9.32-9.216v-8.864c0-5.08-4.182-9.213-9.32-9.213Zm5.225 18.077c0 2.824-2.343 5.122-5.226 5.122h-4.328l-4.329-.001c-2.882 0-5.226-2.297-5.226-5.121v-8.864c0-.882.229-1.712.632-2.438a5.195 5.195 0 0 1 1.596-1.753 5.274 5.274 0 0 1 2.997-.928h8.659c2.882 0 5.225 2.297 5.225 5.119v8.864Z"/>
      <path fill="#2B3238" d="M181.452 218.555c-1.766 0-3.202-1.408-3.202-3.136v-5.429c0-.54.14-1.048.386-1.493.238-.428.574-.796.978-1.073a3.23 3.23 0 0 1 1.836-.569h5.303c1.764 0 3.2 1.407 3.2 3.135v5.429c0 1.728-1.436 3.136-3.2 3.136h-5.301Zm0 85.684c-1.766 0-3.202-1.408-3.202-3.137v-5.428c0-.54.14-1.048.386-1.493.238-.428.574-.796.978-1.073a3.23 3.23 0 0 1 1.836-.569h5.303c1.764 0 3.2 1.406 3.2 3.135v5.428c0 1.729-1.436 3.137-3.2 3.137h-5.301Z"/>
      <path fill="#fff" d="M274.484 203.15h-8.659a5.274 5.274 0 0 0-2.997.928 5.198 5.198 0 0 0-1.597 1.753 5.002 5.002 0 0 0-.631 2.438v8.864c0 2.824 2.344 5.122 5.226 5.122h4.328l4.329-.001c2.882 0 5.226-2.297 5.226-5.121v-8.864c0-2.822-2.344-5.119-5.225-5.119Z"/>
      <path fill="#2B3238" d="M274.485 199.056h-8.659c-4.22 0-7.795 2.788-8.938 6.598-.118.395-.21.8-.275 1.214a9.25 9.25 0 0 0-.107 1.401v8.864c0 5.083 4.182 9.217 9.32 9.217h4.329l4.33-.001c5.137 0 9.32-4.133 9.32-9.216v-8.864c0-5.08-4.182-9.213-9.32-9.213Zm5.225 18.077c0 2.824-2.344 5.122-5.226 5.122l-4.329.001-4.328-.002c-2.882 0-5.226-2.297-5.226-5.121v-8.864c0-.882.228-1.712.631-2.438a5.198 5.198 0 0 1 1.597-1.753 5.271 5.271 0 0 1 2.997-.927h8.659c2.881 0 5.225 2.296 5.225 5.118v8.864Z"/>
      <path fill="#2B3238" d="M267.502 218.554c-1.765 0-3.201-1.408-3.201-3.136v-5.429c0-.54.14-1.048.386-1.493.237-.428.573-.796.978-1.073a3.23 3.23 0 0 1 1.836-.569h5.303c1.764 0 3.2 1.407 3.2 3.135v5.429c0 1.728-1.436 3.136-3.2 3.136h-5.302Z"/>
    </g>
    <rect width="50.299" height="29.019" x="201.876" y="238.809" fill="#2B3238" rx="5.804"/>
    <rect width="50.299" height="29.019" x="201.876" y="238.809" stroke="#fff" stroke-width="3.869" rx="5.804"/>
    <circle cx="216.386" cy="253.318" r="7.255" fill="#2B3238"/>
    <path fill="#fff" fill-rule="evenodd" d="M216.387 246.063h-.003c-4 0-7.253 3.254-7.253 7.255a7.2 7.2 0 0 0 .987 3.65l-.987 3.605 3.657-.957a7.197 7.197 0 0 0 3.599.957c4 0 7.253-3.255 7.253-7.255v-.058a7.126 7.126 0 0 0-2.114-5.085 7.177 7.177 0 0 0-5.111-2.112h-.028Zm4.222 10.245c-.175.494-.87.904-1.424 1.024-.379.081-.874.145-2.541-.546-1.973-.817-3.295-2.733-3.567-3.126l-.045-.064-.01-.013c-.133-.182-.851-1.162-.851-2.176 0-1.011.498-1.518.722-1.746l.019-.019c.175-.179.465-.26.742-.26.082 0 .156.003.223.007l.02.001c.213.009.32.022.461.358l.208.503v.001c.189.458.408.991.444 1.066.052.107.103.252.031.392a1.177 1.177 0 0 1-.216.311l-.019.022c-.045.052-.089.098-.132.145a3.514 3.514 0 0 0-.184.205l-.005.007c-.097.113-.201.236-.08.445.123.208.55.904 1.177 1.463.744.662 1.359.91 1.636 1.022l.065.027c.175.072.384.055.512-.081.14-.151.309-.389.484-.635l.083-.116c.145-.205.328-.23.52-.158.196.068 1.232.581 1.446.687l.122.06c.145.07.242.116.283.187.051.09.051.512-.124 1.007Z" clip-rule="evenodd"/>
    <circle cx="237.667" cy="253.318" r="7.255" fill="#2B3238"/>
    <path fill="#fff" fill-rule="evenodd" d="M244.922 253.318a7.255 7.255 0 1 1-14.51 0 7.255 7.255 0 0 1 14.51 0Zm-6.836-1.913a349 349 0 0 0-4.23 1.822c-.344.137-.524.27-.54.401-.028.221.249.308.625.426l.159.05c.37.121.869.262 1.128.267.235.005.497-.091.786-.29 1.976-1.334 2.996-2.008 3.06-2.023.046-.01.108-.023.151.015.042.037.038.109.033.128-.027.117-1.112 1.126-1.674 1.648-.175.163-.299.278-.325.304-.056.06-.114.115-.17.169-.344.332-.602.581.014.987.296.195.533.357.77.518.258.175.516.351.849.569.085.056.166.114.245.17.301.214.571.407.904.376.194-.018.394-.2.496-.743.241-1.285.713-4.069.822-5.216a1.24 1.24 0 0 0-.012-.286.307.307 0 0 0-.103-.196.475.475 0 0 0-.281-.085c-.273.005-.692.151-2.707.989Z" clip-rule="evenodd"/>
  </g>
  <rect width="342.422" height="20.683" x="55.789" y="27.578" fill="#E5EBF0" rx="10.342"/>
  <defs>
    <clipPath id="b">
      <rect width="147.996" height="46.43" x="71.266" y="84.953" fill="#fff" rx="15.477"/>
    </clipPath>
    <clipPath id="d">
      <rect width="147.996" height="46.43" x="234.738" y="84.953" fill="#fff" rx="15.477"/>
    </clipPath>
    <clipPath id="e">
      <rect width="147.029" height="147.029" x="153.486" y="182.075" fill="#fff" rx="15.477"/>
    </clipPath>
    <clipPath id="f">
      <path fill="#fff" d="M162.652 191.255h128.696v128.696H162.652z"/>
    </clipPath>
    <filter id="a" width="157.669" height="56.103" x="66.429" y="81.084" color-interpolation-filters="sRGB" filterUnits="userSpaceOnUse">
      <feFlood flood-opacity="0" result="BackgroundImageFix"/>
      <feColorMatrix in="SourceAlpha" result="hardAlpha" values="0 0 0 0 0 0 0 0 0 0 0 0 0 0 0 0 0 0 127 0"/>
      <feOffset dy=".967"/>
      <feGaussianBlur stdDeviation="2.418"/>
      <feColorMatrix values="0 0 0 0 0.34902 0 0 0 0 0.407843 0 0 0 0 0.560784 0 0 0 0.06 0"/>
      <feBlend in2="BackgroundImageFix" result="effect1_dropShadow_308_8390"/>
      <feBlend in="SourceGraphic" in2="effect1_dropShadow_308_8390" result="shape"/>
    </filter>
    <filter id="c" width="157.669" height="56.103" x="229.902" y="81.084" color-interpolation-filters="sRGB" filterUnits="userSpaceOnUse">
      <feFlood flood-opacity="0" result="BackgroundImageFix"/>
      <feColorMatrix in="SourceAlpha" result="hardAlpha" values="0 0 0 0 0 0 0 0 0 0 0 0 0 0 0 0 0 0 127 0"/>
      <feOffset dy=".967"/>
      <feGaussianBlur stdDeviation="2.418"/>
      <feColorMatrix values="0 0 0 0 0.34902 0 0 0 0 0.407843 0 0 0 0 0.560784 0 0 0 0.06 0"/>
      <feBlend in2="BackgroundImageFix" result="effect1_dropShadow_308_8390"/>
      <feBlend in="SourceGraphic" in2="effect1_dropShadow_308_8390" result="shape"/>
    </filter>
  </defs>
</svg>
