<svg xmlns="http://www.w3.org/2000/svg" width="88" height="88" fill="none" viewBox="0 0 88 88">
  <path fill="#212121" d="M88 44C88 19.7 68.3 0 44 0S0 19.7 0 44s19.7 44 44 44 44-19.7 44-44Z"/>
  <path stroke="url(#a)" stroke-width="2" d="M87 44C87 20.252 67.748 1 44 1S1 20.252 1 44s19.252 43 43 43 43-19.252 43-43Z"/>
  <path stroke="#fff" stroke-linecap="round" stroke-linejoin="round" stroke-width="2" d="M32.855 55.145v.023m0-22.315v.023m22.292-.023v.023m0 15.581h-6.688v6.688m13.375-6.688v.022M48.459 61.833h6.688m0-6.688h6.688l-.001 6.689M26.166 28.395a2.23 2.23 0 0 1 2.23-2.229h8.917a2.23 2.23 0 0 1 2.229 2.23v8.917a2.23 2.23 0 0 1-2.23 2.229h-8.917a2.23 2.23 0 0 1-2.229-2.23v-8.917Zm22.293 0a2.23 2.23 0 0 1 2.23-2.229h8.917a2.23 2.23 0 0 1 2.229 2.23v8.917a2.23 2.23 0 0 1-2.23 2.229h-8.917a2.23 2.23 0 0 1-2.229-2.23v-8.917ZM26.166 50.686a2.23 2.23 0 0 1 2.23-2.229h8.917a2.23 2.23 0 0 1 2.229 2.23v8.917a2.23 2.23 0 0 1-2.23 2.229h-8.917a2.23 2.23 0 0 1-2.229-2.23v-8.917Z"/>
  <defs>
    <linearGradient id="a" x1="44" x2="44" y1="0" y2="88" gradientUnits="userSpaceOnUse">
      <stop stop-color="#898989"/>
      <stop offset="1" stop-color="#161616"/>
    </linearGradient>
  </defs>
</svg>
