<svg width="88" height="88" viewBox="0 0 88 88" fill="none" xmlns="http://www.w3.org/2000/svg">
<g clip-path="url(#clip0_2053_3122)">
<g filter="url(#filter0_d_2053_3122)">
<path d="M88 44C88 19.6995 68.3005 0 44 0C19.6995 0 0 19.6995 0 44C0 68.3005 19.6995 88 44 88C68.3005 88 88 68.3005 88 44Z" fill="#25D366"/>
<path d="M86.5 44C86.5 20.5279 67.4721 1.5 44 1.5C20.5279 1.5 1.5 20.5279 1.5 44C1.5 67.4721 20.5279 86.5 44 86.5C67.4721 86.5 86.5 67.4721 86.5 44Z" stroke="url(#paint0_linear_2053_3122)" stroke-width="3"/>
<path d="M60.3674 27.5904C56.0244 23.2794 50.2494 20.9034 44.0954 20.9004C31.4154 20.9004 21.0964 31.1344 21.0914 43.7124C21.0871 47.7188 22.1465 51.6545 24.1614 55.1174L20.8984 66.9394L33.0934 63.7664C36.4708 65.5894 40.2485 66.5437 44.0864 66.5434H44.0964C56.7734 66.5434 67.0934 56.3094 67.0984 43.7304C67.1014 37.6354 64.7094 31.9034 60.3674 27.5904ZM44.0954 62.6904H44.0874C40.6666 62.6914 37.3076 61.779 34.3574 60.0474L33.6574 59.6374L26.4224 61.5194L28.3534 54.5224L27.8984 53.8054C25.9851 50.7878 24.9711 47.2875 24.9754 43.7144C24.9794 33.2594 33.5564 24.7544 44.1024 24.7544C49.2094 24.7554 54.0104 26.7304 57.6204 30.3144C61.2304 33.8984 63.2164 38.6624 63.2144 43.7294C63.2104 54.1844 54.6344 62.6904 44.0954 62.6904ZM54.5834 48.4904C54.0084 48.2044 51.1824 46.8254 50.6554 46.6354C50.1284 46.4454 49.7454 46.3494 49.3624 46.9204C48.9794 47.4904 47.8774 48.7754 47.5424 49.1554C47.2064 49.5354 46.8724 49.5834 46.2974 49.2984C45.7224 49.0124 43.8704 48.4104 41.6744 46.4684C39.9664 44.9584 38.8124 43.0904 38.4774 42.5204C38.1424 41.9494 38.4414 41.6404 38.7294 41.3564C38.9874 41.1014 39.3044 40.6904 39.5914 40.3584C39.8784 40.0254 39.9744 39.7874 40.1664 39.4074C40.3574 39.0274 40.2624 38.6934 40.1184 38.4074C39.9744 38.1234 38.8254 35.3174 38.3464 34.1764C37.8794 33.0644 37.4064 33.2144 37.0524 33.1974C36.7184 33.1804 36.3344 33.1774 35.9514 33.1774C35.5684 33.1774 34.9454 33.3204 34.4184 33.8904C33.8914 34.4614 32.4074 35.8404 32.4074 38.6464C32.4074 41.4514 34.4664 44.1624 34.7534 44.5424C35.0414 44.9224 38.8064 50.6804 44.5734 53.1504C45.9434 53.7374 47.0144 54.0884 47.8494 54.3504C49.2264 54.7844 50.4794 54.7234 51.4694 54.5764C52.5744 54.4134 54.8694 53.1974 55.3494 51.8664C55.8284 50.5344 55.8284 49.3934 55.6844 49.1564C55.5414 48.9174 55.1574 48.7764 54.5834 48.4904Z" fill="white"/>
</g>
</g>
<defs>
<filter id="filter0_d_2053_3122" x="-8" y="-4" width="104" height="104" filterUnits="userSpaceOnUse" color-interpolation-filters="sRGB">
<feFlood flood-opacity="0" result="BackgroundImageFix"/>
<feColorMatrix in="SourceAlpha" type="matrix" values="0 0 0 0 0 0 0 0 0 0 0 0 0 0 0 0 0 0 127 0" result="hardAlpha"/>
<feOffset dy="4"/>
<feGaussianBlur stdDeviation="4"/>
<feColorMatrix type="matrix" values="0 0 0 0 0.34902 0 0 0 0 0.407843 0 0 0 0 0.560784 0 0 0 0.16 0"/>
<feBlend mode="normal" in2="BackgroundImageFix" result="effect1_dropShadow_2053_3122"/>
<feBlend mode="normal" in="SourceGraphic" in2="effect1_dropShadow_2053_3122" result="shape"/>
</filter>
<linearGradient id="paint0_linear_2053_3122" x1="44" y1="-8.67774e-08" x2="44" y2="88" gradientUnits="userSpaceOnUse">
<stop stop-color="#86FFB3" stop-opacity="0.44"/>
<stop offset="1" stop-color="#26D367" stop-opacity="0"/>
</linearGradient>
<clipPath id="clip0_2053_3122">
<rect width="88" height="88" fill="white"/>
</clipPath>
</defs>
</svg>
