<svg width="164" height="164" viewBox="0 0 164 164" fill="none" xmlns="http://www.w3.org/2000/svg">
<g clip-path="url(#clip0_2157_4767)">
<rect width="164" height="164" rx="82" transform="matrix(-1 0 0 1 164 0)" fill="#5D7285"/>
<path d="M17.9277 39.9316L144.716 39.9316C147.08 39.9316 149 41.8521 149 44.2158V167.68C149 170.044 147.08 171.964 144.716 171.964H110.701L110.701 247.934H113.767C116.98 247.934 119.565 250.519 119.565 253.732C119.565 256.945 116.98 259.53 113.767 259.53H110.147H92.0506H81.3033H66.5673H50.7604C49.6524 259.53 48.766 258.644 48.766 257.536V171.964H17.8907C15.5271 171.964 13.6066 170.044 13.6066 167.68V44.2158C13.6435 41.8521 15.564 39.9316 17.9277 39.9316Z" fill="#D7E13E"/>
<path d="M110.147 50.0514C120.895 50.0514 131.309 46.949 140.247 41.0399L133.045 30.108C126.25 34.6137 118.309 36.9774 110.147 36.9774C101.284 36.9774 92.7892 34.2074 85.6613 29L77.9425 39.5626C87.3232 46.432 98.4768 50.0514 110.147 50.0514Z" fill="#1B1B1B"/>
<path d="M71.2964 75.8652H100.842H112.18H124.516H135.854H136.039C138.365 75.976 140.212 77.8596 140.212 80.2232C140.212 82.6238 138.255 84.5812 135.854 84.5812H124.516C122.115 84.5812 120.158 82.6238 120.158 80.2232C120.158 79.3369 120.416 78.5244 120.859 77.8596H115.874C116.317 78.5613 116.575 79.3738 116.575 80.2232C116.575 82.6238 114.618 84.5812 112.217 84.5812H100.879C98.4785 84.5812 96.5211 82.6238 96.5211 80.2232C96.5211 79.3369 96.7796 78.5244 97.2228 77.8596H71.3334C66.5322 77.8596 62.6174 81.7744 62.6174 86.5756V86.8341H60.623V86.5756C60.5861 80.6664 65.3873 75.8652 71.2964 75.8652Z" fill="#1B1B1B"/>
</g>
<defs>
<clipPath id="clip0_2157_4767">
<rect width="164" height="164" rx="82" transform="matrix(-1 0 0 1 164 0)" fill="white"/>
</clipPath>
</defs>
</svg>
