<svg width="164" height="164" viewBox="0 0 164 164" fill="none" xmlns="http://www.w3.org/2000/svg">
<g clip-path="url(#clip0_2157_4701)">
<rect width="164" height="164" rx="82" transform="matrix(-1 0 0 1 164 0)" fill="#5D7285"/>
<path d="M195.044 28.582H88.1455C84.8844 28.582 82.2467 31.2197 82.2467 34.4809V101.43H47.2372V93.5653C47.2372 90.7358 44.9832 88.4818 42.1536 88.4818C39.3241 88.4818 37.0701 90.7358 37.0701 93.5653V101.43H33.0416C25.8479 101.43 20.0449 107.233 20.0449 114.427C20.0449 121.621 25.8479 127.424 33.0416 127.424H82.2467V138.502C82.2467 141.763 84.8844 144.401 88.1455 144.401H114.618V211.015H111.933C109.103 211.015 106.849 213.269 106.849 216.098C106.849 218.928 109.103 221.182 111.933 221.182H115.386H130.972H141.379H144.209H166.221C167.756 221.182 168.955 219.935 168.955 218.448V144.353H195.044C198.305 144.353 200.943 141.715 200.943 138.454V34.4809C200.943 31.2197 198.305 28.582 195.044 28.582Z" fill="#D7E13E"/>
<path d="M100.326 56.4463C98.9351 56.4463 97.832 57.5493 97.832 58.9401V65.4624C97.832 66.8532 98.9351 67.9562 100.326 67.9562C101.717 67.9562 102.82 66.8532 102.82 65.4624V58.9401C102.82 57.5493 101.669 56.4463 100.326 56.4463Z" fill="#1B1B1B"/>
<path d="M112.842 56.4463C111.452 56.4463 110.349 57.5493 110.349 58.9401V65.4624C110.349 66.8532 111.452 67.9562 112.842 67.9562C114.233 67.9562 115.336 66.8532 115.336 65.4624V58.9401C115.336 57.5493 114.185 56.4463 112.842 56.4463Z" fill="#1B1B1B"/>
<path d="M95.9616 43.2567C87.3292 39.468 80.0875 33.2335 75.0039 25.3683L84.6435 19.1338C88.5281 25.1286 94.0433 29.8764 100.614 32.7539C107.759 35.9191 115.529 36.6865 123.106 35.0559L125.552 46.2781C115.529 48.4362 105.313 47.3811 95.9616 43.2567Z" fill="#1B1B1B"/>
<path d="M137.927 211.736H141.38V144.115H139.893V210.25H137.927C134.714 210.25 132.076 212.887 132.076 216.1C132.076 219.314 134.714 221.951 137.927 221.951H138.167V220.465H137.927C135.529 220.465 133.611 218.498 133.611 216.148C133.611 213.798 135.529 211.736 137.927 211.736Z" fill="#1B1B1B"/>
<path d="M82.4877 101.19H81.001V127.663H82.4877V101.19Z" fill="#1B1B1B"/>
<path d="M35.2957 100.041H34.96V101.528H35.2957C39.7078 101.528 43.6883 104.309 45.271 108.386C46.2781 111.023 46.1822 113.949 45.0312 116.539C43.8802 119.128 41.77 121.095 39.0844 122.102L38.8446 122.198L39.3721 123.588L39.6119 123.493C42.6333 122.342 45.0312 120.088 46.374 117.114C47.7168 114.141 47.8127 110.88 46.6618 107.81C44.8873 103.206 40.3313 100.041 35.2957 100.041Z" fill="#1B1B1B"/>
</g>
<defs>
<clipPath id="clip0_2157_4701">
<rect width="164" height="164" rx="82" transform="matrix(-1 0 0 1 164 0)" fill="white"/>
</clipPath>
</defs>
</svg>
