<svg width="164" height="164" viewBox="0 0 164 164" fill="none" xmlns="http://www.w3.org/2000/svg">
<g clip-path="url(#clip0_2157_4811)">
<rect width="164" height="164" rx="82" transform="matrix(-1 0 0 1 164 0)" fill="#5D7285"/>
<path d="M31.084 74.073V109.104V134.441V178.688C31.084 181.038 32.9935 182.948 35.3436 182.948H61.2312V235.017C61.2312 236.118 62.1124 237 63.214 237H75.3684H88.8813H98.3551H113.777H116.935C119.653 237 121.893 234.796 121.893 232.042C121.893 229.325 119.689 227.085 116.935 227.085H114.292V182.948H142.86C145.21 182.948 147.119 181.038 147.119 178.688V134.441V109.104V74.073C147.119 71.7229 145.21 69.8135 142.86 69.8135H35.3436C32.9935 69.8135 31.084 71.7229 31.084 74.073Z" fill="#D7E13E"/>
<path d="M121.719 97.8516C123.593 97.8516 125.078 99.415 125.078 101.386V110.631C125.078 112.602 123.593 114.165 121.719 114.165C119.846 114.165 118.361 112.602 118.361 110.631V101.386C118.361 99.415 119.911 97.8516 121.719 97.8516Z" fill="#1B1B1B"/>
<path d="M104.446 97.8516C106.319 97.8516 107.805 99.415 107.805 101.386V110.631C107.805 112.602 106.319 114.165 104.446 114.165C102.573 114.165 101.087 112.602 101.087 110.631V101.386C101.087 99.415 102.637 97.8516 104.446 97.8516Z" fill="#1B1B1B"/>
<path d="M113.997 77.0477C123.214 77.0477 132.137 74.3671 139.812 69.2998L133.643 59.9362C127.804 63.7918 121.011 65.8114 113.997 65.8114C106.396 65.8114 99.1258 63.4613 92.9936 58.9814L86.384 68.0513C94.4624 73.9632 104.01 77.0477 113.997 77.0477Z" fill="#1B1B1B"/>
<path fill-rule="evenodd" clip-rule="evenodd" d="M62.8062 39.0567L57.237 52.4926L75.2006 50.101L66.3167 38.5653C67.534 37.6947 68.1533 36.1297 67.7657 34.5934C67.2577 32.5803 65.201 31.3524 63.1879 31.8604C62.4099 32.0611 61.7162 32.5046 61.2074 33.1265C60.6987 33.7484 60.4015 34.5163 60.3589 35.3186C60.3163 36.121 60.5307 36.916 60.9708 37.5882C61.4109 38.2604 62.0538 38.7748 62.8062 39.0567ZM29.1011 47.9562L26.754 62.3258L43.7017 55.908L32.4245 46.7231C33.2109 45.8203 33.5659 44.5474 33.2518 43.3024C32.7438 41.2894 30.6871 40.0615 28.6741 40.5695C26.661 41.0774 25.4331 43.1341 25.9411 45.1472C26.3287 46.6835 27.6165 47.7673 29.1011 47.9562Z" fill="#EF755A"/>
<path d="M10.4268 51.7665C9.91879 49.7534 11.1466 47.6968 13.1597 47.1888C15.1728 46.6808 17.2295 47.9087 17.7375 49.9218C17.9246 50.6634 17.8667 51.4388 17.6362 52.0886C18.2189 51.9416 18.8351 51.9269 19.4849 52.1574L31.5924 56.2586C33.1904 56.7852 34.9113 56.0128 35.5572 54.4411L43.1689 35.8129C43.2196 35.6656 43.2882 35.5253 43.3734 35.395C42.3643 35.1308 41.4717 34.5384 40.8361 33.7113C40.2006 32.8841 39.8582 31.869 39.8628 30.8259C39.8675 29.7828 40.2189 28.7708 40.8618 27.9493C41.5047 27.1278 42.4025 26.5435 43.414 26.2882C44.4254 26.033 45.493 26.1214 46.4487 26.5395C47.4044 26.9576 48.1939 27.6817 48.6929 28.5978C49.1919 29.5138 49.3721 30.5698 49.2051 31.5995C49.0381 32.6292 48.5334 33.5741 47.7704 34.2855C47.9031 34.3647 48.0358 34.4439 48.1487 34.5563L63.6875 47.3428C64.9753 48.4266 66.8831 48.2833 68.0399 47.0616L76.752 37.7069C77.2147 37.1957 77.764 36.9162 78.3468 36.7692C77.8024 36.2867 77.4167 35.6515 77.2296 34.9098C76.7216 32.8967 77.9494 30.8401 79.9625 30.3321C81.9756 29.8241 84.0323 31.052 84.5403 33.0651C85.0482 35.0782 83.8204 37.1348 81.8073 37.6428C81.6748 37.6762 81.5424 37.7096 81.4298 37.7099C81.9278 38.2322 82.2407 38.914 82.2757 39.7222L82.3102 66.5122C82.4286 69.1025 80.7044 71.4253 78.188 72.0603L35.6482 82.7946C33.1319 83.4295 30.512 82.2029 29.3872 79.8665L15.5788 56.5522C15.226 55.8242 15.1978 55.0424 15.3686 54.3794C15.2362 54.4129 15.1104 54.4728 15.0045 54.4995C12.9914 55.0075 10.9347 53.7796 10.4268 51.7665Z" fill="#FFB8A8"/>
</g>
<defs>
<clipPath id="clip0_2157_4811">
<rect width="164" height="164" rx="82" transform="matrix(-1 0 0 1 164 0)" fill="white"/>
</clipPath>
</defs>
</svg>
