<svg width="164" height="164" viewBox="0 0 164 164" fill="none" xmlns="http://www.w3.org/2000/svg">
<g clip-path="url(#clip0_2148_422)">
<rect width="164" height="164" rx="82" transform="matrix(-1 0 0 1 164 0)" fill="#5D7285"/>
<path d="M-26.2158 62.6074H129.254C132.117 62.6074 134.48 64.9706 134.48 67.8791V219.259C134.48 222.168 132.117 224.485 129.254 224.485H87.5804V317.604H91.307C95.2153 317.604 98.3965 320.785 98.3965 324.693C98.3965 328.602 95.2153 331.783 91.307 331.783H86.8533H64.6757H51.4965H33.409H14.0491C12.6858 331.783 11.5951 330.692 11.5951 329.329V224.485H-26.2613C-29.1698 224.485 -31.4875 222.122 -31.4875 219.259V67.8791C-31.4421 64.9706 -29.1244 62.6074 -26.2158 62.6074Z" fill="#D7E13E"/>
<path d="M86.8529 97.9743C100.032 97.9743 112.802 94.1569 123.755 86.931L114.938 73.5245C106.622 79.0234 96.8964 81.932 86.8529 81.932C75.9914 81.932 65.5843 78.569 56.8132 72.1611L47.3605 85.1132C58.9037 93.5207 72.5375 97.9743 86.8529 97.9743Z" fill="#1B1B1B"/>
<path d="M94.034 114.607C96.17 114.607 97.9424 116.334 97.9424 118.516V128.65C97.9424 130.786 96.2154 132.559 94.034 132.559C91.8981 132.559 90.1257 130.832 90.1257 128.65V118.516C90.1257 116.38 91.8526 114.607 94.034 114.607Z" fill="#1B1B1B"/>
<path d="M77.1288 114.607C79.2647 114.607 81.0371 116.334 81.0371 118.516V128.65C81.0371 130.786 79.3102 132.559 77.1288 132.559C74.9928 132.559 73.2204 130.832 73.2204 128.65V118.516C73.2204 116.38 74.9928 114.607 77.1288 114.607Z" fill="#1B1B1B"/>
</g>
<defs>
<clipPath id="clip0_2148_422">
<rect width="164" height="164" rx="82" transform="matrix(-1 0 0 1 164 0)" fill="white"/>
</clipPath>
</defs>
</svg>
