<svg xmlns="http://www.w3.org/2000/svg" width="474" height="141" fill="none" viewBox="0 0 474 141">
  <path fill="#fff" d="M14 96c1.9-.5 4.1-1.8 6.2-3.9-2.1-2.1-4.3-3.4-6.2-3.9-.5-1.9-1.8-4.1-3.9-6.2-2.1 2.1-3.4 4.3-3.9 6.2-1.9.5-4.1 1.8-6.2 3.9 2.1 2.1 4.3 3.4 6.2 3.9.5 1.9 1.8 4.1 3.9 6.2 2.1-2.1 3.3-4.3 3.9-6.2Zm106.4-78.6c.9-.2 1.8-.8 2.8-1.8-1-1-1.9-1.5-2.8-1.8-.2-.9-.8-1.8-1.8-2.8-1 1-1.5 1.9-1.8 2.8-.9.2-1.8.8-2.8 1.8 1 1 1.9 1.5 2.8 1.8.2.9.8 1.8 1.8 2.8 1-1 1.6-2 1.8-2.8Z"/>
  <path fill="#B0B700" d="M338.4 124.4c.9-.2 1.8-.8 2.8-1.8-1-1-1.9-1.5-2.8-1.8-.2-.9-.8-1.8-1.8-2.8-1 1-1.5 1.9-1.8 2.8-.9.2-1.8.8-2.8 1.8 1 1 1.9 1.5 2.8 1.8.2.9.8 1.8 1.8 2.8 1-1 1.6-2 1.8-2.8Z"/>
  <path fill="#1C7EF1" d="M90.4 112.4c.9-.2 1.8-.8 2.8-1.8-1-1-1.9-1.5-2.8-1.8-.2-.9-.8-1.8-1.8-2.8-1 1-1.5 1.9-1.8 2.8-.9.2-1.8.8-2.8 1.8 1 1 1.9 1.5 2.8 1.8.2.9.8 1.8 1.8 2.8 1-1 1.5-1.9 1.8-2.8Z"/>
  <path fill="#fff" d="M272.469 14.469C274.203 14 276.125 12.922 278 11c-1.922-1.922-3.797-3-5.531-3.469C272 5.797 270.922 3.875 269 2c-1.922 1.922-3 3.797-3.469 5.531C263.797 8 261.875 9.078 260 11c1.922 1.922 3.797 3 5.531 3.469C266 16.203 267.078 18.125 269 20c1.922-1.875 3-3.797 3.469-5.531ZM469.6 34.6c3.7-1 7.8-3.3 11.8-7.4-4.1-4.1-8.1-6.4-11.8-7.4-1-3.7-3.3-7.8-7.4-11.8-4.1 4.1-6.4 8.1-7.4 11.8-3.7 1-7.8 3.3-11.8 7.4 4.1 4.1 8.1 6.4 11.8 7.4 1 3.7 3.3 7.8 7.4 11.8 4.1-4 6.4-8.1 7.4-11.8Z"/>
  <path fill="#B0B700" d="M248.547 98.547C250.57 98 252.813 96.742 255 94.5c-2.242-2.242-4.43-3.5-6.453-4.047C248 88.43 246.742 86.187 244.5 84c-2.242 2.242-3.5 4.43-4.047 6.453-2.023.547-4.266 1.805-6.453 4.047 2.242 2.242 4.43 3.5 6.453 4.047.547 2.023 1.805 4.265 4.047 6.453 2.242-2.188 3.5-4.43 4.047-6.453Z"/>
  <path fill="#1B1B1B" d="M80.875 64.875c0 4.5-4.5 4.5-4.5 0-4.5 0-4.5-4.5 0-4.5 0-4.5 4.5-4.5 4.5 0 4.5.1 4.5 4.5 0 4.5Zm359 61c0 4.5-4.5 4.5-4.5 0-4.5 0-4.5-4.5 0-4.5 0-4.5 4.5-4.5 4.5 0 4.5.1 4.5 4.5 0 4.5Z"/>
  <path fill="#1C7EF1" d="M371.915 4.025c3.81 3.799 1.88 5.723-1.929 1.875-3.809 3.799-5.739 1.874-1.88-1.925-3.809-3.799-1.88-5.723 1.93-1.875 3.809-3.75 5.689-1.825 1.879 1.925ZM213.957 129.157c7.7 7.7 3.8 11.6-3.9 3.8-7.7 7.7-11.6 3.8-3.8-3.9-7.7-7.7-3.8-11.6 3.9-3.8 7.7-7.6 11.5-3.7 3.8 3.9Zm101-58c7.7 7.7 3.8 11.6-3.9 3.8-7.7 7.7-11.6 3.8-3.8-3.9-7.7-7.7-3.8-11.6 3.9-3.8 7.7-7.6 11.5-3.8 3.8 3.9Z"/>
</svg>
