<svg xmlns="http://www.w3.org/2000/svg" width="334" height="235" fill="none" viewBox="0 0 334 235">
  <g clip-path="url(#a)">
    <path fill="var(--black-light)" d="M149.5 235c48.601 0 88-39.399 88-88s-39.399-88-88-88-88 39.399-88 88 39.399 88 88 88Z"/>
    <mask id="b" width="415" height="278" x="-12" y="-43" maskUnits="userSpaceOnUse" style="mask-type:alpha">
      <path fill="#D9D9D9" d="M252 137.5c4.476 12.81 4.801 25.501-3.5 39-10.988 17.871-30.988 33.445-50.5 44-16 10.5-32.91 14.5-48.5 14.5-48.601 0-88-39.399-88-88 0-11.27-45.8 18.77-62.5-13C-19.72 98.386-9.174.882-1-7.5c15.983-16.385 62.803-32 87.5-32 29.811 0 299.582-12.177 315.5 10.5 5.232 7.453-14.904 124.032-30.5 160-14.313 33.011-119.5-2.493-119.5 6.5Z"/>
    </mask>
    <g mask="url(#b)">
      <path fill="#B6D7FF" d="M13.77.044h13.772c7.616 0 13.77 6.155 13.77 13.771 0 7.616-6.154 13.77-13.77 13.77h-.045V85.68a7.031 7.031 0 0 0 7.04 7.04 7.029 7.029 0 0 0 7.041-7.04v-2.39c0-9.477 7.306-17.801 16.826-18.067 9.83-.31 17.89 7.572 17.89 17.358v3.144a7.031 7.031 0 0 0 7.04 7.04h14.39V50.523a5.14 5.14 0 0 1 5.137-5.137H232.51a5.143 5.143 0 0 1 5.137 5.137v42.242h12.796a7.03 7.03 0 0 0 7.041-7.04V82.58c0-9.742 8.058-17.623 17.888-17.358 9.476.266 16.827 8.546 16.827 18.066v2.391a7.042 7.042 0 0 0 2.059 4.981 7.036 7.036 0 0 0 4.981 2.059 7.033 7.033 0 0 0 6.507-4.344 7.044 7.044 0 0 0 .533-2.696V27.542h-.044a13.755 13.755 0 0 1-13.771-13.771 13.743 13.743 0 0 1 4.03-9.741A13.75 13.75 0 0 1 306.235 0h13.727c7.616.044 13.77 6.2 13.77 13.77v95.821c0 7.572-6.154 13.727-13.77 13.727h-82.315v53.356a5.14 5.14 0 0 1-5.137 5.136h-34.449v135.849h3.188c3.321 0 5.978 2.701 5.978 5.978 0 3.321-2.701 5.977-5.978 5.977h-64.78a2.386 2.386 0 0 1-2.213-1.474 2.404 2.404 0 0 1-.179-.917V181.81h-31.216a5.14 5.14 0 0 1-5.137-5.136v-53.356H13.771a13.761 13.761 0 0 1-9.742-4.029A13.753 13.753 0 0 1 0 109.547V13.771C0 6.199 6.154.044 13.77.044Z"/>
      <path fill="#1B1B1B" d="M191.903 81.851c-1.626 0-2.904-1.313-2.904-2.985v-7.88c0-1.672 1.278-2.986 2.904-2.986 1.627 0 2.905 1.314 2.905 2.985v7.88c0 1.673-1.278 2.986-2.905 2.986Zm15.188 0c-1.624 0-2.901-1.313-2.901-2.985v-7.88c0-1.672 1.277-2.986 2.901-2.986 1.625 0 2.901 1.314 2.901 2.985v7.88c.116 1.673-1.276 2.986-2.901 2.986ZM171.27 318.5h-4.073V181.589h1.771v135.184h2.302c3.809 0 6.864 3.1 6.864 6.864 0 3.763-3.1 6.863-6.864 6.863h-.221v-1.771h.221a5.092 5.092 0 0 0 5.093-5.092c0-2.834-2.259-5.137-5.093-5.137Z"/>
      <path fill="var(--black-light)" d="M197.708 54.11a56.318 56.318 0 0 0 31.128-9.344l-7.439-11.29c-7.04 4.65-15.232 7.084-23.689 7.084-9.166 0-17.933-2.834-25.328-8.236l-7.97 10.937c9.741 7.13 21.254 10.85 33.298 10.85Z"/>
    </g>
  </g>
  <defs>
    <clipPath id="a">
      <path fill="#fff" d="M0 0h334v235H0z"/>
    </clipPath>
  </defs>
</svg>
