<svg width="334" height="235" viewBox="0 0 334 235" fill="none" xmlns="http://www.w3.org/2000/svg">
<circle cx="149.5" cy="147" r="88" fill="white"/>
<mask id="mask0_2001_1404" style="mask-type:alpha" maskUnits="userSpaceOnUse" x="-12" y="-43" width="415" height="278">
<path d="M252 137.5C256.475 150.309 256.8 163 248.5 176.5C237.511 194.371 217.511 209.944 198 220.5C182 231 165.089 235 149.499 235C100.898 235 61.4995 195.601 61.4995 147C61.4995 135.73 15.6986 165.77 -1.00026 134C-19.7204 98.3851 -9.17621 0.881763 -1.00031 -7.50027C14.9819 -23.8854 61.8024 -39.5 86.4994 -39.5C116.31 -39.5 386.082 -51.6778 402 -29.0006C407.231 -21.547 387.095 95.0317 371.5 131C357.186 164.011 252 128.507 252 137.5Z" fill="#D9D9D9"/>
</mask>
<g mask="url(#mask0_2001_1404)">
<path d="M13.7709 0.0442819H27.5417C35.1577 0.0442819 41.3126 6.19909 41.3126 13.8151C41.3126 21.4311 35.1577 27.5859 27.5417 27.5859H27.4975V85.6803C27.4975 89.5768 30.6413 92.7207 34.5378 92.7207C38.4344 92.7207 41.5782 89.5768 41.5782 85.6803V83.2892C41.5782 73.8134 48.8843 65.4889 58.4044 65.2233C68.2343 64.9133 76.2931 72.795 76.2931 82.5807V85.7245C76.2931 89.6211 79.437 92.7649 83.3335 92.7649H97.7243V50.5226C97.7243 47.6887 100.027 45.3862 102.861 45.3862H232.51C235.344 45.3862 237.647 47.6887 237.647 50.5226V92.7649H250.443C254.34 92.7649 257.484 89.6211 257.484 85.7245V82.5807C257.484 72.8393 265.542 64.9576 275.372 65.2233C284.848 65.4889 292.199 73.7692 292.199 83.2892V85.6803C292.199 89.5768 295.342 92.7207 299.239 92.7207C303.135 92.7207 306.279 89.5768 306.279 85.6803V27.5417H306.235C298.619 27.5417 292.464 21.3869 292.464 13.7708C292.464 6.15481 298.619 0 306.235 0H319.962C327.578 0.0442792 333.732 6.19909 333.732 13.7708V109.591C333.732 117.163 327.578 123.318 319.962 123.318H237.647V176.674C237.647 179.508 235.344 181.81 232.51 181.81H198.061V317.659H201.249C204.57 317.659 207.227 320.36 207.227 323.637C207.227 326.958 204.526 329.614 201.249 329.614H197.441H178.844H167.42H151.125H136.469C135.14 329.614 134.077 328.552 134.077 327.223V181.81H102.861C100.027 181.81 97.7243 179.508 97.7243 176.674V123.318H13.7709C6.15488 123.318 6.10352e-05 117.163 6.10352e-05 109.547V13.7708C6.10352e-05 6.19909 6.15488 0.0442819 13.7709 0.0442819Z" fill="#B6D7FF"/>
<path d="M191.904 81.8516C190.278 81.8516 189 80.5381 189 78.8664V70.9856C189 69.314 190.278 68.0005 191.904 68.0005C193.531 68.0005 194.809 69.314 194.809 70.9856V78.8664C194.809 80.5381 193.531 81.8516 191.904 81.8516Z" fill="#1B1B1B"/>
<path d="M207.092 81.8516C205.468 81.8516 204.191 80.5381 204.191 78.8664V70.9856C204.191 69.314 205.468 68.0005 207.092 68.0005C208.717 68.0005 209.993 69.314 209.993 70.9856V78.8664C210.109 80.5381 208.717 81.8516 207.092 81.8516Z" fill="#1B1B1B"/>
<path d="M171.271 318.499H167.198V181.588H168.969V316.772H171.271C175.08 316.772 178.135 319.872 178.135 323.636C178.135 327.399 175.035 330.499 171.271 330.499H171.05V328.728H171.271C174.105 328.728 176.364 326.425 176.364 323.636C176.364 320.802 174.105 318.499 171.271 318.499Z" fill="#1B1B1B"/>
<path d="M197.708 54.1096C208.822 54.1096 219.582 50.8772 228.836 44.7667L221.397 33.4755C214.357 38.1248 206.165 40.5602 197.708 40.5602C188.542 40.5602 179.775 37.7263 172.38 32.3242L164.41 43.2612C174.151 50.3901 185.664 54.1096 197.708 54.1096Z" fill="#2B3238"/>
</g>
</svg>
