<svg xmlns="http://www.w3.org/2000/svg" width="485" height="511" fill="none" viewBox="0 0 485 511">
  <path fill="#B6D7FF" d="M438.272 107.064H220.271c-9.367 0-17.031 7.631-17.031 16.957v163.911H67.415c-28.101 0-50.952 22.75-50.952 50.728v147.944h-5.677C4.826 486.604 0 491.409 0 497.343c0 5.935 4.825 10.739 10.786 10.739h113.258c4.4 0 7.948-3.532 7.948-7.913v-42.391c0-.423 0-.706-.142-1.13v-89.586c0-8.478 6.955-15.402 15.471-15.402h159.952c0 .706-.142 1.554-.142 2.261v38.268h-8.516c-8.941 0-16.038 7.206-16.038 15.967 0 8.902 7.239 15.967 16.038 15.967h8.516v.424c0 17.663 14.334 32.076 32.217 32.076 17.741 0 32.218-14.272 32.218-32.076v-70.768c0-.706 0-1.554-.142-2.26h66.989c9.368 0 17.032-7.631 17.032-16.957v-210.4c0-9.467-7.664-17.098-17.173-17.098Z"/>
  <path fill="#1B1B1B" d="M216.028 194.713c-2.691 0-4.924 2.166-4.924 4.903v12.771a4.914 4.914 0 0 0 4.924 4.904c2.692 0 4.925-2.167 4.925-4.904v-12.771c0-2.737-2.176-4.903-4.925-4.903Zm41.323 0c-2.692 0-4.925 2.166-4.925 4.903v12.771a4.914 4.914 0 0 0 4.925 4.904c2.691 0 4.925-2.167 4.925-4.904v-12.771c0-2.737-2.177-4.903-4.925-4.903Zm.643-9.115c-15.079-4.067-28.495-12.422-38.806-24.076L233.49 149.1a59.868 59.868 0 0 0 29.493 18.249c12.418 3.408 25.39 2.748 37.476-1.759l6.763 17.7c-15.855 5.936-32.93 6.816-49.228 2.308Zm-136.22 95.41c-20.295 0-35.765 5.511-46.126 16.532-14.477 15.402-13.483 35.326-13.341 36.033v150.628H58.9c-7.238 0-13.199 5.935-13.199 13.142 0 7.206 5.961 13.141 13.2 13.141h.851v-4.663H58.9c-4.683 0-8.373-3.815-8.373-8.337s3.832-8.337 8.373-8.337h8.09V333.714c0-.142-.993-18.935 12.064-32.783 9.51-10.032 23.844-14.978 42.72-14.978h.852v-4.663h-.852v-.282Z"/>
  <path fill="#B0B700" d="M346.948 206.338H188.982c-5.677.282-10.218 4.804-10.218 10.598 0 5.793 4.825 10.597 10.644 10.597h27.676c5.819 0 10.645-4.804 10.645-10.597 0-2.12-.568-4.098-1.704-5.794h12.206c-1.135 1.696-1.703 3.674-1.703 5.794 0 5.793 4.826 10.597 10.645 10.597h27.675c5.819 0 10.645-4.804 10.645-10.597 0-2.12-.568-4.098-1.703-5.794h63.158c11.638 0 21.147 9.467 21.147 21.054v.566h4.825v-.566c.142-14.13-11.496-25.858-25.972-25.858Z"/>
  <path fill="#B6D7FF" d="M182.075 245.322c4.312-14.373 20.662-16.768 28.297-16.169h18.416c0 5.39-2.066 18.595-10.331 28.297-10.33 12.127-41.771 5.839-36.382-12.128Z"/>
  <path stroke="#1B1B1B" stroke-width="5" d="M194.934 265.471c7.486 1.15 24.434.69 32.339-10.35"/>
  <path fill="#1B1B1B" d="M167.41 122.971c14.502-47.828 104.599-55.81 147.835-53.823l6.853 42.571c-57.605 23.679-169.19 59.081-154.688 11.252Z"/>
  <path fill="#1B1B1B" d="M344.952 162.145c-41.323-28.746-42.371-72.464-37.729-90.73 69.619-28.746 136.094-3.144 163.493 32.789 21.918 28.746-1.647 79.95-16.17 101.958-19.314-2.695-68.272-15.271-109.594-44.017Z"/>
  <rect width="8.085" height="81.141" x="367.41" y="16.9" fill="#B0B700" rx="4.042" transform="rotate(-25.073 367.41 16.9)"/>
  <circle cx="371.003" cy="13.475" r="8.983" fill="#B0B700"/>
  <path fill="#1B1B1B" d="M367.835 39.699c-21.919 14.013-9.133 33.986 0 42.22 12.576 7.636 43.838 22.817 68.272 22.458 30.542-.449 32.339-45.814 8.085-64.678-24.255-18.865-48.959-17.517-76.357 0Z"/>
  <rect width="8.085" height="81.141" x="469.025" y="8.418" fill="#B0B700" rx="4.042" transform="rotate(49.926 469.025 8.418)"/>
  <circle cx="473.265" cy="11.002" r="8.983" fill="#B0B700" transform="rotate(75 473.265 11.002)"/>
  <rect width="34.136" height="8.983" x="185.951" y="213.799" fill="#B6D7FF" rx="4.492"/>
  <rect width="35.932" height="8.983" x="242.545" y="213.799" fill="#B6D7FF" rx="4.492"/>
  <path fill="#1B1B1B" d="M428.945 67.373c-6.109-15.092-18.116-16.17-23.356-14.822l-8.984 23.356c13.325 3.444 38.448 6.558 32.34-8.534Z"/>
</svg>
