<svg xmlns="http://www.w3.org/2000/svg" width="551" height="551" fill="none" viewBox="0 0 551 551">
  <path fill="#B6D7FF" d="M534.887 26H244.041c-8.862 0-16.113 7.238-16.113 16.084v200.722H112.853V221.36c0-7.506-6.177-13.671-13.697-13.671S85.46 213.854 85.46 221.36v21.446H74.45c-19.605 0-35.45 15.816-35.45 35.385 0 19.568 15.845 35.384 35.45 35.384h153.746v11.052c0 8.847 7.251 16.084 16.114 16.084h71.973v180.946h-7.251c-7.52 0-13.697 6.166-13.697 13.671 0 7.506 6.177 13.672 13.697 13.672h147.437c4.028 0 7.519-3.217 7.519-7.506V340.443h70.899c8.862 0 16.113-7.237 16.113-16.084V41.816C551 32.97 543.749 26 534.887 26Z"/>
  <path fill="#1B1B1B" d="M277.5 101c-3.64 0-6.5 2.94-6.5 6.681v17.638c0 3.741 2.86 6.681 6.5 6.681s6.5-2.94 6.5-6.681v-17.638c0-3.741-2.86-6.681-6.5-6.681Zm33.992 0c-3.635 0-6.492 2.94-6.492 6.681v17.638c0 3.741 2.857 6.681 6.492 6.681 3.636 0 6.493-2.94 6.493-6.681v-17.638c.26-3.741-2.857-6.681-6.493-6.681Zm-45.463-35.325C242.626 55.178 222.719 38.49 209 16.957L235.363 0c10.491 16.419 25.555 29.338 43.579 37.144 19.368 8.613 40.619 10.767 61.333 6.19L347 74.02c-27.708 5.921-55.684 2.96-80.971-8.344Z"/>
  <path fill="#B6D7FF" d="M144 255.385v3.23c0 7-5.652 12.385-12.381 12.385H12.381C5.383 271 0 265.346 0 258.615v-3.23c0-7 5.652-12.385 12.381-12.385H131.62c6.729 0 12.381 5.654 12.381 12.385Z"/>
  <path fill="#1B1B1B" d="M379.691 523.42H389V340h-3.989v179.404h-5.32c-8.776 0-15.691 6.961-15.691 15.798 0 8.836 6.915 15.798 15.691 15.798h.532v-4.017h-.532c-6.383 0-11.702-5.355-11.702-11.781 0-6.427 5.319-11.782 11.702-11.782ZM228 243h-4v72h4v-72Zm-147.92-4H79v4.017h.81c12.146 0 22.942 7.498 27.261 18.745 2.699 7.23 2.429 14.995-.81 21.958-3.239 6.962-8.907 12.318-16.195 15.263l-.54.268 1.35 3.749.54-.268c8.367-3.213 14.845-9.372 18.624-17.138 3.508-8.033 4.048-16.87.809-25.171C106.261 247.569 93.845 239 80.079 239Z"/>
</svg>
