<svg xmlns="http://www.w3.org/2000/svg" width="1320" height="597" fill="none" viewBox="0 0 1320 597">
  <path fill="#F1F5F9" fill-rule="evenodd" d="M1320 26c0-14.36-11.64-26-26-26H698c-14.359 0-26 11.64-26 26v276c0 14.359-11.641 26-26 26H26c-14.36 0-26 11.641-26 26v217c0 14.359 11.64 26 26 26h815c14.359 0 26-11.641 26-26V411c0-14.359 11.641-26 26-26h401c14.36 0 26-11.641 26-26V26Z" clip-rule="evenodd"/>
  <path fill="#B6D7FF" d="m192.185 565.008-48.81-159.879c-3.047-9.98 1.997-20.641 11.647-24.614 11.071-4.558 23.658 1.444 27.085 12.916l40.918 136.943a24 24 0 0 0 22.995 17.129h183.732c9.526 0 17.248 7.722 17.248 17.249 0 9.526-7.722 17.248-17.248 17.248H215.14a24.002 24.002 0 0 1-22.955-16.992Z"/>
  <circle cx="215.5" cy="560.5" r="22.5" fill="#1B1B1B" stroke="#B6D7FF" stroke-width="20"/>
  <path fill="#B6D7FF" d="M1174.27 141.064H956.271c-9.367 0-17.031 7.631-17.031 16.957v163.911H803.415c-28.101 0-50.951 22.75-50.951 50.728v147.944h-5.678c-5.961 0-10.786 4.805-10.786 10.739 0 5.935 4.825 10.739 10.786 10.739h113.258c4.4 0 7.948-3.532 7.948-7.913v-42.391c0-.423 0-.706-.142-1.13v-89.586c0-8.478 6.955-15.402 15.471-15.402h159.949c0 .706-.14 1.554-.14 2.261v38.268h-8.51c-8.95 0-16.04 7.206-16.04 15.967 0 8.902 7.24 15.967 16.04 15.967h8.51v.424c0 17.663 14.34 32.076 32.22 32.076 17.74 0 32.22-14.272 32.22-32.076v-70.768c0-.706 0-1.554-.15-2.26h66.99c9.37 0 17.03-7.631 17.03-16.957v-210.4c0-9.467-7.66-17.098-17.17-17.098Z"/>
  <path fill="#1B1B1B" d="M952.028 228.713c-2.691 0-4.924 2.166-4.924 4.903v12.771a4.914 4.914 0 0 0 4.924 4.904c2.692 0 4.925-2.167 4.925-4.904v-12.771c0-2.737-2.176-4.903-4.925-4.903Zm41.323 0c-2.692 0-4.925 2.166-4.925 4.903v12.771a4.914 4.914 0 0 0 4.925 4.904c2.691 0 4.925-2.167 4.925-4.904v-12.771c0-2.737-2.177-4.903-4.925-4.903Zm.643-9.115c-15.079-4.067-28.495-12.422-38.806-24.076L969.49 183.1a59.868 59.868 0 0 0 29.493 18.249c12.417 3.408 25.387 2.748 37.477-1.759l6.76 17.7c-15.85 5.936-32.93 6.816-49.226 2.308Zm-136.22 95.41c-20.295 0-35.765 5.511-46.126 16.532-14.477 15.402-13.483 35.326-13.341 36.033v150.628H794.9c-7.238 0-13.199 5.935-13.199 13.142 0 7.206 5.961 13.141 13.199 13.141h.852v-4.663h-.852c-4.683 0-8.373-3.815-8.373-8.337s3.832-8.337 8.373-8.337h8.09V367.714c0-.142-.993-18.935 12.064-32.783 9.509-10.032 23.844-14.978 42.72-14.978h.852v-4.663h-.852v-.282Z"/>
  <path fill="#B0B700" d="M1082.95 240.338H924.982c-5.677.282-10.218 4.804-10.218 10.598 0 5.793 4.825 10.597 10.644 10.597h27.676c5.819 0 10.645-4.804 10.645-10.597 0-2.12-.568-4.098-1.704-5.794h12.206c-1.135 1.696-1.703 3.674-1.703 5.794 0 5.793 4.826 10.597 10.645 10.597h27.677c5.82 0 10.64-4.804 10.64-10.597 0-2.12-.56-4.098-1.7-5.794h63.16c11.64 0 21.14 9.467 21.14 21.054v.566h4.83v-.566c.14-14.13-11.5-25.858-25.97-25.858Z"/>
  <path fill="#B6D7FF" d="M918.075 279.322c4.312-14.373 20.662-16.768 28.297-16.169h18.416c0 5.39-2.066 18.595-10.331 28.297-10.33 12.127-41.771 5.839-36.382-12.128Z"/>
  <path stroke="#1B1B1B" stroke-width="5" d="M930.934 299.471c7.486 1.15 24.434.69 32.339-10.35"/>
  <path fill="#1B1B1B" d="M903.41 156.971c14.502-47.828 104.6-55.811 147.83-53.823l6.86 42.571c-57.61 23.679-169.192 59.081-154.69 11.252Z"/>
  <path fill="#1B1B1B" d="M1080.95 196.145c-41.32-28.746-42.37-72.464-37.73-90.73 69.62-28.746 136.1-3.144 163.5 32.789 21.91 28.746-1.65 79.95-16.17 101.958-19.32-2.695-68.28-15.271-109.6-44.017Z"/>
  <rect width="8.085" height="81.141" x="1103.41" y="50.9" fill="#B0B700" rx="4.042" transform="rotate(-25.073 1103.41 50.9)"/>
  <circle cx="1107" cy="47.475" r="8.983" fill="#B0B700"/>
  <path fill="#1B1B1B" d="M1103.83 73.699c-21.91 14.013-9.13 33.986 0 42.22 12.58 7.636 43.84 22.817 68.28 22.458 30.54-.449 32.34-45.814 8.08-64.678-24.25-18.865-48.96-17.517-76.36 0Z"/>
  <rect width="8.085" height="81.141" x="1205.03" y="42.418" fill="#B0B700" rx="4.042" transform="rotate(49.926 1205.03 42.418)"/>
  <circle cx="1209.27" cy="45.002" r="8.983" fill="#B0B700" transform="rotate(75 1209.27 45.002)"/>
  <rect width="34.136" height="8.983" x="921.951" y="247.799" fill="#B6D7FF" rx="4.492"/>
  <rect width="35.932" height="8.983" x="978.545" y="247.799" fill="#B6D7FF" rx="4.492"/>
  <path fill="#1B1B1B" d="M1164.94 101.373c-6.1-15.092-18.11-16.17-23.35-14.822l-8.98 23.356c13.32 3.444 38.44 6.558 32.33-8.534Z"/>
</svg>
