<svg xmlns="http://www.w3.org/2000/svg" width="295" height="190" fill="none" viewBox="0 0 295 190">
  <path fill="#F1F5F9" fill-rule="evenodd" d="M288 8a8 8 0 0 0-8-8H164a8 8 0 0 0-8 8v71a8 8 0 0 1-8 8H8a8 8 0 0 0-8 8v87a8 8 0 0 0 8 8h202a8 8 0 0 0 8-8v-28a8 8 0 0 1 8-8h54a8 8 0 0 0 8-8V8Z" clip-rule="evenodd"/>
  <path fill="#B6D7FF" d="M284.623 93.36h-47.564c-2.044 0-3.716 1.664-3.716 3.699v35.762h-29.634c-6.131 0-11.117 4.964-11.117 11.068v32.279h-1.239a2.347 2.347 0 0 0-2.353 2.343 2.347 2.347 0 0 0 2.353 2.343h24.711c.96 0 1.734-.771 1.734-1.726v-9.249c0-.093 0-.154-.031-.247v-19.546c0-1.85 1.518-3.36 3.376-3.36h34.898c0 .154-.031.339-.031.493v28.349h-1.858a3.489 3.489 0 0 0-3.499 3.484 3.488 3.488 0 0 0 3.499 3.484h1.858v.092c0 3.854 3.128 6.999 7.03 6.999 3.87 0 7.029-3.114 7.029-6.999v-35.44c0-.154 0-.339-.031-.493h14.616c2.044 0 3.716-1.665 3.716-3.7V97.09a3.732 3.732 0 0 0-3.747-3.73Z"/>
  <path fill="#1B1B1B" d="M236.133 112.482c-.587 0-1.074.473-1.074 1.07v2.787c0 .584.474 1.069 1.074 1.069.587 0 1.075-.472 1.075-1.069v-2.787c0-.597-.475-1.07-1.075-1.07Zm9.016 0c-.587 0-1.075.473-1.075 1.07v2.787c0 .584.475 1.069 1.075 1.069.587 0 1.074-.472 1.074-1.069v-2.787c0-.597-.475-1.07-1.074-1.07Zm.142-1.987a17.305 17.305 0 0 1-8.467-5.253l3.121-2.711a13.061 13.061 0 0 0 6.435 3.982c2.709.743 5.539.6 8.176-.384l1.476 3.862c-3.46 1.295-7.185 1.487-10.741.504Zm-29.723 21.816c-4.428 0-7.803 1.202-10.063 3.607-3.159 3.36-2.942 7.707-2.911 7.861v31.865h-.743c-1.58 0-2.88 1.295-2.88 2.867s1.3 2.867 2.88 2.867h.185v-1.017h-.185a1.827 1.827 0 0 1-1.827-1.819c0-.987.836-1.819 1.827-1.819h1.765V143.81c0-.031-.217-4.131 2.632-7.152 2.074-2.189 5.202-3.268 9.32-3.268h.186v-1.018h-.186v-.061Z"/>
  <path fill="#B0B700" d="M264.699 115.02h-34.466c-1.238.061-2.229 1.048-2.229 2.312 0 1.264 1.053 2.312 2.322 2.312h6.039c1.269 0 2.322-1.048 2.322-2.312 0-.463-.124-.894-.371-1.264h2.663a2.24 2.24 0 0 0-.372 1.264c0 1.264 1.053 2.312 2.322 2.312h6.039c1.269 0 2.322-1.048 2.322-2.312 0-.463-.124-.894-.371-1.264h13.78c2.539 0 4.613 2.065 4.613 4.593v.124h1.053v-.124c.031-3.083-2.508-5.641-5.666-5.641Z"/>
  <path fill="#B6D7FF" d="M228.726 123.524c.941-3.136 4.508-3.658 6.174-3.528h4.018c0 1.176-.451 4.058-2.254 6.174-2.254 2.646-9.114 1.274-7.938-2.646Z"/>
  <path stroke="#1B1B1B" stroke-width="1.091" d="M231.531 127.92c1.634.251 5.331.151 7.056-2.258"/>
  <path fill="#1B1B1B" d="M225.526 96.83c3.164-10.435 22.822-12.177 32.255-11.743l1.495 9.288c-12.568 5.166-36.914 12.89-33.75 2.455Z"/>
  <path fill="#1B1B1B" d="M264.263 105.377c-9.016-6.272-9.244-15.81-8.232-19.796 15.19-6.272 29.694-.686 35.672 7.154 4.782 6.272-.36 17.444-3.528 22.246-4.214-.588-14.896-3.332-23.912-9.604Z"/>
  <rect width="1.764" height="17.703" x="269.162" y="73.688" fill="#B0B700" rx=".882" transform="rotate(-25.073 269.162 73.688)"/>
  <circle cx="269.946" cy="72.94" r="1.96" fill="#B0B700"/>
  <path fill="#1B1B1B" d="M269.254 78.661c-4.782 3.058-1.993 7.415 0 9.212 2.744 1.666 9.564 4.978 14.896 4.9 6.663-.098 7.055-9.996 1.763-14.112-5.291-4.116-10.681-3.822-16.659 0Z"/>
  <rect width="1.764" height="17.703" x="291.332" y="71.836" fill="#B0B700" rx=".882" transform="rotate(49.926 291.332 71.836)"/>
  <circle cx="292.257" cy="72.4" r="1.96" fill="#B0B700" transform="rotate(75 292.257 72.4)"/>
  <rect width="7.448" height="1.96" x="229.57" y="116.646" fill="#B6D7FF" rx=".98"/>
  <rect width="7.84" height="1.96" x="241.918" y="116.646" fill="#B6D7FF" rx=".98"/>
  <path fill="#1B1B1B" d="M282.587 84.7c-1.333-3.293-3.952-3.528-5.096-3.234l-1.96 5.096c2.908.751 8.389 1.43 7.056-1.862Z"/>
  <g clip-path="url(#a)">
    <path fill="#B6D7FF" d="m28.431 185.294-13.038-42.669a5.237 5.237 0 0 1 3.016-6.373l.123-.051a5.236 5.236 0 0 1 7.01 3.343l10.97 36.685a5.237 5.237 0 0 0 5.017 3.736h48.953a4.518 4.518 0 0 1 0 9.035H33.44a5.236 5.236 0 0 1-5.008-3.706Z"/>
    <circle cx="34" cy="183" r="6" fill="#1B1B1B" stroke="#B6D7FF" stroke-width="4.364"/>
  </g>
  <defs>
    <clipPath id="a">
      <path fill="#fff" d="M14 134h81v55H14z"/>
    </clipPath>
  </defs>
</svg>
