<svg xmlns="http://www.w3.org/2000/svg" width="235" height="42" fill="none" viewBox="0 0 235 42">
  <g clip-path="url(#a)">
    <path fill="#fff" d="M81.652 14.536c-3.706 0-6.7 3.057-6.7 6.84 0 3.784 2.994 6.842 6.7 6.842s6.7-3.058 6.7-6.841c0-3.784-2.994-6.841-6.7-6.841Zm0 10.968c-2.246 0-4.043-1.873-4.043-4.127 0-2.293 1.834-4.128 4.043-4.128 2.246 0 4.043 1.873 4.043 4.128s-1.797 4.127-4.043 4.127ZM21.908 14.536c-3.706 0-6.701 3.057-6.701 6.84 0 3.784 2.995 6.842 6.7 6.842 3.707 0 6.701-3.058 6.701-6.841 0-3.784-3.032-6.841-6.7-6.841Zm0 10.968c-2.246 0-4.043-1.873-4.043-4.127 0-2.293 1.834-4.128 4.043-4.128 2.208 0 4.043 1.873 4.043 4.128s-1.835 4.127-4.043 4.127ZM96.55 14.536c-3.706 0-6.7 3.057-6.7 6.84 0 3.784 2.994 6.842 6.7 6.842s6.701-3.058 6.701-6.841c0-3.784-3.032-6.841-6.7-6.841Zm0 10.968c-2.246 0-4.043-1.873-4.043-4.127 0-2.293 1.835-4.128 4.043-4.128 2.246 0 4.043 1.873 4.043 4.128s-1.834 4.127-4.043 4.127Z"/>
    <path fill="#1C7EF1" d="M13.186 10.637 11.614 8.46a8.378 8.378 0 0 1-4.98 1.643 8.408 8.408 0 0 1-4.64-1.414l-1.46 2.255a10.857 10.857 0 0 0 6.1 1.873c2.397 0 4.643-.765 6.552-2.179Z"/>
    <path fill="#fff" d="M115.492 10.484v5.427a6.593 6.593 0 0 0-4.043-1.414c-3.706 0-6.701 3.058-6.701 6.841 0 3.784 2.995 6.841 6.701 6.841 3.706 0 6.7-3.057 6.7-6.84V10.483h-2.657Zm-4.043 15.02c-2.246 0-4.043-1.873-4.043-4.128 0-2.293 1.834-4.127 4.043-4.127 2.246 0 4.043 1.873 4.043 4.127 0 2.255-1.835 4.128-4.043 4.128Zm-40.578-9.593c-1.123-.879-2.508-1.414-4.042-1.414-3.706 0-6.701 3.058-6.701 6.841 0 3.745 2.957 6.765 6.588 6.841 2.246 0 4.043 1.873 4.043 4.128 0 2.293-1.834 4.127-4.043 4.127-2.246 0-4.043-1.872-4.043-4.127h-2.657c0 3.783 2.994 6.84 6.7 6.84s6.7-3.057 6.7-6.84a6.947 6.947 0 0 0-2.657-5.466 6.867 6.867 0 0 0 2.77-5.541v-6.841h-2.658v1.452Zm-4.042 9.593c-2.246 0-4.043-1.873-4.043-4.128 0-2.293 1.834-4.127 4.043-4.127 2.246 0 4.042 1.873 4.042 4.127 0 2.255-1.834 4.128-4.042 4.128Zm-26.054-4.127c0 2.293-1.834 4.127-4.043 4.127-2.246 0-4.043-1.872-4.043-4.127v-6.459h-2.658v6.803c.187 3.592 3.107 6.497 6.7 6.497 3.632 0 6.552-2.943 6.701-6.612v-6.688h-2.657v6.459Zm-29.873 0c0 2.293-1.835 4.127-4.043 4.127-2.209 0-4.043-1.872-4.043-4.127v-6.459H.158v6.803c.187 3.592 3.107 6.497 6.7 6.497 2.247 0 4.044 1.872 4.044 4.127 0 2.293-1.835 4.128-4.043 4.128-2.209 0-4.043-1.873-4.043-4.128H.158c0 3.784 2.995 6.841 6.7 6.841 3.707 0 6.702-3.057 6.702-6.84a6.922 6.922 0 0 0-2.733-5.504c1.572-1.185 2.62-3.096 2.695-5.236v-6.688h-2.658v6.459h.038Zm41.215-6.841c-1.535 0-2.92.535-4.043 1.414v-1.032h-2.658v12.88h2.658v-6.46c0-2.293 1.834-4.127 4.043-4.127 2.208 0 4.043 1.873 4.043 4.127h2.657c0-3.745-2.994-6.802-6.7-6.802Z"/>
    <path fill="#B6D7FF" d="M128.729 9.046c0-4.996 3.964-9.046 8.856-9.046h88.559C231.035 0 235 4.05 235 9.046v23.908c0 4.996-3.965 9.046-8.856 9.046h-88.559c-4.892 0-8.856-4.05-8.856-9.046V9.046Z"/>
    <path fill="#1B1B1B" d="M224.462 14.98v2.936h-8.312V14.98h8.312Zm-6.425-3.378h3.828v13.143c0 .36.054.642.162.844a.898.898 0 0 0 .449.413c.198.08.425.12.683.12.18 0 .359-.016.539-.046l.413-.083.602 2.91c-.191.06-.461.131-.808.21-.348.087-.77.139-1.267.157-.923.037-1.731-.089-2.426-.377a3.406 3.406 0 0 1-1.609-1.34c-.383-.605-.572-1.37-.566-2.294V11.602Zm-10.255 17.75c-1.419 0-2.641-.294-3.666-.88-1.018-.594-1.803-1.433-2.354-2.516-.551-1.089-.826-2.377-.826-3.864 0-1.45.275-2.723.826-3.818.551-1.095 1.327-1.949 2.327-2.56 1.007-.613 2.187-.919 3.541-.919.91 0 1.758.15 2.543.45a5.64 5.64 0 0 1 2.066 1.331c.593.593 1.054 1.34 1.384 2.24.329.893.494 1.94.494 3.139v1.073h-11.654v-2.423h8.051c0-.563-.12-1.061-.359-1.496a2.61 2.61 0 0 0-.998-1.019c-.419-.25-.907-.376-1.464-.376a2.87 2.87 0 0 0-2.588 1.505 3.132 3.132 0 0 0-.387 1.515v2.303c0 .698.126 1.3.378 1.809.257.508.62.9 1.087 1.174.467.276 1.021.413 1.662.413.426 0 .815-.06 1.168-.183.354-.122.656-.306.908-.55a2.4 2.4 0 0 0 .575-.9l3.54.238a4.973 4.973 0 0 1-1.105 2.277c-.551.642-1.264 1.144-2.138 1.505-.869.355-1.872.532-3.011.532Zm-16.591 5.305c-1.24 0-2.303-.174-3.19-.523-.88-.343-1.581-.81-2.102-1.404a4.346 4.346 0 0 1-1.016-2.001l3.54-.486c.108.281.279.544.513.789.233.245.542.44.925.587.39.153.863.23 1.42.23.832 0 1.518-.208 2.057-.624.546-.41.818-1.099.818-2.066V26.58h-.162a3.71 3.71 0 0 1-.754 1.111c-.336.349-.767.633-1.294.854-.527.22-1.156.33-1.887.33-1.036 0-1.98-.245-2.831-.734-.844-.496-1.518-1.252-2.021-2.267-.497-1.022-.746-2.313-.746-3.874 0-1.597.255-2.93.764-4.001.509-1.071 1.186-1.873 2.03-2.405a5.167 5.167 0 0 1 2.795-.799c.773 0 1.42.135 1.941.404.521.263.94.594 1.258.992.323.391.572.777.745 1.156h.144v-2.368h3.801v14.236c0 1.199-.288 2.202-.863 3.01-.575.808-1.371 1.413-2.39 1.817-1.012.41-2.177.615-3.495.615Zm.081-8.72c.617 0 1.138-.155 1.563-.467.432-.318.761-.771.989-1.359.233-.593.35-1.303.35-2.129 0-.826-.114-1.542-.341-2.148-.228-.612-.557-1.086-.989-1.422-.431-.337-.955-.505-1.572-.505-.629 0-1.159.174-1.591.523-.431.343-.757.82-.979 1.432-.222.612-.332 1.319-.332 2.12 0 .814.11 1.518.332 2.111.228.587.554 1.043.979 1.368.432.318.962.477 1.591.477Zm-17.805 3.369a5.128 5.128 0 0 1-2.848-.826c-.845-.556-1.516-1.373-2.013-2.45-.491-1.083-.737-2.411-.737-3.984 0-1.615.255-2.958.764-4.029.509-1.077 1.186-1.881 2.031-2.414a5.12 5.12 0 0 1 2.794-.807c.773 0 1.417.134 1.932.403.521.264.94.594 1.258.992.323.391.569.777.737 1.156h.116V10.28h3.819v18.797h-3.774v-2.258h-.161a5.08 5.08 0 0 1-.764 1.166c-.324.38-.746.694-1.267.945-.515.251-1.144.376-1.887.376Zm1.213-3.111c.617 0 1.138-.171 1.564-.514.431-.349.76-.835.988-1.46.234-.623.35-1.355.35-2.193 0-.838-.113-1.566-.341-2.184-.228-.618-.557-1.096-.989-1.432-.431-.337-.955-.505-1.572-.505-.629 0-1.159.174-1.59.523-.432.349-.758.832-.98 1.45-.221.618-.332 1.334-.332 2.148 0 .82.111 1.545.332 2.175.228.624.554 1.114.98 1.469.431.349.961.523 1.59.523Zm-13.698 2.882V14.98h3.827v14.098h-3.827Zm1.923-15.915c-.57 0-1.058-.193-1.465-.578a1.895 1.895 0 0 1-.602-1.405c0-.538.201-1 .602-1.386a2.037 2.037 0 0 1 1.465-.587c.569 0 1.054.196 1.455.587.407.386.611.848.611 1.386 0 .545-.204 1.013-.611 1.405a2.023 2.023 0 0 1-1.455.578Zm-21.229 15.915-3.756-14.098h3.873l2.138 9.472h.126l2.228-9.472h3.801l2.264 9.417h.117l2.103-9.417h3.864l-3.747 14.098h-4.053l-2.372-8.866h-.171l-2.372 8.866h-4.043Z"/>
  </g>
  <defs>
    <clipPath id="a">
      <path fill="#fff" d="M0 0h235v42H0z"/>
    </clipPath>
  </defs>
</svg>
