<svg xmlns="http://www.w3.org/2000/svg" width="200" height="42" fill="none" viewBox="0 0 200 42">
  <g clip-path="url(#a)">
    <path fill="#fff" d="M83.243 14.535a6.836 6.836 0 0 0-6.845 6.841 6.836 6.836 0 0 0 6.845 6.841 6.836 6.836 0 0 0 6.845-6.84 6.836 6.836 0 0 0-6.845-6.842Zm0 10.969a4.136 4.136 0 0 1-4.13-4.128c0-2.293 1.874-4.127 4.13-4.127a4.136 4.136 0 0 1 4.13 4.127 4.136 4.136 0 0 1-4.13 4.128ZM22.216 14.535a6.836 6.836 0 0 0-6.845 6.841 6.836 6.836 0 0 0 6.845 6.841 6.836 6.836 0 0 0 6.844-6.84c0-3.784-3.097-6.842-6.844-6.842Zm0 10.969a4.136 4.136 0 0 1-4.13-4.128 4.136 4.136 0 0 1 4.13-4.127c2.256 0 4.13 1.872 4.13 4.127s-1.874 4.128-4.13 4.128Zm76.246-10.969a6.836 6.836 0 0 0-6.845 6.841 6.836 6.836 0 0 0 6.845 6.841 6.836 6.836 0 0 0 6.844-6.84c0-3.784-3.097-6.842-6.844-6.842Zm0 10.969a4.136 4.136 0 0 1-4.13-4.128 4.136 4.136 0 0 1 4.13-4.127 4.135 4.135 0 0 1 4.129 4.127c0 2.255-1.873 4.128-4.13 4.128Z"/>
    <path fill="#EF755A" d="M13.307 10.637 11.701 8.46a8.68 8.68 0 0 1-5.085 1.643 8.72 8.72 0 0 1-4.742-1.414L.383 10.943a11.259 11.259 0 0 0 6.233 1.873c2.447 0 4.741-.765 6.691-2.179Z"/>
    <path fill="#fff" d="M117.81 10.484v5.427a6.825 6.825 0 0 0-4.13-1.414 6.836 6.836 0 0 0-6.844 6.841 6.836 6.836 0 0 0 6.844 6.841 6.836 6.836 0 0 0 6.845-6.84V10.483h-2.715Zm-4.13 15.02a4.135 4.135 0 0 1-4.129-4.128 4.135 4.135 0 0 1 4.129-4.127 4.136 4.136 0 0 1 4.13 4.127c0 2.255-1.874 4.128-4.13 4.128Zm-41.45-9.593a6.741 6.741 0 0 0-4.13-1.414 6.836 6.836 0 0 0-6.844 6.841c0 3.745 3.021 6.765 6.73 6.841a4.136 4.136 0 0 1 4.13 4.128 4.136 4.136 0 0 1-4.13 4.127 4.136 4.136 0 0 1-4.13-4.127h-2.714a6.836 6.836 0 0 0 6.844 6.84 6.836 6.836 0 0 0 6.845-6.84 6.896 6.896 0 0 0-2.715-5.466c1.72-1.26 2.83-3.248 2.83-5.541v-6.841H72.23v1.452Zm-4.13 9.593a4.136 4.136 0 0 1-4.129-4.128 4.136 4.136 0 0 1 4.13-4.127 4.136 4.136 0 0 1 4.13 4.127c0 2.255-1.874 4.128-4.13 4.128Zm-26.612-4.127a4.136 4.136 0 0 1-4.13 4.127 4.136 4.136 0 0 1-4.13-4.127v-6.459h-2.714v6.803c.19 3.592 3.173 6.497 6.844 6.497 3.71 0 6.692-2.943 6.845-6.612v-6.688h-2.715v6.459Zm-30.514 0a4.136 4.136 0 0 1-4.13 4.127c-2.255 0-4.13-1.872-4.13-4.127v-6.459H0v6.803c.191 3.592 3.174 6.497 6.845 6.497a4.136 4.136 0 0 1 4.13 4.127 4.136 4.136 0 0 1-4.13 4.128c-2.256 0-4.13-1.873-4.13-4.128H0a6.836 6.836 0 0 0 6.845 6.841 6.836 6.836 0 0 0 6.844-6.84c0-2.256-1.109-4.243-2.791-5.504a6.821 6.821 0 0 0 2.753-5.236v-6.688h-2.715v6.459h.038Zm42.1-6.842a6.741 6.741 0 0 0-4.13 1.414v-1.032H46.23v12.88h2.715v-6.46a4.136 4.136 0 0 1 4.13-4.127c2.256 0 4.13 1.873 4.13 4.128h2.715c0-3.745-3.06-6.803-6.845-6.803Z"/>
    <path fill="#FFB8A8" d="M131.169 9.116c0-5.034 4.05-9.116 9.046-9.116h50.4c4.996 0 9.046 4.082 9.046 9.116v23.768c0 5.035-4.05 9.116-9.046 9.116h-50.4c-4.996 0-9.046-4.081-9.046-9.116V9.116Z"/>
    <path fill="#1B1B1B" d="M168.554 29.076V14.978h3.726v2.488h.165c.294-.826.784-1.478 1.469-1.955.685-.477 1.505-.716 2.46-.716.966 0 1.789.242 2.469.725a3.413 3.413 0 0 1 1.358 1.946h.147c.287-.808.808-1.453 1.56-1.937.759-.49 1.655-.734 2.689-.734 1.316 0 2.384.42 3.204 1.257.826.832 1.239 2.014 1.239 3.543v9.481h-3.901v-8.71c0-.783-.208-1.37-.624-1.762-.416-.392-.936-.587-1.561-.587-.709 0-1.263.226-1.661.679-.398.446-.596 1.037-.596 1.771v8.61h-3.791v-8.793c0-.692-.199-1.243-.597-1.652-.391-.41-.908-.616-1.551-.616-.434 0-.826.11-1.175.33a2.266 2.266 0 0 0-.816.91c-.202.385-.303.838-.303 1.358v8.462h-3.91Zm-11.092 0V14.978h3.791v2.46h.146c.257-.875.689-1.536 1.295-1.982a3.398 3.398 0 0 1 2.092-.68c.196 0 .407.013.634.037.226.025.425.058.596.101v3.47a5.085 5.085 0 0 0-.762-.147 6.845 6.845 0 0 0-.89-.065c-.575 0-1.089.126-1.542.377a2.769 2.769 0 0 0-1.065 1.028c-.257.44-.385.948-.385 1.523v7.976h-3.91Zm-9.317.276c-1.444 0-2.686-.306-3.727-.918a6.205 6.205 0 0 1-2.386-2.57c-.551-1.095-.826-2.356-.826-3.782 0-1.444.278-2.71.835-3.8a6.207 6.207 0 0 1 2.396-2.56c1.034-.618 2.264-.927 3.69-.927 1.229 0 2.306.223 3.23.67.924.447 1.655 1.074 2.194 1.881.538.808.835 1.757.89 2.846h-3.689c-.105-.704-.38-1.27-.827-1.698-.44-.435-1.018-.652-1.734-.652-.606 0-1.135.165-1.588.496-.447.324-.796.798-1.046 1.422-.251.624-.377 1.38-.377 2.267 0 .9.123 1.665.367 2.295.251.63.603 1.11 1.056 1.441.453.33.982.496 1.588.496.446 0 .847-.092 1.202-.276.361-.183.658-.45.89-.798.239-.355.395-.78.469-1.276h3.689c-.061 1.077-.355 2.025-.881 2.845-.52.814-1.239 1.45-2.157 1.91-.918.458-2.004.688-3.258.688Z"/>
  </g>
  <defs>
    <clipPath id="a">
      <path fill="#fff" d="M0 0h199.662v42H0z"/>
    </clipPath>
  </defs>
</svg>
