<svg xmlns="http://www.w3.org/2000/svg" width="142" height="30" fill="none" viewBox="0 0 142 30">
  <g clip-path="url(#a)">
    <path fill="#1B1B1B" d="M59.337 10.321a4.854 4.854 0 0 0-4.86 4.858 4.854 4.854 0 0 0 4.86 4.857c2.688 0 4.86-2.17 4.86-4.857a4.854 4.854 0 0 0-4.86-4.858Zm0 7.788a2.937 2.937 0 0 1-2.932-2.93 2.936 2.936 0 0 1 2.932-2.931 2.936 2.936 0 0 1 2.933 2.93 2.937 2.937 0 0 1-2.933 2.931Zm-43.333-7.788a4.854 4.854 0 0 0-4.86 4.858 4.854 4.854 0 0 0 4.86 4.857c2.688 0 4.86-2.17 4.86-4.857 0-2.687-2.199-4.858-4.86-4.858Zm0 7.788a2.937 2.937 0 0 1-2.932-2.93 2.936 2.936 0 0 1 2.932-2.931c1.602 0 2.933 1.33 2.933 2.93 0 1.602-1.33 2.931-2.933 2.931Zm54.139-7.788a4.854 4.854 0 0 0-4.86 4.858 4.854 4.854 0 0 0 4.86 4.857c2.688 0 4.86-2.17 4.86-4.857 0-2.687-2.2-4.858-4.86-4.858Zm0 7.788a2.937 2.937 0 0 1-2.932-2.93 2.936 2.936 0 0 1 2.932-2.931c1.63 0 2.932 1.33 2.932 2.93 0 1.602-1.33 2.931-2.932 2.931Z"/>
    <path fill="#EF755A" d="m9.679 7.554-1.14-1.547a6.164 6.164 0 0 1-3.612 1.167A6.191 6.191 0 0 1 1.561 6.17L.502 7.77A7.994 7.994 0 0 0 4.927 9.1 8.021 8.021 0 0 0 9.68 7.554Z"/>
    <path fill="#1B1B1B" d="M83.881 7.445V11.3a4.846 4.846 0 0 0-2.932-1.004 4.854 4.854 0 0 0-4.86 4.857 4.854 4.854 0 0 0 4.86 4.857c2.688 0 4.86-2.17 4.86-4.857V7.445H83.88ZM80.949 18.11a2.937 2.937 0 0 1-2.933-2.93 2.937 2.937 0 0 1 2.933-2.932 2.937 2.937 0 0 1 2.932 2.931c0 1.601-1.33 2.93-2.932 2.93Zm-29.432-6.811a4.786 4.786 0 0 0-2.932-1.004 4.854 4.854 0 0 0-4.86 4.857c0 2.66 2.145 4.803 4.779 4.857a2.937 2.937 0 0 1 2.932 2.931c0 1.628-1.33 2.93-2.932 2.93a2.937 2.937 0 0 1-2.933-2.93h-1.927a4.854 4.854 0 0 0 4.86 4.858 4.855 4.855 0 0 0 4.86-4.858c0-1.574-.76-2.985-1.928-3.88 1.221-.896 2.009-2.307 2.009-3.935v-4.857h-1.928v1.03Zm-2.932 6.81a2.936 2.936 0 0 1-2.932-2.93c0-1.628 1.33-2.93 2.932-2.93a2.937 2.937 0 0 1 2.932 2.93c0 1.601-1.33 2.93-2.932 2.93Zm-18.896-2.93c0 1.628-1.33 2.93-2.933 2.93a2.937 2.937 0 0 1-2.932-2.93v-4.586h-1.928v4.83c.136 2.55 2.254 4.613 4.86 4.613 2.634 0 4.752-2.09 4.86-4.694v-4.75H29.69v4.587Zm-21.666 0c0 1.628-1.33 2.93-2.933 2.93-1.601 0-2.932-1.33-2.932-2.93v-4.586H.23v4.83c.136 2.55 2.254 4.613 4.86 4.613a2.937 2.937 0 0 1 2.933 2.93c0 1.63-1.33 2.932-2.933 2.932-1.601 0-2.932-1.33-2.932-2.931H.23a4.854 4.854 0 0 0 4.86 4.857c2.688 0 4.86-2.17 4.86-4.857 0-1.601-.787-3.012-1.982-3.908a4.844 4.844 0 0 0 1.955-3.717v-4.75H7.995v4.587h.028Zm29.893-4.858c-1.114 0-2.118.38-2.933 1.004v-.732h-1.927v9.145h1.927v-4.586a2.936 2.936 0 0 1 2.933-2.931c1.602 0 2.932 1.33 2.932 2.93h1.928c0-2.659-2.173-4.83-4.86-4.83Z"/>
    <path fill="#FFB8A8" d="M93.366 6.473C93.366 2.898 96.242 0 99.79 0h35.787C139.124 0 142 2.898 142 6.473v16.876c0 3.575-2.876 6.473-6.423 6.473H99.789c-3.547 0-6.423-2.898-6.423-6.473V6.473Z"/>
    <path fill="#1B1B1B" d="M119.912 20.645v-10.01h2.646v1.766h.117a2.778 2.778 0 0 1 1.043-1.388c.487-.339 1.069-.508 1.747-.508.686 0 1.27.171 1.753.515.482.339.803.8.964 1.381h.104a2.67 2.67 0 0 1 1.108-1.375c.539-.347 1.176-.521 1.91-.521.934 0 1.692.297 2.274.893.587.59.88 1.43.88 2.515v6.732h-2.77v-6.184c0-.556-.147-.973-.443-1.252-.295-.278-.665-.417-1.108-.417-.504 0-.897.161-1.179.483-.283.317-.424.736-.424 1.257v6.113h-2.691v-6.243c0-.49-.142-.882-.424-1.173-.278-.291-.645-.437-1.101-.437-.309 0-.587.079-.835.235a1.617 1.617 0 0 0-.58.645 2.055 2.055 0 0 0-.215.965v6.008h-2.776Zm-7.876.001v-10.01h2.692v1.746h.104c.182-.621.489-1.09.919-1.408.43-.321.925-.482 1.486-.482a4.172 4.172 0 0 1 .873.098v2.463a3.625 3.625 0 0 0-.541-.104 4.858 4.858 0 0 0-.632-.046c-.408 0-.773.09-1.095.268a1.97 1.97 0 0 0-.756.73 2.112 2.112 0 0 0-.274 1.081v5.664h-2.776Zm-6.615.194c-1.025 0-1.907-.216-2.646-.65a4.404 4.404 0 0 1-1.694-1.826c-.391-.777-.587-1.672-.587-2.685 0-1.025.198-1.924.593-2.698a4.41 4.41 0 0 1 1.701-1.818c.734-.439 1.608-.658 2.62-.658.873 0 1.638.159 2.294.476a3.84 3.84 0 0 1 1.558 1.336c.382.573.593 1.246.632 2.02h-2.62c-.074-.5-.27-.902-.587-1.206-.313-.308-.723-.463-1.231-.463a1.86 1.86 0 0 0-1.128.353c-.317.23-.565.566-.743 1.01-.178.443-.267.98-.267 1.61 0 .638.087 1.181.261 1.629.178.447.428.788.749 1.023.322.234.697.352 1.128.352.317 0 .601-.066.853-.196.257-.13.467-.32.632-.567a2.16 2.16 0 0 0 .333-.906h2.62c-.044.765-.252 1.438-.626 2.02a3.78 3.78 0 0 1-1.531 1.356c-.652.326-1.423.489-2.314.489Z"/>
  </g>
  <defs>
    <clipPath id="a">
      <path fill="#fff" d="M.23 0h141.769v29.822H.23z"/>
    </clipPath>
  </defs>
</svg>
